<svg width="19" height="19" viewBox="0 0 19 19" fill="currentColor" xmlns="http://www.w3.org/2000/svg">
<path d="M16.8668 0.601562H1.52812C0.793359 0.601562 0.199219 1.18164 0.199219 1.89883V17.3008C0.199219 18.018 0.793359 18.6016 1.52812 18.6016H16.8668C17.6016 18.6016 18.1992 18.018 18.1992 17.3043V1.89883C18.1992 1.18164 17.6016 0.601562 16.8668 0.601562ZM5.53945 15.9402H2.86758V7.34805H5.53945V15.9402ZM4.20352 6.17734C3.3457 6.17734 2.65313 5.48477 2.65313 4.63047C2.65313 3.77617 3.3457 3.08359 4.20352 3.08359C5.05781 3.08359 5.75039 3.77617 5.75039 4.63047C5.75039 5.48125 5.05781 6.17734 4.20352 6.17734ZM15.5379 15.9402H12.8695V11.7637C12.8695 10.7688 12.852 9.48555 11.4809 9.48555C10.0922 9.48555 9.88125 10.5719 9.88125 11.6934V15.9402H7.21641V7.34805H9.77578V8.52227H9.81094C10.166 7.84727 11.0379 7.13359 12.3352 7.13359C15.0387 7.13359 15.5379 8.9125 15.5379 11.2258V15.9402Z" fill="currentColor"/>
</svg>
