<svg width="178" height="42" viewBox="0 0 178 42" fill="none" xmlns="http://www.w3.org/2000/svg">
<path d="M140.215 20.8548C140.215 19.8077 140.215 18.8227 140.181 17.9131C140.158 17.055 140.073 16.1996 139.928 15.3537C139.791 14.5813 139.55 13.8312 139.212 13.1239C138.854 12.3948 138.376 11.7314 137.798 11.1616C136.979 10.32 136.004 9.64644 134.927 9.17851C133.762 8.70574 132.515 8.47138 131.259 8.48923C129.998 8.4729 128.746 8.70717 127.575 9.17851C126.493 9.64005 125.511 10.3107 124.687 11.1522C124.11 11.7216 123.634 12.3852 123.279 13.1145C122.944 13.8219 122.706 14.5722 122.575 15.3443C122.432 16.1905 122.35 17.0458 122.33 17.9037C122.308 18.8133 122.297 19.7982 122.302 20.8453C122.308 21.8924 122.302 22.8699 122.33 23.7851C122.35 24.643 122.432 25.4983 122.575 26.3445C122.706 27.1166 122.944 27.8669 123.279 28.5743C123.636 29.3028 124.111 29.9661 124.687 30.5366C125.51 31.3788 126.492 32.0484 127.575 32.5065C128.745 32.9809 129.997 33.2166 131.259 33.1996C132.515 33.2181 133.763 32.9824 134.927 32.5065C136.004 32.0448 136.979 31.3755 137.798 30.5366C138.375 29.9658 138.853 29.3026 139.212 28.5743C139.55 27.8671 139.791 27.1169 139.928 26.3445C140.072 25.501 140.155 24.6482 140.178 23.7927C140.206 22.8774 140.219 21.8981 140.211 20.8529L140.215 20.8548ZM135.479 20.8548C135.479 22.0149 135.463 22.981 135.423 23.7493C135.401 24.3805 135.338 25.0096 135.235 25.6326C135.165 26.0477 135.038 26.4513 134.859 26.8322C134.714 27.1393 134.524 27.423 134.296 27.6741C133.943 28.0788 133.505 28.4003 133.014 28.6157C132.461 28.8527 131.866 28.9733 131.264 28.9698C130.66 28.9724 130.062 28.852 129.505 28.6157C129.002 28.4043 128.553 28.0825 128.19 27.6741C127.96 27.4241 127.77 27.1402 127.626 26.8322C127.452 26.4509 127.332 26.0471 127.269 25.6326C127.169 25.0092 127.106 24.3803 127.081 23.7493C127.047 22.981 127.03 22.0161 127.03 20.8548C127.03 19.6947 127.047 18.7267 127.081 17.9583C127.106 17.3273 127.169 16.6984 127.269 16.075C127.332 15.6605 127.452 15.2567 127.626 14.8754C127.77 14.5677 127.96 14.2838 128.19 14.0336C128.553 13.6257 129.002 13.304 129.505 13.0919C130.061 12.853 130.66 12.7324 131.264 12.7379C131.866 12.7316 132.462 12.8523 133.014 13.0919C133.505 13.308 133.942 13.6294 134.296 14.0336C134.524 14.285 134.714 14.5686 134.859 14.8754C135.038 15.2563 135.165 15.6599 135.235 16.075C135.338 16.6981 135.401 17.3272 135.423 17.9583C135.464 18.7248 135.479 19.6928 135.479 20.8548Z" fill="white"/>
<path d="M177.95 9.11933C177.948 8.89032 177.763 8.70517 177.534 8.70312H173.628C173.399 8.70416 173.213 8.88989 173.212 9.11933V23.5828L163.684 8.81989C163.621 8.72007 163.564 8.70312 163.423 8.70312H159.8C159.572 8.70617 159.388 8.89074 159.385 9.11933V32.5886C159.388 32.8169 159.572 33.0009 159.8 33.0029H163.705C163.933 33.0019 164.118 32.817 164.119 32.5886V18.0874L173.648 32.8843C173.714 32.9841 173.767 33.001 173.909 33.001H177.531C177.759 33 177.944 32.8154 177.946 32.5867L177.95 9.11933Z" fill="white"/>
<path d="M151.761 9.11933C151.76 8.88989 151.575 8.70416 151.346 8.70312H147.443C147.214 8.70416 147.028 8.88989 147.027 9.11933V32.5867C147.028 32.8161 147.214 33.0019 147.443 33.0029H151.346C151.575 33.0019 151.76 32.8161 151.761 32.5867V9.11933Z" fill="white"/>
<path d="M105.037 20.8554C105.037 19.6878 105.05 18.716 105.084 17.942C105.107 17.3109 105.169 16.6819 105.272 16.0588C105.632 13.9683 107.23 12.7348 109.269 12.7348C110.599 12.7461 111.806 13.2395 112.576 14.3619C112.925 14.886 113.18 15.4673 113.328 16.0795C113.339 16.144 113.398 16.189 113.463 16.1831H118.058C118.124 16.1831 118.148 16.1379 118.137 16.0738C117.635 13.2244 116.119 10.6651 113.439 9.39764C112.122 8.78654 110.684 8.48078 109.233 8.50309C106.646 8.50309 104.467 9.39074 102.695 11.166C101.684 12.1539 100.993 13.4246 100.714 14.812C100.444 16.178 100.307 18.1919 100.305 20.8536C100.302 23.5152 100.439 25.5285 100.714 26.8932C100.991 28.2824 101.679 29.5557 102.69 30.5467C104.46 32.3208 106.639 33.2078 109.227 33.2078C110.678 33.2298 112.116 32.9247 113.433 32.3151C116.113 31.0477 117.629 28.4883 118.131 25.6389C118.142 25.573 118.118 25.5297 118.052 25.5297H113.456C113.39 25.5229 113.331 25.5683 113.32 25.6333C113.172 26.2448 112.917 26.8254 112.569 27.3489C111.798 28.4789 110.592 28.9667 109.261 28.9761C107.222 28.9761 105.625 27.7444 105.264 25.654C105.162 25.0308 105.099 24.4018 105.076 23.7707C105.05 22.9929 105.037 22.0193 105.037 20.8554Z" fill="white"/>
<path d="M56.5053 9.11933C56.5043 8.88989 56.3189 8.70416 56.09 8.70312H52.1868C51.9579 8.70416 51.7725 8.88989 51.7715 9.11933V32.5886C51.7735 32.8173 51.9586 33.0019 52.1868 33.0031H56.09C56.3182 33.0019 56.5032 32.8173 56.5053 32.5886V25.6996L59.638 21.9463L66.0725 32.8786C66.122 32.9592 66.2111 33.0068 66.3055 33.0031H71.0487C71.2667 33.0031 71.3062 32.8673 71.1972 32.6809L62.7726 18.368L70.5019 9.07601C70.6578 8.88768 70.5921 8.70877 70.3478 8.70877H65.1629C65.0999 8.70506 65.0391 8.73336 65.0013 8.78411L56.5053 18.9952V9.11933Z" fill="white"/>
<path d="M84.9441 28.9765C82.7473 28.9765 80.7553 26.9388 80.7553 24.5056V9.11933C80.7543 8.88989 80.5689 8.70416 80.34 8.70312H76.4368C76.2079 8.70416 76.0225 8.88989 76.0215 9.11933V24.4454C76.0215 29.8032 80.0205 33.2082 84.9441 33.2082C89.8677 33.2082 93.8667 29.8032 93.8667 24.4454V9.11933C93.8647 8.89032 93.68 8.70517 93.4514 8.70312H89.5464C89.3182 8.70518 89.134 8.89062 89.1329 9.11933V24.5056C89.1329 26.9369 87.1391 28.9765 84.9441 28.9765Z" fill="white"/>
<path fill-rule="evenodd" clip-rule="evenodd" d="M12.5377 20.8557L24.655 33.0009L32.3035 25.336C33.6712 24.1019 35.7635 24.1568 37.0649 25.4609C38.3662 26.7651 38.421 28.8619 37.1895 30.2325L27.0961 40.3494C25.7404 41.6856 23.5659 41.6856 22.2101 40.3494L7.64788 25.7522V34.4284C7.64788 36.3432 6.09893 37.8955 4.1882 37.8955C2.27747 37.8955 0.728516 36.3432 0.728516 34.4284V7.2717C0.728516 5.35688 2.27747 3.80461 4.1882 3.80461C6.09893 3.80461 7.64788 5.35688 7.64788 7.2717V15.9479L22.2082 1.35448C23.5636 0.0172562 25.7389 0.0172562 27.0943 1.35448L37.1952 11.4695C38.4266 12.8401 38.3718 14.9369 37.0705 16.2411C35.7692 17.5452 33.6768 17.6001 32.3091 16.366L24.6606 8.70111L12.5377 20.8557ZM24.6606 17.3848C23.2596 17.3841 21.9962 18.2293 21.4595 19.5262C20.9228 20.8231 21.2187 22.3163 22.2091 23.3093C23.1995 24.3024 24.6893 24.5997 25.9837 24.0625C27.2782 23.5254 28.1222 22.2597 28.1222 20.8557C28.1227 19.9352 27.7583 19.0522 27.1091 18.4009C26.4599 17.7496 25.5792 17.3835 24.6606 17.383V17.3848Z" fill="white"/>
</svg>
