<svg width="231" height="70" viewBox="0 0 231 70" fill="none" xmlns="http://www.w3.org/2000/svg">
<path d="M79.2168 53.735V26.0544H83.3353L83.7275 28.2886H83.9237C85.1003 26.7583 87.1 25.6621 89.8842 25.6621C94.9798 25.6621 99.0597 29.819 99.0597 35.9724C99.0597 42.1256 94.9833 46.2825 89.8842 46.2825C87.1386 46.2825 85.2193 45.1443 84.2003 43.852H84.0041V53.7315H79.2204L79.2168 53.735ZM94.2724 35.9758C94.2724 32.3687 91.9575 30.0958 89.1347 30.0958C86.312 30.0958 83.9972 32.3687 83.9972 35.9758C83.9972 39.5831 86.312 41.8559 89.1347 41.8559C91.9575 41.8559 94.2724 39.5831 94.2724 35.9758Z" fill="white"/>
<path d="M101.486 35.9762C101.486 29.977 105.797 25.666 111.562 25.666C117.326 25.666 121.637 29.977 121.637 35.9762C121.637 41.9753 117.326 46.2865 111.562 46.2865C105.797 46.2865 101.486 41.9334 101.486 35.9762ZM116.815 35.9762C116.815 32.4461 114.462 30.0962 111.562 30.0962C108.662 30.0962 106.27 32.4497 106.27 35.9762C106.27 39.5029 108.662 41.8177 111.562 41.8177C114.462 41.8177 116.815 39.5063 116.815 35.9762Z" fill="white"/>
<path d="M125.104 45.8937V18.4512H129.887V45.8971H125.104V45.8937Z" fill="white"/>
<path d="M147.646 26.0547H152.741L144.116 50.1667C143.254 52.5586 142.077 53.7352 138.978 53.7352H134.352V49.3051H138.274C138.982 49.3051 139.37 48.9515 139.609 48.3631L140.078 47.0708L132.002 26.0547H137.097L142.235 39.818H143.02L147.646 26.0547Z" fill="white"/>
<path d="M153.657 46.8743H158.518C158.714 48.1667 160.006 49.9317 163.067 49.9317C165.928 49.9317 167.812 48.1281 167.812 45.3824V42.5984H167.616C166.558 43.7364 164.597 44.7556 162.086 44.7556C156.991 44.7556 153.068 40.8331 153.068 35.1878C153.068 29.5424 156.991 25.6621 162.086 25.6621C164.713 25.6621 166.636 26.7197 167.851 28.2116H168.047L168.439 26.0544H172.596V45.3824C172.596 50.6356 169.066 54.1272 163.067 54.1272C156.364 54.1272 153.776 49.7355 153.657 46.8743ZM167.812 35.1914C167.812 32.0955 165.616 29.9382 162.832 29.9382C160.048 29.9382 157.891 32.0955 157.891 35.1914C157.891 38.2872 160.087 40.4831 162.832 40.4831C165.578 40.4831 167.812 38.3257 167.812 35.1914Z" fill="white"/>
<path d="M175.92 35.9762C175.92 29.977 180.231 25.666 185.996 25.666C191.76 25.666 196.071 29.977 196.071 35.9762C196.071 41.9753 191.76 46.2865 185.996 46.2865C180.231 46.2865 175.92 41.9334 175.92 35.9762ZM191.249 35.9762C191.249 32.4461 188.895 30.0962 185.996 30.0962C183.096 30.0962 180.704 32.4497 180.704 35.9762C180.704 39.5029 183.096 41.8177 185.996 41.8177C188.895 41.8177 191.249 39.5063 191.249 35.9762Z" fill="white"/>
<path d="M199.404 45.8938V26.0544H203.519L203.911 27.935H204.107C204.892 27.035 206.853 25.6621 209.831 25.6621C214.378 25.6621 217.671 28.954 217.671 33.9726V45.8903H212.888V34.5996C212.888 32.0499 211.084 30.2079 208.615 30.2079C206.146 30.2079 204.184 32.1305 204.184 34.5996V45.8903H199.4L199.404 45.8938Z" fill="white"/>
<path d="M51.3712 43.5789L63.1311 36.7884C63.7546 36.4277 64.1399 35.7587 64.1399 35.0408V21.4597C64.1399 20.7418 63.7546 20.0729 63.1311 19.7121L51.3712 12.9216C50.7478 12.5609 49.9738 12.5644 49.354 12.9216L37.5938 19.7121C36.9706 20.0729 36.5853 20.7418 36.5853 21.4597V45.7292L28.3378 50.4886L20.0904 45.7292V36.2071L28.3378 31.4478L33.7767 34.589V28.2012L29.3464 25.6412C29.0417 25.4661 28.6916 25.3715 28.3378 25.3715C27.984 25.3715 27.634 25.4661 27.3293 25.6412L15.5692 32.4318C14.9458 32.7925 14.5605 33.4615 14.5605 34.1794V47.7606C14.5605 48.4784 14.9458 49.1472 15.5692 49.508L27.3293 56.2987C27.9525 56.6558 28.7231 56.6558 29.3464 56.2987L41.1065 49.508C41.7299 49.1472 42.115 48.4784 42.115 47.7606V23.4874L42.2621 23.4034L50.3591 18.7281L58.6066 23.4874V33.0097L50.3591 37.769L44.9272 34.6345V41.0225L49.3504 43.5755C49.9738 43.9327 50.7478 43.9327 51.3677 43.5755L51.3712 43.5789Z" fill="white"/>
</svg>
