<svg width="261" height="67" viewBox="0 0 261 67" fill="none" xmlns="http://www.w3.org/2000/svg">
<path d="M34.5734 38.2089L31.3886 46.9253C31.2533 47.1844 31.2533 47.4539 31.3886 47.713L36.9569 62.762L43.3161 59.0619L35.6246 38.2089C35.4997 37.6804 34.8336 37.6804 34.5734 38.2089Z" fill="white"/>
<path d="M40.9319 23.4296C40.7966 22.9011 40.1409 22.9011 39.8703 23.4296L36.6855 32.146C36.5502 32.4051 36.5502 32.6746 36.6855 32.9337L45.6988 57.6215L52.058 53.9215L40.9319 23.4296Z" fill="white"/>
<path d="M29.5347 4.28727C29.67 4.28727 29.7949 4.28727 29.9302 4.422L54.3161 18.4138C54.5763 18.5486 54.7116 18.8077 54.7116 19.2015V47.1852C54.7116 47.4443 54.5763 47.8485 54.3161 47.9729L29.9302 61.9647C29.7949 62.0995 29.67 62.0995 29.5347 62.0995C29.3994 62.0995 29.2745 62.0995 29.1392 61.9647L21.484 57.6116L16.909 59.731L11.887 56.8495L13.8287 53.2584L4.75328 47.9729C4.49309 47.8381 4.35778 47.579 4.35778 47.1852V19.2015C4.35778 18.9424 4.49309 18.5382 4.75328 18.4138L29.1392 4.422C29.2641 4.28727 29.3994 4.28727 29.5347 4.28727ZM29.5347 0.193359C28.6084 0.193359 27.8069 0.452467 27.0159 0.856676L2.63006 14.8485C1.03764 15.7709 0.111328 17.3567 0.111328 19.2015V47.1852C0.111328 48.9057 1.03764 50.6158 2.63006 51.5382L27.0159 65.53C27.8069 65.9239 28.6084 66.1934 29.5347 66.1934C30.461 66.1934 31.2624 65.9342 32.0534 65.53L56.4393 51.5382C58.0317 50.6158 58.958 49.03 58.958 47.1852V19.2015C58.958 17.481 58.0317 15.7709 56.4393 14.8485L32.1783 0.856676C31.3873 0.462832 30.5859 0.193359 29.6596 0.193359H29.5347Z" fill="white"/>
<path d="M27.5473 17.2227H21.3129C20.9174 17.2227 20.3866 17.4818 20.2513 17.886L7.00195 54.0471L13.3612 57.7472L27.9428 18.0103C28.0781 17.6165 27.8075 17.2227 27.412 17.2227H27.5473Z" fill="white"/>
<path d="M38.2769 17.222H32.0425C31.647 17.222 31.1162 17.4811 30.9809 17.8853L15.8789 59.0628L22.2382 62.7629L38.6724 17.8853C38.8077 17.4915 38.5371 17.0977 38.1416 17.0977L38.2769 17.222Z" fill="white"/>
<path d="M85.2061 24.748C85.8722 24.748 86.403 24.8828 86.7985 25.1419C87.194 25.401 87.5895 25.9296 87.9954 26.5929L96.0824 41.1133C96.2177 41.248 96.2177 41.3724 96.0824 41.5072C96.0824 41.6419 95.9471 41.6419 95.6869 41.6419H92.6373C92.3771 41.6419 92.2418 41.5072 92.1065 41.3828L90.3684 38.2113H78.9717L77.244 41.3828C77.1087 41.6419 76.9838 41.6419 76.7132 41.6419H73.5283C73.2681 41.6419 73.1328 41.6419 73.1328 41.5072C73.1328 41.3724 73.1328 41.248 73.1328 41.1133L81.0845 26.5929C81.48 25.8052 81.8755 25.401 82.2814 25.1419C82.6873 24.8828 83.0724 24.748 83.6032 24.748H85.0603H85.2061ZM80.4288 35.444H88.776L84.9354 28.3134C84.8001 28.1786 84.8001 28.1786 84.6753 28.1786H84.5399C84.4046 28.1786 84.2797 28.1786 84.2797 28.3134L80.4288 35.444Z" fill="white"/>
<path d="M113.703 24.748C115.555 24.748 116.888 25.1419 117.679 26.0643C118.47 26.852 118.875 28.1786 118.875 29.7644V31.0806C118.875 32.5317 118.615 33.5888 118.084 34.3765C117.554 35.1642 116.627 35.6928 115.306 35.9622L119.417 41.1133C119.552 41.248 119.552 41.3724 119.552 41.5072C119.552 41.6419 119.417 41.7663 119.156 41.7663H115.972C115.711 41.7663 115.576 41.7663 115.576 41.6315C115.441 41.6315 115.441 41.4968 115.316 41.3724L111.475 36.3561H103.659V41.2377C103.659 41.6315 103.524 41.7663 103.128 41.7663H100.474C100.079 41.7663 99.9434 41.6315 99.9434 41.2377V25.5357C99.9434 25.0072 100.204 24.748 100.734 24.748H113.859H113.703ZM103.628 33.4541H112.901C113.692 33.4541 114.358 33.3193 114.629 32.9255C115.025 32.5317 115.16 32.0031 115.16 31.3398V30.2826C115.16 29.4949 115.025 28.9663 114.629 28.6969C114.234 28.303 113.703 28.1683 112.901 28.1683H103.888C103.628 28.1683 103.628 28.303 103.628 28.4274V33.4541Z" fill="white"/>
<path d="M139.288 24.748C141.016 24.748 142.202 25.1419 142.868 25.8052C143.534 26.4685 143.93 27.5257 143.93 28.842V30.0338C143.93 31.3501 143.399 32.4073 142.337 33.0706C143.399 33.7339 144.065 34.7911 144.065 36.2421V37.6931C144.065 38.3564 143.93 38.885 143.805 39.4136C143.68 39.9421 143.409 40.336 143.139 40.7298C142.743 41.1237 142.348 41.3931 141.817 41.5175C141.286 41.6523 140.62 41.7766 139.829 41.7766H125.383C124.852 41.7766 124.592 41.5175 124.592 40.9889V25.5461C124.592 25.0175 124.852 24.7584 125.383 24.7584H139.434H139.288V24.748ZM128.287 31.744H138.226C139.017 31.744 139.548 31.6092 139.819 31.3501C140.089 31.091 140.214 30.8215 140.214 30.293V29.5053C140.214 28.9767 140.079 28.5828 139.819 28.4481C139.558 28.189 139.028 28.0543 138.497 28.0543H128.557C128.297 28.0543 128.297 28.189 128.297 28.3134V31.744H128.287ZM128.287 34.3869V37.9522C128.287 38.2113 128.422 38.2113 128.547 38.2113H138.486C139.153 38.2113 139.548 38.0766 139.808 37.8175C140.068 37.5583 140.204 37.1541 140.204 36.7603V35.8379C140.204 35.3093 140.068 34.9154 139.808 34.646C139.548 34.3765 139.017 34.2521 138.081 34.2521H128.151L128.287 34.3869Z" fill="white"/>
<path d="M153.066 24.748C153.461 24.748 153.597 24.8828 153.597 25.2766V41.1133C153.597 41.5072 153.461 41.6419 153.066 41.6419H150.412C150.016 41.6419 149.881 41.5072 149.881 41.1133V25.2766C149.881 24.8828 150.016 24.748 150.412 24.748H153.066Z" fill="white"/>
<path d="M178.649 24.748C179.044 24.748 179.18 24.8828 179.18 25.2766V27.6501C179.18 28.0439 179.044 28.1786 178.649 28.1786H170.957V41.1133C170.957 41.5072 170.822 41.6419 170.427 41.6419H167.773C167.377 41.6419 167.242 41.5072 167.242 41.1133V28.1786H159.55C159.155 28.1786 159.02 28.0439 159.02 27.6501V25.2766C159.02 24.8828 159.155 24.748 159.55 24.748H178.503H178.649Z" fill="white"/>
<path d="M197.873 24.748C199.725 24.748 201.057 25.1419 201.848 26.0643C202.639 26.852 203.045 28.1786 203.045 29.7644V31.0806C203.045 32.5317 202.785 33.5888 202.254 34.3765C201.724 35.1642 200.797 35.6928 199.475 35.9622L203.587 41.1133C203.722 41.248 203.722 41.3724 203.722 41.5072C203.722 41.6419 203.587 41.7663 203.326 41.7663H200.142C199.881 41.7663 199.746 41.7663 199.746 41.6315C199.611 41.6315 199.611 41.4968 199.486 41.3724L195.645 36.3561H187.829V41.2377C187.829 41.6315 187.694 41.7663 187.298 41.7663H184.644C184.249 41.7663 184.113 41.6315 184.113 41.2377V25.5357C184.113 25.0072 184.373 24.748 184.904 24.748H198.029H197.873ZM187.798 33.4541H197.071C197.862 33.4541 198.528 33.3193 198.799 32.9255C199.194 32.5317 199.33 32.0031 199.33 31.3398V30.2826C199.33 29.4949 199.194 28.9663 198.799 28.6969C198.403 28.303 197.873 28.1683 197.071 28.1683H188.058C187.798 28.1683 187.798 28.303 187.798 28.4274V33.4541Z" fill="white"/>
<path d="M211.529 24.748C211.925 24.748 212.06 24.8828 212.06 25.2766V34.9154C212.06 35.5788 212.06 36.1073 212.195 36.5012C212.33 36.895 212.455 37.2889 212.726 37.5583C212.997 37.8278 213.257 37.9522 213.652 38.0869C214.048 38.2217 214.579 38.2217 215.245 38.2217H222.01C222.676 38.2217 223.207 38.2217 223.602 38.0869C223.998 37.9522 224.393 37.8278 224.529 37.5583C224.789 37.2992 224.924 36.895 225.059 36.5012C225.195 36.1073 225.195 35.5788 225.195 34.9154V25.2766C225.195 24.8828 225.33 24.748 225.725 24.748H228.38C228.775 24.748 228.91 24.8828 228.91 25.2766V35.3093C228.91 36.5012 228.775 37.4236 228.515 38.2113C228.255 38.999 227.849 39.6623 227.318 40.1909C226.787 40.7195 226.121 41.1133 225.195 41.248C224.268 41.5072 223.342 41.6419 222.01 41.6419H214.984C213.788 41.6419 212.726 41.5072 211.8 41.248C211.009 40.9889 210.207 40.5847 209.676 40.1909C209.146 39.6623 208.75 38.999 208.479 38.2113C208.219 37.4236 208.084 36.3665 208.084 35.3093V25.2766C208.084 24.8828 208.219 24.748 208.615 24.748H211.269H211.529Z" fill="white"/>
<path d="M239.359 24.748C239.754 24.748 240.025 24.748 240.285 24.8828C240.545 24.8828 240.816 25.0175 240.951 25.1419C241.086 25.2766 241.347 25.401 241.482 25.6705C241.617 25.9296 241.742 26.1991 242.013 26.5929L247.05 38.2113C247.186 38.346 247.186 38.4704 247.446 38.4704H247.706C247.841 38.4704 247.966 38.3357 248.101 38.2113L253.139 26.5929C253.274 26.1991 253.399 25.9296 253.67 25.6705C253.805 25.4114 253.93 25.2766 254.201 25.1419C254.336 25.0072 254.596 24.8828 254.867 24.8828C255.137 24.8828 255.397 24.748 255.793 24.748H258.447C259.238 24.748 259.904 24.8828 260.175 25.2766C260.435 25.6705 260.57 26.3338 260.57 27.2562V41.1133C260.57 41.5072 260.435 41.6419 260.039 41.6419H257.521C257.125 41.6419 256.99 41.5072 256.99 41.1133V28.4481C256.99 28.3134 256.855 28.189 256.855 28.189H256.594C256.459 28.189 256.334 28.3237 256.334 28.3237L251.432 39.1441C251.297 39.5379 251.037 39.9318 250.766 40.2013C250.495 40.4707 250.37 40.7298 250.1 40.9889C249.84 41.1237 249.569 41.3828 249.309 41.3828C249.049 41.5175 248.643 41.5175 248.247 41.5175H247.05C246.655 41.5175 246.259 41.5175 245.989 41.3828C245.718 41.248 245.458 41.1237 245.198 40.9889C244.937 40.8542 244.802 40.5951 244.532 40.2013C244.271 39.9421 244.136 39.5379 243.865 39.1441L238.963 28.3237C238.963 28.189 238.828 28.189 238.703 28.189H238.443C238.308 28.189 238.308 28.3237 238.308 28.4481V41.1237C238.308 41.5175 238.172 41.6523 237.777 41.6523H235.248C234.852 41.6523 234.717 41.5175 234.717 41.1237V27.2562C234.717 26.3338 234.852 25.6705 235.112 25.2766C235.373 24.8828 236.039 24.748 236.84 24.748H239.494H239.359Z" fill="white"/>
</svg>
