<svg width="252" height="45" viewBox="0 0 252 45" fill="none" xmlns="http://www.w3.org/2000/svg">
<path d="M23.0968 42.138C28.1428 42.5348 32.5084 41.004 36.1256 37.7043C39.7769 34.3819 42.1581 30.4018 42.8272 25.2765C43.1673 22.6798 42.8838 20.2305 42.5437 17.8039C41.954 13.699 39.7315 10.3086 36.6926 7.47377C34.5948 5.51207 32.1342 4.25341 29.4355 3.36895C29.0953 3.25556 28.7438 3.01743 28.5056 2.74529C28.1655 2.34841 28.2448 1.87216 28.483 1.41859C28.7438 0.953682 29.1066 0.9877 29.5715 1.12377C36.1143 3.16484 40.9675 7.23565 43.8817 13.4156C44.7548 15.2752 45.628 17.2823 45.3558 19.4934C45.2764 20.1057 45.3898 20.6954 45.7187 21.2623C45.8774 21.5345 45.9908 21.9087 45.9341 22.2035C45.1971 25.7981 45.0837 29.5173 43.2694 32.8738C41.0015 37.1033 37.8152 40.4598 33.6083 42.6142C31.1023 43.8956 28.3582 45.0068 25.4213 44.9728C22.802 44.9388 20.1826 45.2223 17.5519 44.4965C12.3131 43.0565 8.07224 40.199 4.84054 35.9354C1.0759 30.9574 -0.273479 25.1971 0.588307 19.0625C1.0192 16.0236 2.25518 13.1774 3.95607 10.5014C7.02902 5.65949 11.5307 2.97207 16.7355 1.12377C17.2344 0.953682 17.6993 0.82895 17.9488 1.37324C18.2209 1.95154 18.2549 2.52984 17.5746 2.96074C16.6901 3.5277 15.6696 3.74315 14.7284 4.1627C9.54634 6.47591 5.98581 10.354 4.14884 15.5927C2.78813 19.4707 2.52732 23.5529 3.78599 27.635C5.77036 34.0644 9.61438 38.7702 15.9984 41.2195C18.3116 42.1153 20.7269 42.3648 23.0968 42.138Z" fill="white"/>
<path d="M113.187 26.3199C113.187 23.9614 113.187 21.6141 113.187 19.2556C113.187 18.4845 113.187 17.6681 114.231 17.566C115.126 17.4866 116.067 17.3506 116.374 18.5865C116.578 19.403 116.816 19.2102 117.36 18.7226C119.639 16.6702 123.982 16.5795 126.114 19.0741C126.908 20.004 127.384 20.0833 128.291 19.1195C130.491 16.8063 133.371 16.6135 136.081 17.7361C138.587 18.7793 139.812 21.0812 139.835 23.848C139.857 26.9096 139.846 29.9712 139.835 33.0215C139.835 34.5863 139.37 35.1532 138.19 35.0965C136.796 35.0398 136.705 34.042 136.705 32.9988C136.705 30.0279 136.739 27.0683 136.682 24.1088C136.626 21.4327 134.959 19.8112 132.453 19.8452C130.196 19.8792 128.291 21.6935 128.257 23.9387C128.212 27.0456 128.235 30.1526 128.223 33.2596C128.223 34.3368 127.838 35.0512 126.602 35.1306C125.298 35.2099 124.821 34.5863 124.821 33.373C124.833 30.3114 124.844 27.2498 124.821 24.1995C124.81 22.5326 124.447 21.0472 122.701 20.2534C120.875 19.4143 119.265 19.8792 117.836 21.0585C116.476 22.1811 116.43 23.882 116.374 25.4695C116.283 28.1002 116.34 30.7423 116.34 33.373C116.34 34.4502 116.033 35.1759 114.718 35.1532C113.652 35.1306 113.165 34.745 113.176 33.6565C113.21 31.2072 113.176 28.7579 113.176 26.3086L113.187 26.3199Z" fill="white"/>
<path d="M23.1748 39.0445C18.5371 39.8043 14.6137 38.0467 11.2572 34.9851C9.25018 33.1481 7.79875 30.8349 6.91429 28.1928C6.18858 26.0384 5.67831 23.8612 5.87108 21.582C6.39268 15.3227 9.30688 10.6169 15.0672 7.81613C15.6569 7.53264 16.2125 7.16979 16.8135 6.92032C17.2557 6.73889 17.7773 6.69354 18.0155 7.27184C18.2196 7.77077 18.0721 8.213 17.6299 8.50782C17.165 8.81398 16.6661 9.09747 16.1558 9.34693C12.1644 11.3653 9.42027 14.6651 8.67188 18.8946C7.46991 25.7549 9.23884 31.8327 16.7114 35.6654C19.7957 37.2529 23.1295 37.3209 26.588 36.6066C30.7268 35.7561 33.641 33.4656 35.7614 30.0071C37.0768 27.864 37.9613 25.4374 37.9953 22.9768C38.052 19.575 37.0541 16.3659 35.013 13.4971C33.5389 11.422 31.5092 10.1407 29.3888 8.95005C28.6517 8.54184 27.994 8.12229 28.4022 7.24916C28.8331 6.31934 29.5248 6.9997 30.0805 7.22648C33.9698 8.80264 36.6346 11.6261 38.5055 15.3227C39.5828 17.4432 40.2405 19.6317 40.2291 22.0356C40.1838 28.5443 37.451 33.5336 31.9628 37.0601C29.2754 38.7951 26.3952 39.5094 23.1748 39.0218V39.0445Z" fill="white"/>
<path d="M57.1262 23.2131C57.1262 20.0154 57.1262 16.8177 57.1262 13.62C57.1262 11.7037 57.4664 11.3635 59.326 11.3522C61.4465 11.3408 63.5896 11.1594 65.6874 11.3975C68.2841 11.7037 71.0168 11.7377 73.0466 13.9262C76.1875 17.3053 75.6319 23.2017 71.0508 25.6624C68.4995 27.0344 65.8915 26.8757 63.2154 26.9097C62.6484 26.9097 62.0815 26.9437 61.5145 26.9097C60.6074 26.8643 60.2445 27.2839 60.2672 28.1797C60.3012 29.9713 60.2445 31.7516 60.2672 33.5432C60.2785 34.541 60.0291 35.1533 58.8611 35.1647C57.6591 35.1874 57.1035 34.6884 57.1035 33.5091C57.1035 33.4184 57.1035 33.3164 57.1035 33.2257C57.1035 29.8919 57.1035 26.5468 57.1035 23.2131H57.1262ZM60.2899 19.2557C60.2899 20.3782 60.3352 21.5122 60.2785 22.6348C60.2332 23.6553 60.6187 24.0862 61.6732 24.0522C63.3174 23.9955 64.973 24.0408 66.6172 24.0295C67.7284 24.0295 68.7603 23.5986 69.7015 23.1564C71.3116 22.408 72.2188 19.6412 71.7652 17.5774C71.4364 16.1033 69.5541 14.5839 67.7511 14.5045C65.6874 14.4138 63.6123 14.4705 61.5372 14.4365C60.63 14.4251 60.2672 14.822 60.2899 15.7178C60.3239 16.8857 60.2899 18.065 60.2899 19.2443V19.2557Z" fill="white"/>
<path d="M178.035 22.9394C178.035 19.4129 178.046 15.875 178.035 12.3485C178.035 11.26 178.273 10.5002 179.566 10.4775C180.893 10.4435 181.142 11.294 181.165 12.3259C181.199 14.2989 181.176 16.2833 181.187 18.2563C181.187 18.6192 181.097 19.0727 181.494 19.2768C181.947 19.515 182.174 19.0274 182.412 18.8006C184.669 16.7142 187.379 16.6915 189.873 17.8254C192.277 18.914 193.74 21.0458 193.706 23.9146C193.672 27.0669 193.695 30.2192 193.706 33.3829C193.706 34.3581 193.649 35.1632 192.323 35.1745C190.996 35.1745 190.576 34.4601 190.565 33.3149C190.554 30.7749 190.565 28.2349 190.542 25.6835C190.542 25.0259 190.52 24.3568 190.406 23.7105C189.987 21.1025 188.728 19.9345 186.347 19.8778C183.863 19.8211 181.868 21.3179 181.414 23.6198C180.87 26.4206 181.278 29.2554 181.165 32.0676C181.142 32.6345 181.165 33.2015 181.131 33.7571C181.085 34.8343 180.45 35.1745 179.43 35.1518C178.387 35.1292 178.012 34.6529 178.024 33.6664C178.046 30.0832 178.024 26.5113 178.024 22.9281L178.035 22.9394Z" fill="white"/>
<path d="M207.428 27.5232C205.681 27.5232 203.935 27.5232 202.2 27.5232C200.771 27.5346 200.556 27.8861 201.1 29.2355C202.075 31.6621 203.912 32.7847 206.656 32.6713C208.289 32.6032 209.831 32.3084 211.079 31.1518C211.941 30.3581 212.53 30.9477 213.097 31.5487C213.744 32.2177 213.324 32.694 212.78 33.1816C208.992 36.6174 200.93 36.6967 198.311 30.256C196.508 25.811 197.494 20.8331 202.166 18.157C206.588 15.617 212.859 18.0323 213.812 23.5318C213.948 24.3142 214.367 25.0059 214.39 25.8337C214.413 27.013 214.061 27.5799 212.791 27.5346C210.999 27.4665 209.208 27.5232 207.416 27.5232H207.428ZM206.055 25.3688C207.428 25.3688 208.788 25.3574 210.16 25.3688C210.909 25.3688 211.306 24.9719 211.101 24.3256C210.637 22.8628 210.206 21.2753 208.72 20.4929C204.99 18.5199 201.985 20.8104 200.907 24.1328C200.647 24.9492 201.089 25.3801 201.951 25.3688C203.323 25.3688 204.683 25.3688 206.055 25.3688Z" fill="white"/>
<path d="M153.646 27.5308C151.854 27.5308 150.063 27.5761 148.271 27.5194C147.137 27.4854 146.956 27.973 147.307 28.8915C148.509 32.0892 149.904 32.7242 153.396 32.6902C154.893 32.6788 156.265 32.2026 157.422 31.2047C158.193 30.5357 158.76 30.8192 159.315 31.4995C159.939 32.2593 159.553 32.7355 158.964 33.2571C154.655 37.1011 146.4 36.2053 144.234 29.2203C142.896 24.9227 145.005 19.6953 148.963 17.8924C153.011 16.0441 158.726 17.779 160.041 23.0064C160.279 23.9589 160.676 24.8774 160.721 25.8752C160.767 26.9525 160.381 27.5648 159.179 27.5421C157.342 27.4968 155.505 27.5421 153.657 27.5421L153.646 27.5308ZM152.296 25.3877C153.476 25.3877 154.655 25.3877 155.823 25.3877C157.252 25.3763 157.58 24.9568 157.286 23.5961C156.775 21.2602 154.508 19.7067 151.718 19.8541C149.405 19.9788 147.738 21.8271 147.25 24.0496C147.069 24.8887 147.341 25.4103 148.339 25.3877C149.654 25.3536 150.981 25.3877 152.296 25.3877Z" fill="white"/>
<path d="M108.968 26.3633C109.058 31.2846 105.192 35.5935 99.7942 35.4801C94.0111 35.3554 90.7681 31.5227 90.5867 26.3293C90.4166 21.34 94.9636 16.793 99.9643 17.0878C104.579 17.36 108.968 20.5009 108.968 26.3633ZM99.6808 32.5546C103.65 32.5659 106.19 30.1166 105.974 26.1706C105.781 22.6327 103.253 19.8092 99.7715 19.8433C96.381 19.8659 93.7617 22.5193 93.7503 26.1366C93.7503 29.8105 95.9048 32.9061 99.6921 32.5659L99.6808 32.5546Z" fill="white"/>
<path d="M230.411 33.0666C228.098 35.9128 221.952 36.253 219.707 33.2594C218.857 32.1255 218.233 30.9462 218.222 29.5515C218.176 26.0703 218.222 22.5778 218.188 19.0966C218.188 18.1781 218.346 17.5545 219.469 17.5205C220.557 17.4978 221.226 17.8833 221.306 18.9832C221.385 19.9244 221.351 20.8656 221.363 21.8067C221.363 24.1086 221.328 26.4218 221.385 28.7237C221.442 31.3204 222.814 32.5337 225.558 32.545C228.484 32.545 230.366 31.0709 230.411 28.5876C230.468 25.526 230.457 22.4644 230.434 19.4028C230.434 18.2462 230.672 17.4638 232.055 17.5205C233.428 17.5658 233.847 17.94 233.847 19.4368C233.858 23.9045 233.847 28.3835 233.847 32.8512C233.847 33.8717 233.847 34.9036 232.498 35.1077C231.216 35.3005 230.332 34.9036 230.4 33.0553L230.411 33.0666Z" fill="white"/>
<path d="M32.2123 21.9431C32.6205 19.3464 31.1918 17.2033 29.2981 15.253C28.9693 14.9128 28.6064 14.5953 28.391 14.1984C28.1529 13.7675 28.2096 13.2459 28.5951 12.8944C28.9806 12.5429 29.2981 12.9511 29.6043 13.1212C33.5504 15.355 35.5347 20.7638 34.1627 25.1521C33.0174 28.8374 30.9083 31.6155 27.1777 32.8062C21.338 34.6771 15.8271 32.8742 12.9469 27.488C11.0646 23.9729 11.1553 20.503 12.9582 16.9879C13.7633 15.423 15.0106 14.3231 16.394 13.3366C16.8589 13.0078 17.5506 12.5769 18.0042 13.2686C18.4124 13.8922 17.9248 14.4252 17.4372 14.8447C15.8044 16.2168 14.8746 17.9857 14.0695 19.9474C13.185 22.0905 13.8087 23.9729 14.5684 25.7985C16.7002 30.9465 22.5966 32.9649 27.5292 30.3682C30.7836 28.656 32.4051 25.9799 32.2237 21.9431H32.2123Z" fill="white"/>
<path d="M245.12 17.4979C246.254 17.4639 247.785 17.4752 249.202 18.3256C249.883 18.7339 250.79 18.9266 250.336 20.0379C249.86 21.1831 249.043 21.2285 248.034 20.7523C246.753 20.1399 245.415 19.6977 243.952 19.8564C243.476 19.9018 243.022 19.9585 242.591 20.1853C241.786 20.6048 241.14 21.2739 241.14 22.1243C241.14 23.0995 241.99 23.6551 242.852 23.984C244.723 24.7097 246.696 25.2199 248.488 26.1157C251.334 27.5331 252.638 30.7308 249.588 33.7471C248.545 34.7789 247.275 35.2892 245.789 35.3686C243.385 35.4933 241.095 35.1531 238.986 33.9512C238.282 33.5543 237.568 33.0327 238.067 32.0575C238.589 31.0256 239.314 31.003 240.278 31.5699C242.217 32.7039 244.326 32.942 246.537 32.5564C247.32 32.4204 247.898 32.0462 247.966 31.2411C248.046 30.3793 248.329 29.4155 247.399 28.7805C246.537 28.1908 245.596 27.6919 244.576 27.5785C242.671 27.3631 241.083 26.5353 239.655 25.3447C237.988 23.9726 237.84 21.2512 239.292 19.5163C240.664 17.8721 241.662 17.4979 245.143 17.5092L245.12 17.4979Z" fill="white"/>
<path d="M168.511 15.0711C168.511 15.2071 168.511 15.3545 168.511 15.4906C168.511 16.8438 169.176 17.5241 170.507 17.5317C171.255 17.5317 172.015 17.5317 172.763 17.5544C173.591 17.577 174.09 17.9739 174.09 18.8584C174.09 19.6975 173.568 20.0377 172.831 20.0717C171.89 20.1284 170.949 20.1397 170.008 20.1057C168.953 20.0603 168.466 20.4119 168.488 21.5571C168.545 24.426 168.488 27.2948 168.511 30.1523C168.522 31.6491 169.361 32.4655 170.881 32.5222C171.493 32.5449 172.106 32.5222 172.718 32.4995C173.307 32.4882 173.897 32.4882 174.045 33.2253C174.203 34.0077 173.908 34.6313 173.205 34.9942C169.634 36.8311 165.653 34.5179 165.608 30.5605C165.574 27.6917 165.574 24.8228 165.608 21.9653C165.619 20.9561 165.427 20.2191 164.247 20.0603C163.442 19.9469 163 19.448 163.079 18.5862C163.147 17.8038 163.646 17.5544 164.338 17.5544C165.359 17.5544 165.619 16.9534 165.597 16.0802C165.585 15.4679 165.608 14.8556 165.597 14.2433C165.574 13.2114 165.699 12.4177 167.082 12.395C168.511 12.3723 168.568 13.2114 168.511 14.2319C168.5 14.5154 168.511 14.7989 168.511 15.0824V15.0711Z" fill="white"/>
<path d="M82.0942 20.6959C83.1827 19.7434 83.9765 18.6435 85.2692 18.0538C86.0402 17.7023 86.7433 17.5436 87.537 17.5095C88.2854 17.4869 88.8637 17.6796 88.8637 18.5754C88.8637 19.3692 88.9885 20.2423 87.8545 20.4351C82.8539 21.2402 82.2983 24.4605 81.856 28.3045C81.6633 30.0168 81.8107 31.7857 81.822 33.5206C81.822 34.5865 81.4365 35.1875 80.2345 35.1648C79.0212 35.1421 78.8965 34.4164 78.8965 33.4753C78.9078 28.7241 78.9192 23.9729 78.8965 19.2218C78.8965 18.1672 79.1119 17.5209 80.3706 17.5209C81.6406 17.5209 81.8447 18.2353 81.8447 19.2558C81.8447 19.664 81.7313 20.0949 82.1168 20.6959H82.0942Z" fill="white"/>
</svg>
