<svg width="175" height="45" viewBox="0 0 175 45" fill="none" xmlns="http://www.w3.org/2000/svg">
<path d="M53.6387 40.7699V3.6573H65.7778C69.8033 3.6573 72.8346 4.4916 74.8647 6.16021C76.8949 7.82186 77.9099 10.29 77.9099 13.5647C77.9099 15.2958 77.4233 16.8393 76.4291 18.1672C75.4488 19.5091 74.1069 20.545 72.4035 21.275C74.4128 21.8312 75.998 22.9019 77.166 24.4662C78.3341 26.0444 78.9042 27.9147 78.9042 30.0769C78.9042 33.4072 77.8265 36.0213 75.6643 37.9194C73.509 39.8244 70.4638 40.7699 66.5217 40.7699H53.6387ZM58.5402 23.4929V36.7513H66.6121C68.8925 36.7513 70.6932 36.1673 72.0073 34.9923C73.3213 33.8174 73.9818 32.1974 73.9818 30.1464C73.9818 25.7107 71.5553 23.4929 66.6886 23.4929H58.5402ZM58.5402 19.4743H65.9238C68.0652 19.4743 69.7755 18.932 71.0687 17.8613C72.3479 16.7906 72.9945 15.3445 72.9945 13.509C72.9945 11.465 72.3966 9.9841 71.2077 9.05941C70.0188 8.12777 68.2042 7.66891 65.7778 7.66891H58.5402V19.4743ZM106.624 31.0642H91.0641L87.574 40.7768H82.5264L96.7026 3.6573H100.985L115.182 40.7768H110.163L106.624 31.0642ZM92.552 27.0456H105.178L98.851 9.69905L92.552 27.0456ZM131.118 24.2298C126.925 23.0201 123.873 21.5322 121.954 19.7733C120.042 18.0143 119.083 15.8381 119.083 13.2587C119.083 10.3387 120.258 7.9192 122.587 6.0003C124.93 4.08836 127.961 3.12891 131.695 3.12891C134.246 3.12891 136.527 3.62254 138.515 4.6098C140.517 5.5901 142.054 6.9528 143.152 8.69093C144.251 10.4221 144.8 12.3201 144.8 14.3711H139.885C139.885 12.1255 139.169 10.3595 137.743 9.07332C136.318 7.79405 134.295 7.14747 131.695 7.14747C129.282 7.14747 127.405 7.67586 126.056 8.7396C124.7 9.81029 124.026 11.2773 124.026 13.1684C124.026 14.684 124.659 15.9702 125.952 17.0131C127.231 18.056 129.414 19.0154 132.501 19.8845C135.581 20.7536 138.001 21.713 139.739 22.7559C141.477 23.7988 142.77 25.0155 143.611 26.4199C144.453 27.8104 144.87 29.4581 144.87 31.3423C144.87 34.3527 143.695 36.7652 141.352 38.5729C139.002 40.3806 135.873 41.2844 131.945 41.2844C129.393 41.2844 127.009 40.7977 124.805 39.8244C122.601 38.844 120.897 37.5022 119.695 35.8058C118.492 34.1094 117.901 32.1766 117.901 30.0213H122.816C122.816 32.26 123.644 34.0259 125.305 35.3191C126.96 36.6123 129.171 37.2658 131.945 37.2658C134.531 37.2658 136.506 36.7374 137.882 35.6806C139.266 34.6308 139.954 33.1916 139.954 31.384C139.954 29.5624 139.308 28.158 138.042 27.1638C136.784 26.1835 134.469 25.1962 131.118 24.2298ZM172.145 23.6458H156.063V36.7513H174.745V40.7699H151.169V3.6573H174.494V7.67586H156.063V19.6273H172.145V23.6458Z" fill="white"/>
<path d="M23.0615 44.4267C35.3258 44.4267 45.2749 34.4845 45.2749 22.2133C45.2749 9.94907 35.3327 0 23.0615 0C11.43 0 1.87718 8.95486 0.931641 20.3431H30.2852V24.0766H0.931641C1.87718 35.4718 11.43 44.4267 23.0615 44.4267Z" fill="white"/>
</svg>
