<svg width="199" height="36" viewBox="0 0 199 36" fill="none" xmlns="http://www.w3.org/2000/svg">
<path d="M40.2995 10.0387C33.1073 10.0387 27.4885 15.5935 27.4885 23.0305C27.4885 30.4676 32.9703 35.9749 40.2995 35.9749C47.6286 35.9749 53.2064 30.3727 53.2064 22.9831C53.2064 15.6409 47.7246 10.0387 40.2995 10.0387ZM40.346 30.6126C36.2511 30.6126 33.2499 27.3779 33.2499 23.0305C33.2499 18.6358 36.2018 15.3983 40.2995 15.3983C44.4437 15.3983 47.4422 18.6832 47.4422 23.0305C47.4422 27.3779 44.4437 30.6126 40.346 30.6126ZM54.7769 15.6883H58.3401V35.4869H64.0549V10.5211H54.7769V15.6883ZM13.1152 15.4094C16.1165 15.4094 18.4956 17.2945 19.4028 20.0942H25.4383C24.3419 14.1072 19.485 10.0555 13.1508 10.0555C5.95869 10.0555 0.339844 15.6102 0.339844 23.0473C0.339844 30.4843 5.82165 35.9916 13.1508 35.9916C19.3425 35.9916 24.2953 31.9343 25.3917 25.8971H19.3919C19.0025 27.2719 18.1818 28.4793 17.055 29.3352C15.9281 30.1912 14.557 30.6485 13.1508 30.6376C9.00658 30.6376 6.10396 27.4029 6.10396 23.0556C6.10396 18.6609 8.95998 15.4234 13.1042 15.4234M163.369 20.6407L159.178 20.0133C157.177 19.7345 155.746 19.0457 155.746 17.4534C155.746 15.7134 157.605 14.8462 160.132 14.8462C162.895 14.8462 164.657 16.0536 165.038 18.0335H170.564C169.944 13.0141 166.134 10.0638 160.274 10.0638C154.225 10.0638 150.226 13.2037 150.226 17.6459C150.226 21.8956 152.846 24.3607 158.131 25.1331L162.322 25.7605C164.372 26.0394 165.515 26.8759 165.515 28.4152C165.515 30.3978 163.514 31.2177 160.751 31.2177C157.369 31.2177 155.464 29.8234 155.179 27.693H149.56C150.084 32.5701 153.844 36 160.705 36C166.943 36 171.087 33.0999 171.087 28.128C171.087 23.683 168.086 21.3658 163.371 20.6407M61.2071 0.234236C59.113 0.234236 57.5397 1.77909 57.5397 3.90395C57.5397 6.02882 59.113 7.57645 61.2071 7.57645C63.3011 7.57645 64.8744 6.02882 64.8744 3.90395C64.8744 1.77909 63.3038 0.234236 61.2071 0.234236ZM145.079 19.0708C145.079 13.661 141.842 10.0387 134.981 10.0387C128.504 10.0387 124.884 13.371 124.171 18.4908H129.839C130.113 16.5109 131.648 14.8657 134.888 14.8657C137.793 14.8657 139.221 16.1679 139.221 17.763C139.221 19.8404 136.601 20.3703 133.361 20.7105C128.976 21.1929 123.552 22.7377 123.552 28.5184C123.552 33.0107 126.841 35.908 132.076 35.908C136.173 35.908 138.744 34.1707 140.024 31.4184C140.216 33.8807 142.025 35.473 144.55 35.473H147.883V30.3225H145.079V19.0708ZM139.46 25.3478C139.46 28.6801 136.601 31.1452 133.126 31.1452C130.982 31.1452 129.17 30.2277 129.17 28.2953C129.17 25.8302 132.076 25.1554 134.743 24.8654C137.316 24.6228 138.744 24.0455 139.46 22.9329V25.3478ZM109.121 10.0387C107.643 10.0197 106.18 10.3351 104.837 10.9621C103.494 11.589 102.305 12.5119 101.356 13.6638V0H95.641V35.4981H101.252V32.2048C102.194 33.3984 103.392 34.358 104.754 35.0107C106.115 35.6635 107.605 35.9922 109.11 35.9721C115.962 35.9721 121.17 30.4648 121.17 23.0277C121.17 15.5907 115.883 10.0359 109.11 10.0359M108.252 30.6098C104.157 30.6098 101.156 27.3751 101.156 23.0277C101.156 18.6804 104.204 15.3955 108.298 15.3955C112.443 15.3955 115.348 18.633 115.348 23.0277C115.348 27.3751 112.333 30.6098 108.252 30.6098ZM81.9612 10.0359C78.2472 10.0359 75.8188 11.5808 74.388 13.7531V10.5184H68.7336V35.4869H74.4484V21.9207C74.4484 18.1032 76.8302 15.3983 80.3522 15.3983C83.6413 15.3983 85.6888 17.7658 85.6888 21.1957V35.4897H91.4036V20.7718C91.4036 14.492 88.2132 10.0499 81.9721 10.0499M198.326 22.2191C198.326 15.072 193.181 10.0499 186.266 10.0499C178.932 10.0499 173.548 15.6521 173.548 23.0417C173.548 30.8161 179.304 35.9861 186.362 35.9861C192.315 35.9861 196.98 32.4112 198.173 27.3416H192.23C191.372 29.5724 189.276 30.8189 186.474 30.8189C182.807 30.8189 180.044 28.5016 179.428 24.4443H198.34L198.326 22.2191ZM179.751 20.2894C180.656 16.8121 183.229 15.1194 186.181 15.1194C189.421 15.1194 191.896 17.0045 192.469 20.2894H179.751Z" fill="white"/>
</svg>
