<svg width="234" height="50" viewBox="0 0 234 50" fill="none" xmlns="http://www.w3.org/2000/svg">
<path d="M24.7813 49.8395C19.6033 49.8395 14.4252 49.8413 9.24719 49.8395C2.41581 49.8361 -2.0772 42.5996 0.973654 36.4755C6.13453 26.1177 11.2954 15.7582 16.5146 5.42961C18.1972 2.10234 21.0283 0.395787 24.7607 0.390637C28.4932 0.385486 31.3363 2.08861 33.0154 5.41073C38.226 15.7119 43.3697 26.0473 48.5151 36.3811C51.6467 42.67 47.1726 49.8395 40.1437 49.8395C35.0224 49.8395 29.9027 49.8395 24.7813 49.8395ZM24.7418 46.0607C24.7418 46.0607 24.7418 46.047 24.7418 46.0419C29.9199 46.0419 35.0979 46.114 40.2725 46.0195C44.4479 45.9423 46.9305 41.8098 45.0797 38.0739C39.9806 27.7865 34.8387 17.5214 29.6881 7.25978C28.6957 5.28196 27.0304 4.20721 24.8002 4.19519C22.5305 4.18317 20.8497 5.27509 19.8419 7.28382C14.6913 17.5455 9.54592 27.8106 4.47433 38.11C4.01077 39.0508 3.81849 40.2852 3.94553 41.3291C4.30092 44.2563 6.57919 46.0436 9.72447 46.0573C14.7308 46.0796 19.7355 46.0625 24.7418 46.0625V46.0607Z" fill="white"/>
<path d="M164.34 37.8753C156.789 37.8615 151.211 32.2604 151.266 24.7553C151.321 17.3426 156.872 11.8432 164.312 11.834C171.817 11.8248 177.409 17.4397 177.381 24.9586C177.354 32.3158 171.725 37.8938 164.335 37.88L164.34 37.8753ZM164.215 33.864C169.266 33.9148 173.079 30.1392 173.148 25.0187C173.222 19.7642 169.446 15.8453 164.317 15.8453C159.312 15.8453 155.495 19.7042 155.462 24.8061C155.425 29.8804 159.229 33.8132 164.22 33.864H164.215Z" fill="white"/>
<path d="M183.053 12.481C187.259 12.481 191.497 12.176 195.665 12.5734C199.362 12.9246 201.529 15.7852 201.848 19.5563C202.19 23.6184 200.411 26.1879 195.757 28.0087C198.082 31.008 200.346 33.9333 202.648 36.8956C199.63 37.9908 198.091 37.598 196.335 35.3521C195.106 33.7762 193.752 32.2742 192.707 30.5828C191.418 28.4986 189.833 27.4773 187.115 28.3322V37.2191H183.012V24.3902C186.45 24.3902 189.736 24.4225 193.022 24.381C195.651 24.3486 197.245 23.1424 197.601 21.049C198.036 18.4841 196.409 16.5154 193.516 16.349C191.141 16.2104 188.747 16.3814 186.367 16.2566C183.95 16.1318 183.049 15.032 183.058 12.481H183.053Z" fill="white"/>
<path d="M138.881 28.0081C141.256 31.0675 143.502 33.9604 145.78 36.895C142.777 37.9995 141.233 37.6067 139.458 35.3515C138.174 33.7155 136.778 32.1443 135.697 30.3789C134.426 28.3039 132.79 27.5876 130.23 28.3316V37.2462H126.195V24.3989C129.005 24.3989 131.824 24.4127 134.638 24.3942C135.637 24.3896 136.663 24.4451 137.624 24.2279C139.676 23.7611 140.813 22.3978 140.771 20.2581C140.725 18.1138 139.565 16.6951 137.444 16.5056C134.92 16.2791 132.369 16.3993 129.832 16.293C127.189 16.1821 126.278 15.2393 126.158 12.6005C130.502 12.6005 134.883 12.2401 139.177 12.7114C142.795 13.1089 144.755 16.0111 144.99 19.7452C145.221 23.4792 143.576 26.118 140.119 27.5414C139.787 27.68 139.449 27.8002 138.885 28.0174L138.881 28.0081Z" fill="white"/>
<path d="M97.3482 12.3738H101.498C101.498 13.4089 101.498 14.3748 101.498 15.336C101.517 19.5646 101.433 23.8024 101.581 28.0263C101.711 31.7141 103.744 33.729 107.095 33.8584C110.741 34.0017 112.936 32.2733 113.26 28.5115C113.56 24.9947 113.454 21.4455 113.509 17.9101C113.537 16.1494 113.509 14.3933 113.509 12.4616H117.363C117.363 18.437 117.788 24.3708 117.239 30.2076C116.735 35.5868 112.294 38.2534 106.217 37.8143C101.05 37.44 97.473 33.8538 97.3667 28.6733C97.2512 23.3079 97.3436 17.9379 97.3436 12.3691L97.3482 12.3738Z" fill="white"/>
<path d="M91.0637 37.2099C88.3956 37.5334 86.6318 36.5599 85.7722 34.2892C83.614 28.6188 81.4466 22.953 79.0851 16.7512C78.5952 17.8926 78.281 18.5489 78.0222 19.2282C76.1089 24.2609 74.2142 29.2982 72.3056 34.3308C71.4429 36.6045 69.6529 37.5611 66.9355 37.2007C67.0973 36.6184 67.2128 36.0407 67.4162 35.5046C70.2075 28.2537 73.0404 21.0259 75.7808 13.7565C76.2614 12.4764 77.0425 12.079 78.2163 12.3193C79.5703 12.592 81.3496 11.3904 82.1814 13.5624C85.0882 21.1784 88.0459 28.7713 90.9712 36.3781C91.0498 36.5814 91.0267 36.8263 91.0637 37.2145V37.2099Z" fill="white"/>
<path d="M233.338 37.1351C230.643 37.6219 228.856 36.7223 227.978 34.4362C226.064 29.4175 224.16 24.394 222.247 19.3753C221.984 18.682 221.679 17.9981 221.175 16.778C220.218 19.232 219.447 21.1776 218.698 23.1324C217.27 26.8572 215.856 30.5913 214.442 34.3207C213.582 36.5883 211.806 37.5449 209.113 37.1906C209.28 36.6083 209.395 36.0399 209.603 35.4992C212.325 28.4054 215.163 21.3578 217.732 14.2086C218.508 12.0458 219.927 12.3415 221.508 12.2768C222.996 12.2168 223.98 12.4062 224.609 14.1346C227.192 21.1961 229.993 28.1789 232.705 35.1941C232.95 35.8226 233.126 36.4789 233.338 37.1351Z" fill="white"/>
</svg>
