<svg width="159" height="48" viewBox="0 0 159 48" fill="none" xmlns="http://www.w3.org/2000/svg">
<path d="M47.0125 0H1.72875C1.44948 0 1.18164 0.110863 0.984245 0.308467C0.786641 0.50586 0.675781 0.773702 0.675781 1.05318V46.3369C0.675781 46.6162 0.786641 46.884 0.984245 47.0814C1.18164 47.279 1.44948 47.3899 1.72875 47.3899H47.0125C47.292 47.3899 47.5598 47.279 47.7572 47.0814C47.9548 46.884 48.0657 46.6162 48.0657 46.3369V1.05318C48.0657 0.773702 47.9548 0.50586 47.7572 0.308467C47.5598 0.110863 47.292 0 47.0125 0ZM32.269 30.5402C32.269 30.8195 32.1581 31.0873 31.9605 31.2849C31.7631 31.4823 31.4953 31.5934 31.216 31.5934H17.5255C17.2462 31.5934 16.9783 31.4823 16.7807 31.2849C16.5833 31.0873 16.4725 30.8195 16.4725 30.5402V16.8497C16.4725 16.5704 16.5833 16.3026 16.7807 16.1052C16.9783 15.9076 17.2462 15.7967 17.5255 15.7967H31.216C31.4953 15.7967 31.7631 15.9076 31.9605 16.1052C32.1581 16.3026 32.269 16.5704 32.269 16.8497V30.5402Z" fill="white"/>
<path d="M141.818 15.7988H128.127C127.546 15.7988 127.074 16.2702 127.074 16.8518V30.5423C127.074 31.1239 127.546 31.5955 128.127 31.5955H141.818C142.399 31.5955 142.871 31.1239 142.871 30.5423V16.8518C142.871 16.2702 142.399 15.7988 141.818 15.7988Z" fill="white"/>
<path d="M126.015 0.00195312H112.325C111.743 0.00195312 111.271 0.473325 111.271 1.05514V14.7455C111.271 15.3271 111.743 15.7986 112.325 15.7986H126.015C126.597 15.7986 127.068 15.3271 127.068 14.7455V1.05514C127.068 0.473325 126.597 0.00195312 126.015 0.00195312Z" fill="white"/>
<path d="M157.607 0.00195312H143.916C143.335 0.00195312 142.863 0.473325 142.863 1.05514V14.7455C142.863 15.3271 143.335 15.7986 143.916 15.7986H157.607C158.189 15.7986 158.66 15.3271 158.66 14.7455V1.05514C158.66 0.473325 158.189 0.00195312 157.607 0.00195312Z" fill="white"/>
<path d="M126.015 31.5938H112.325C111.743 31.5938 111.271 32.0651 111.271 32.6467V46.3373C111.271 46.9189 111.743 47.3905 112.325 47.3905H126.015C126.597 47.3905 127.068 46.9189 127.068 46.3373V32.6467C127.068 32.0651 126.597 31.5938 126.015 31.5938Z" fill="white"/>
<path d="M157.607 31.5938H143.916C143.335 31.5938 142.863 32.0651 142.863 32.6467V46.3373C142.863 46.9189 143.335 47.3905 143.916 47.3905H157.607C158.189 47.3905 158.66 46.9189 158.66 46.3373V32.6467C158.66 32.0651 158.189 31.5938 157.607 31.5938Z" fill="white"/>
<path d="M102.3 0.00195312H88.6098C88.0282 0.00195312 87.5566 0.473325 87.5566 1.05514V14.7455C87.5566 15.3271 88.0282 15.7986 88.6098 15.7986H102.3C102.882 15.7986 103.353 15.3271 103.353 14.7455V1.05514C103.353 0.473325 102.882 0.00195312 102.3 0.00195312Z" fill="white"/>
<path d="M102.3 31.5938H88.6098C88.0282 31.5938 87.5566 32.0651 87.5566 32.6467V46.3373C87.5566 46.9189 88.0282 47.3905 88.6098 47.3905H102.3C102.882 47.3905 103.353 46.9189 103.353 46.3373V32.6467C103.353 32.0651 102.882 31.5938 102.3 31.5938Z" fill="white"/>
<path d="M87.5582 16.8378C87.5582 16.5586 87.4472 16.2907 87.2498 16.0933C87.0522 15.8957 86.7843 15.7849 86.5051 15.7849H71.7615V1.05318C71.7615 0.773702 71.6505 0.50586 71.4531 0.308467C71.2555 0.110863 70.9876 0 70.7084 0H57.018C56.7385 0 56.4707 0.110863 56.2733 0.308467C56.0757 0.50586 55.9648 0.773702 55.9648 1.05318V46.3132C55.9648 46.5925 56.0757 46.8603 56.2733 47.0577C56.4707 47.2553 56.7385 47.3662 57.018 47.3662H70.7084C70.9876 47.3662 71.2555 47.2553 71.4531 47.0577C71.6505 46.8603 71.7615 46.5925 71.7615 46.3132V31.5816H86.5051C86.7843 31.5816 87.0522 31.4705 87.2498 31.2731C87.4472 31.0755 87.5582 30.8076 87.5582 30.5284V16.8378Z" fill="white"/>
</svg>
