<svg width="255" height="32" viewBox="0 0 255 32" fill="none" xmlns="http://www.w3.org/2000/svg">
<path d="M31.9043 0H43.0796C47.5378 0 51.8177 3.48347 51.8177 8.53449V22.7586C51.8177 27.5774 48.0134 31.2931 43.0796 31.2931H32.0826C31.8449 31.0609 32.0826 30.8287 32.3204 30.6545C32.9743 29.7836 33.6876 28.9128 34.3415 28.0419C34.5792 27.5774 34.817 27.4033 35.2331 27.4033C37.6703 26.7646 40.1669 25.8938 42.4257 25.1971C44.4468 24.5584 45.3384 23.4553 45.3384 21.4814V10.1021C45.3384 8.12809 44.4468 7.02499 42.4257 6.38635C39.9886 5.74772 37.7297 4.87685 35.2331 4.18016C34.7576 3.94793 34.3415 3.7157 34.1037 3.30929C33.4498 2.14814 32.5582 1.1031 31.9043 0Z" fill="white"/>
<path d="M20.2533 0C19.3616 1.33533 18.47 2.38037 17.8161 3.48347C17.5783 3.7157 17.1622 3.94793 16.9245 3.94793C14.4873 4.58656 11.9907 5.45743 9.55353 6.15412C7.77023 6.61859 6.87859 7.89586 6.87859 9.63759V21.4814C6.87859 23.2231 7.77023 24.5584 9.55353 24.9648C11.9907 25.6035 14.4873 26.4743 16.9245 27.171C17.1622 27.171 17.4 27.4033 17.5784 27.6355C18.47 28.7386 19.3616 30.0159 20.2533 31.3512H9.07798C4.79808 31.3512 1.46926 28.7386 0.577616 24.7907C0.339844 24.152 0.339844 23.4553 0.339844 22.8167V8.59255C0.339844 4.41239 3.25256 1.16116 7.53246 0.290289H20.075C20.0353 0.0967629 20.0948 0 20.2533 0Z" fill="white"/>
<path d="M79.8157 29.9584H76.4275C75.9519 29.9584 75.7736 29.7262 75.5358 29.3198C75.0603 27.3458 74.4064 25.6041 73.9903 23.8624C73.6733 22.856 73.0788 22.3528 72.207 22.3528H65.906C65.3116 22.3528 64.9351 22.5657 64.7766 22.9915C64.1227 25.1977 63.6472 27.1716 62.9933 29.3198C62.7555 29.7842 62.7555 29.9584 62.1017 29.9584H58.9512C59.1889 28.8553 59.4267 27.9845 59.605 27.1136C61.8639 18.8113 64.0633 10.2768 66.5599 1.97457C66.7977 1.51011 67.0354 1.33594 67.4515 1.33594H70.8398C71.4342 1.33594 71.8107 1.54882 71.9692 1.97457C73.3364 6.79337 74.6442 11.6122 76.0114 16.431C77.1408 20.6111 78.2702 24.9655 79.3996 29.1456C79.5779 29.3198 79.8157 29.552 79.8157 29.9584ZM72.8609 18.3469C71.7314 14.3989 70.8398 10.6832 69.4726 6.96754C68.3432 10.9155 67.4515 14.6312 66.3221 18.3469H72.8609Z" fill="white"/>
<path d="M137.178 10.5083C137.416 10.5083 137.654 10.2761 137.654 10.2761C141.696 6.96681 147.759 9.17301 148.651 14.224V23.8616C148.651 26.4742 147.284 28.6804 144.846 29.7835C142.409 30.8866 140.15 30.6544 137.892 29.1449C137.654 28.9127 137.416 28.6804 137.238 28.6804C137 28.6804 137 28.9127 137 28.9127C137 29.648 136.624 30.0157 135.871 30.0157H133.612C133.136 30.0157 132.958 29.7835 133.136 29.3771V1.50938C133.136 1.04492 133.374 1.04492 133.612 1.04492H136.524C137 1.04492 137.178 1.27715 137.178 1.68356V10.5083ZM144.787 19.6815V15.0949C144.312 13.3532 142.528 12.2501 140.745 12.2501C138.962 12.4823 137.357 13.9918 137.357 15.9658V23.1649C137.357 25.3711 139.14 26.8806 141.161 26.8806C143.42 26.8806 144.965 25.1389 144.965 22.9327C144.787 21.8877 144.787 20.7846 144.787 19.6815Z" fill="white"/>
<path d="M250.358 28.6236C249.704 29.0881 248.991 29.7267 248.337 29.959C243.878 31.7007 239.123 28.6236 239.123 24.0371V15.5026C239.123 12.4255 241.56 9.17427 245.84 8.94204C247.386 8.94204 248.753 9.4065 249.882 10.2774C250.12 10.5096 250.12 10.7418 250.536 10.7418C250.774 10.5096 250.536 10.2774 250.536 10.1032V2.03317C250.536 1.60741 250.754 1.39453 251.19 1.39453H253.865C254.103 1.39453 254.34 1.39453 254.34 1.85899V29.4945C254.34 29.9202 254.123 30.1331 253.687 30.1331H251.012C250.536 30.1331 250.358 29.9009 250.358 29.6687C250.596 29.0881 250.774 28.8559 250.358 28.6236ZM250.596 19.4505V16.1412C250.596 15.6767 250.596 15.2703 250.358 14.8059C249.882 13.0641 248.099 11.961 246.316 12.1933C244.532 12.4255 243.165 13.935 242.927 15.5026V23.3984C242.927 25.6046 245.365 27.1141 247.386 26.7077C249.169 26.2433 250.298 24.966 250.298 22.992C250.596 21.8889 250.596 20.7858 250.596 19.4505Z" fill="white"/>
<path d="M101.333 10.6821C101.57 10.4499 101.808 10.2177 102.224 10.0435C104.483 8.70817 106.683 8.53399 109.179 9.57903C111.616 10.6821 112.746 12.6561 112.746 15.2687V24.0354C112.746 26.648 111.379 28.622 108.941 29.7251C106.504 30.8282 104.245 30.5959 101.987 29.0864C101.749 28.8542 101.511 28.622 101.333 28.622H101.095C101.095 29.3574 100.639 29.7251 99.7277 29.7251H97.7066C97.2311 29.7251 97.0527 29.4928 97.0527 29.0864V1.21871C97.0527 0.754251 97.2905 0.580078 97.7066 0.580078H100.382C100.857 0.580078 101.035 0.812309 101.035 1.21871V9.28874C101.095 10.0435 101.095 10.2757 101.333 10.6821ZM101.095 19.6811V23.1646C101.095 25.3707 102.64 26.8802 104.899 26.8802C106.92 26.8802 108.704 25.3707 108.704 23.1646V16.1396C108.704 15.0365 108.228 13.9334 107.336 13.2947C106.207 12.4239 104.661 12.1916 103.294 12.8303C101.927 13.4689 101.035 14.572 101.035 16.1396C101.095 17.2427 101.095 18.3458 101.095 19.6811Z" fill="white"/>
<path d="M180.215 15.7329V21.4226C180.215 23.803 181.582 25.6027 184.019 26.2414C186.932 27.1122 190.082 25.1383 190.32 22.0612C190.32 21.6355 190.617 21.4226 191.212 21.4226H193.649C194.125 21.4226 194.303 21.6548 194.303 22.0612C194.065 25.5447 192.282 27.9831 189.131 29.4926C184.435 31.6988 179.026 29.4926 177.005 24.9061C176.351 23.803 176.113 22.9321 176.113 21.829V9.81103C176.113 6.32757 178.372 3.25051 181.463 1.91518C184.851 0.579848 188.656 1.27654 191.331 3.65691C193.114 5.16641 194.006 7.14038 194.006 9.5788C194.006 9.88844 193.847 10.0433 193.53 10.0433H190.617C190.142 10.0433 189.964 9.81103 189.964 9.40463C189.726 7.43067 188.418 5.68893 186.397 5.22447C183.009 4.3536 179.918 6.5598 179.918 10.0433C180.215 11.785 180.215 13.759 180.215 15.7329Z" fill="white"/>
<path d="M151.326 15.0943C151.98 11.6108 154.714 9.17236 158.281 8.94013C162.323 8.7079 165.652 11.3205 166.365 14.862C166.603 15.5007 166.603 16.1974 166.603 16.836V29.5506C166.603 29.7829 166.365 30.0151 166.127 30.0151H162.977C162.501 30.0151 162.501 29.7829 162.501 29.5506V28.6798C162.026 28.6798 161.847 29.1442 161.609 29.3184C158.221 31.6988 151.742 30.8279 150.613 25.3705C149.483 20.7839 153.287 17.4746 156.913 17.4746H162.085C162.561 17.4746 162.739 17.2424 162.739 16.836V14.862C162.263 13.3525 160.956 12.2494 159.172 12.0172C157.627 12.0172 156.022 12.8881 155.606 14.3976C155.368 14.862 155.13 15.0362 154.714 15.0362C153.525 15.0943 152.455 15.0943 151.326 15.0943ZM159.826 20.3195H157.389C156.022 20.5517 155.13 21.1903 154.714 22.5257C154.239 23.861 154.476 24.906 155.368 25.8349C157.627 28.2153 161.431 27.1703 162.323 24.3254C162.798 23.2223 162.561 21.9451 162.561 20.842C162.561 20.6097 162.323 20.6097 162.085 20.6097C161.372 20.3195 160.718 20.3195 159.826 20.3195Z" fill="white"/>
<path d="M126.419 28.4486C125.29 29.3195 124.16 29.9581 123.031 30.1904C118.989 30.829 115.838 29.0873 114.768 25.836C113.223 21.2495 117.027 17.3015 121.069 17.3015H126.003C126.478 17.3015 126.657 17.0693 126.657 16.6629V15.5598C126.657 13.8181 125.29 12.2505 123.506 11.8441C121.961 11.6119 119.94 12.4828 119.464 14.2245C119.226 14.8631 118.989 14.8631 118.335 14.8631H116.076C115.64 14.8631 115.481 14.6502 115.6 14.2245C116.254 11.8441 117.859 10.0443 120.296 9.17346C125.23 7.43172 130.58 10.9152 130.58 16.1984V29.0873C130.58 29.513 130.362 29.7259 129.926 29.7259H127.489C127.053 29.7259 126.756 29.513 126.597 29.0873C126.657 28.855 126.419 28.855 126.419 28.4486ZM126.419 22.0623V20.727C126.419 20.2625 126.181 20.2625 125.765 20.2625H121.485C119.94 20.2625 118.81 21.3656 118.335 22.6429C117.859 23.9782 118.573 25.4877 119.702 26.3586C122.139 28.1003 125.29 26.5908 126.003 24.1524C126.657 23.3976 126.419 22.759 126.419 22.0623Z" fill="white"/>
<path d="M232.406 28.6237C232.168 28.6237 231.931 28.8559 231.931 28.8559C229.672 30.3654 227.472 30.8299 224.976 29.7268C222.539 28.6237 221.171 26.6497 220.934 24.0371V9.63879C220.934 9.05821 221.231 8.76792 221.825 8.76792H224.262C224.698 8.76792 224.916 8.9808 224.916 9.40656V22.9921C224.916 24.7338 225.808 26.0691 227.353 26.4755C229.791 27.3464 232.525 25.6047 232.525 22.9921V9.46462C232.525 8.88404 232.822 8.59375 233.417 8.59375H235.854C236.29 8.59375 236.508 8.80663 236.508 9.23239V29.2043C236.508 29.6687 236.508 29.8429 235.854 29.8429H232.941C232.466 29.8429 232.287 29.8429 232.287 29.3784C232.406 29.0881 232.406 28.8559 232.406 28.6237Z" fill="white"/>
<path d="M202.861 19.4494V15.966C202.861 12.2503 206.012 9.17321 209.816 8.76681C214.096 8.30234 217.187 11.1472 218.079 14.2242C218.317 14.8629 218.317 15.5596 218.317 16.1982V22.7587C218.317 26.4744 215.404 29.7837 211.599 30.1901C207.141 30.6546 203.753 27.8098 203.099 24.036V22.9329C202.861 21.8879 202.861 20.7848 202.861 19.4494ZM214.274 19.6817V16.3724C214.274 14.3984 212.729 12.8889 210.47 12.6567C208.449 12.6567 206.666 14.1662 206.666 16.3724V22.9329C206.666 24.9069 208.211 26.6486 210.47 26.6486C212.729 26.6486 214.274 24.6746 214.274 22.9329V19.6817Z" fill="white"/>
<path d="M81.5977 15.5013V1.50938C81.5977 1.27715 81.8354 1.04492 82.0732 1.04492H85.4615C85.6992 1.04492 85.937 1.27715 85.937 1.50938V29.3191C85.937 29.7835 85.6992 29.9577 85.2831 29.9577H82.6082C82.1723 29.9577 81.9543 29.7448 81.9543 29.3191V26.9387C81.5977 23.1649 81.5977 19.217 81.5977 15.5013Z" fill="white"/>
<path d="M199.95 15.5022V29.4941C199.95 29.7264 199.95 29.9586 199.474 29.9586H196.561C196.086 29.9586 196.086 29.7264 196.086 29.4941V1.62642C196.086 1.16195 196.086 0.987782 196.561 1.16195H199.474C199.712 1.16195 199.95 1.16195 199.95 1.62642V15.5022Z" fill="white"/>
<path d="M26.0775 13.5263H33.6862C34.2806 13.5263 34.5778 13.8166 34.5778 14.3971V16.7775C34.5778 17.242 34.3401 17.4161 33.924 17.4161H17.5771C17.3988 17.4161 17.1016 17.1839 17.1016 16.9517V13.8746C17.1016 13.4102 17.3393 13.4102 17.5771 13.4102H20.252C22.4514 13.5263 24.2347 13.5263 26.0775 13.5263Z" fill="white"/>
<path d="M91.4664 1.10352H92.8336C93.3091 1.10352 93.3091 1.33575 93.3091 1.56798V4.41281C93.3091 4.87727 93.0714 4.87727 92.8336 4.87727H89.9209C89.4453 4.87727 89.4453 4.64504 89.4453 4.41281V1.56798C89.4453 1.10352 89.6831 1.10352 89.9209 1.10352H91.4664Z" fill="white"/>
</svg>
