<svg width="220" height="61" viewBox="0 0 220 61" fill="none" xmlns="http://www.w3.org/2000/svg">
<g filter="url(#filter0_d_29_766)">
<path d="M126.201 36.2399C125.842 35.8811 125.699 35.3786 125.699 34.8045V10.1146H127.78V34.8045H142.206V36.7423H127.637C126.991 36.6706 126.488 36.527 126.201 36.2399Z" fill="white"/>
<path d="M161.37 28.919H149.455L146.584 36.6705H144.288L154.408 10.0428H155.341C155.915 10.0428 156.417 10.4017 156.704 11.1912L166.322 36.5269H164.097L161.37 28.919ZM150.03 27.1965H160.724L155.413 12.9855L150.03 27.1965Z" fill="white"/>
<path d="M169.839 36.0964C169.48 35.7375 169.265 35.2351 169.265 34.6609V10.1146H180.318C182.399 10.1146 184.05 10.617 185.414 11.6219C186.634 12.6985 187.351 13.9904 187.351 15.7847V18.0096C187.351 19.0862 187.136 20.0193 186.705 20.8806C186.275 21.7418 185.629 22.3878 184.911 22.8902C186.131 23.1773 187.208 23.8232 187.997 24.8281C188.787 25.7611 189.146 26.8377 189.146 28.2014V30.211C189.146 32.2206 188.5 33.7997 187.208 35.0198C185.988 36.2399 184.265 36.8141 182.04 36.8141H171.346C170.7 36.6706 170.198 36.527 169.839 36.0964ZM181.179 22.3878C182.399 22.3878 183.404 22.0289 184.122 21.1676C184.911 20.3781 185.27 19.2298 185.27 17.8661V15.6411C185.27 14.4928 184.768 13.6315 183.906 12.9855C183.045 12.3396 181.825 11.909 180.318 11.909H171.418V22.316H181.107V22.3878H181.179ZM181.753 34.8045C183.26 34.8045 184.552 34.4456 185.485 33.5843C186.418 32.7231 186.921 31.5747 186.921 30.211V28.2014C186.921 27.053 186.562 26.12 185.701 25.4022C184.839 24.6127 183.763 24.3256 182.399 24.3256H171.346V35.0198H181.753V34.8045Z" fill="white"/>
<path d="M194.026 34.9481C192.663 33.5844 192.017 31.7901 192.017 29.4934H194.026C194.026 31.2159 194.529 32.5796 195.462 33.5126C196.395 34.4457 197.758 35.0199 199.409 35.0199H203.644C205.295 35.0199 206.515 34.661 207.52 33.9433C208.453 33.1538 208.955 32.2207 208.955 31.0724V28.4885C208.955 27.5555 208.596 26.6942 207.878 25.9765C207.232 25.3305 206.156 24.8281 204.936 24.6128L198.117 23.4644C196.323 23.1773 194.816 22.5314 193.883 21.4548C192.806 20.3782 192.376 19.1581 192.376 17.5791V15.3541C192.376 13.6316 193.021 12.1961 194.385 11.1195C195.749 10.0429 197.471 9.46875 199.553 9.46875H203.859C205.869 9.46875 207.591 10.0429 208.883 11.2631C210.175 12.4832 210.821 14.134 210.821 16.1436H208.74C208.74 14.7082 208.237 13.488 207.376 12.555C206.515 11.6219 205.295 11.4066 203.859 11.4066H199.553C198.046 11.4066 196.754 11.7655 195.821 12.4832C194.888 13.2727 194.457 14.134 194.457 15.3541V17.8662C194.457 18.9428 194.816 19.6605 195.533 20.3782C196.179 21.0242 197.184 21.5266 198.404 21.7419L205.151 22.8903C206.945 23.1774 208.524 23.8233 209.601 24.8999C210.678 25.8329 211.108 27.1249 211.108 28.5603V31.1441C211.108 32.8667 210.462 34.3021 209.099 35.3787C207.735 36.4553 205.941 37.0295 203.716 37.0295H199.409C197.256 36.9577 195.39 36.3118 194.026 34.9481Z" fill="white"/>
<path d="M37.4181 11.1197C35.1932 10.1867 32.6094 9.68428 29.7385 9.68428H9.57031V46.2884C9.57031 48.0109 10.1445 49.3746 11.2211 50.4512C12.2977 51.5278 13.7331 51.9584 15.4557 51.9584H30.0255C35.3367 51.9584 39.2842 50.5948 41.9398 47.9392C42.8011 47.0779 43.5906 46.0013 44.2366 44.8529L37.4181 11.1197ZM37.6335 35.8096C37.6335 38.6805 36.9875 40.9054 35.6238 42.4127C34.2601 43.9199 32.3223 44.6376 29.7385 44.6376H17.9677V17.0769H29.5949C31.9634 17.0769 33.9013 17.7228 35.4803 19.1583C36.9875 20.522 37.7052 22.4598 37.7052 24.7566C37.6335 24.7566 37.6335 35.8096 37.6335 35.8096Z" fill="white"/>
<path d="M119.885 16.933V9.75577H95.1234L95.0516 10.4017L88.305 43.9914V52.0299H96.6306V35.5222H117.804V28.3449H96.6306V16.933H119.885Z" fill="white"/>
<path d="M91.6065 9.68414L88.1615 26.7661L84.0704 47.2931C83.7833 48.9438 83.1374 50.0922 82.2761 50.8817C81.4148 51.6712 80.2664 52.0301 78.6874 52.0301H75.2424L66.199 22.9621H66.0554L56.8685 51.9583H53.4234C52.0598 51.9583 50.9114 51.5994 49.9783 50.8817C49.0453 50.164 48.4711 48.9438 48.0405 47.2213L45.9591 36.4554L40.5761 9.54059H49.0453L54.2129 39.6134H54.2847L63.041 11.8373H65.9837C66.9167 11.8373 67.9215 12.1244 68.5675 12.6268C69.2134 13.1292 69.9312 14.0623 70.29 15.4977L77.6826 39.6134H77.9697L83.1374 9.61236C83.2091 9.68414 91.6065 9.68414 91.6065 9.68414Z" fill="white"/>
<path d="M145.723 41.1925C147.661 41.1925 149.455 41.7666 150.891 42.8432C152.039 43.6327 152.829 44.6376 153.547 45.4988C154.121 46.1448 154.695 46.9343 155.341 47.4367C155.7 47.7238 156.13 47.9391 156.705 47.9391C157.279 47.9391 157.638 47.7238 158.068 47.4367C158.642 46.9343 159.288 46.2883 159.863 45.4988C160.652 44.6376 161.37 43.561 162.518 42.8432C163.954 41.7666 165.82 41.1925 167.686 41.1925C169.552 41.1925 171.418 41.7666 172.853 42.8432C174.002 43.6327 174.791 44.6376 175.509 45.4988C176.083 46.1448 176.657 46.9343 177.303 47.4367C177.662 47.7238 178.093 47.9391 178.667 47.9391C179.241 47.9391 179.6 47.7238 180.031 47.4367C180.605 46.9343 181.251 46.2883 181.825 45.4988C182.615 44.6376 183.332 43.561 184.481 42.8432C185.916 41.7666 187.782 41.1925 189.648 41.1925C191.514 41.1925 193.38 41.7666 194.816 42.8432C195.964 43.6327 196.754 44.6376 197.471 45.4988C198.046 46.1448 198.62 46.9343 199.266 47.4367C199.625 47.7238 200.055 47.9391 200.629 47.9391C201.204 47.9391 201.563 47.7238 201.993 47.4367C202.567 46.9343 203.213 46.2883 203.787 45.4988C204.577 44.6376 205.295 43.561 206.443 42.8432C207.591 41.982 208.812 41.4795 210.319 41.336V45.8577C209.745 46.3601 209.099 47.006 208.524 47.7955C207.735 48.6568 207.017 49.7334 205.869 50.4511C204.433 51.5277 202.567 52.1019 200.701 52.1019C198.763 52.1019 196.969 51.5277 195.534 50.4511C194.385 49.6616 193.596 48.6568 192.878 47.7955C192.304 47.1496 191.73 46.3601 191.084 45.8577C190.725 45.5706 190.294 45.3553 189.72 45.3553C189.146 45.3553 188.787 45.5706 188.356 45.8577C187.782 46.3601 187.136 47.006 186.562 47.7955C185.773 48.6568 185.055 49.7334 183.906 50.4511C182.471 51.5277 180.605 52.1019 178.739 52.1019C176.873 52.1019 175.007 51.5277 173.571 50.4511C172.423 49.6616 171.633 48.6568 170.916 47.7955C170.341 47.1496 169.767 46.3601 169.121 45.8577C168.762 45.5706 168.332 45.3553 167.758 45.3553C167.183 45.3553 166.825 45.5706 166.394 45.8577C165.82 46.3601 165.174 47.006 164.6 47.7955C163.81 48.6568 163.092 49.7334 161.944 50.4511C160.508 51.5277 158.642 52.1019 156.776 52.1019C154.91 52.1019 153.044 51.5277 151.609 50.4511C150.46 49.6616 149.671 48.6568 148.953 47.7955C148.379 47.1496 147.805 46.3601 147.159 45.8577C146.8 45.5706 146.369 45.3553 145.795 45.3553C145.221 45.3553 144.862 45.5706 144.431 45.8577C143.857 46.3601 143.211 47.006 142.637 47.7955C141.848 48.6568 141.13 49.7334 139.981 50.4511C138.546 51.5277 136.68 52.1019 134.814 52.1019C132.948 52.1019 131.082 51.5277 129.646 50.4511C128.498 49.6616 127.708 48.6568 126.991 47.7955C126.416 47.1496 125.842 46.3601 125.196 45.8577V41.336C126.632 41.5513 127.852 41.982 129.072 42.8432C130.22 43.6327 131.01 44.6376 131.728 45.4988C132.302 46.1448 132.876 46.9343 133.522 47.4367C133.881 47.7238 134.311 47.9391 134.886 47.9391C135.46 47.9391 135.819 47.7238 136.249 47.4367C136.823 46.9343 137.469 46.2883 138.044 45.4988C138.833 44.6376 139.551 43.561 140.699 42.8432C142.063 41.7666 143.785 41.1925 145.723 41.1925Z" fill="white"/>
</g>
<defs>
<filter id="filter0_d_29_766" x="0.670313" y="0.56875" width="219.337" height="60.4328" filterUnits="userSpaceOnUse" color-interpolation-filters="sRGB">
<feFlood flood-opacity="0" result="BackgroundImageFix"/>
<feColorMatrix in="SourceAlpha" type="matrix" values="0 0 0 0 0 0 0 0 0 0 0 0 0 0 0 0 0 0 127 0" result="hardAlpha"/>
<feOffset/>
<feGaussianBlur stdDeviation="4.45"/>
<feComposite in2="hardAlpha" operator="out"/>
<feColorMatrix type="matrix" values="0 0 0 0 1 0 0 0 0 1 0 0 0 0 1 0 0 0 0.3 0"/>
<feBlend mode="normal" in2="BackgroundImageFix" result="effect1_dropShadow_29_766"/>
<feBlend mode="normal" in="SourceGraphic" in2="effect1_dropShadow_29_766" result="shape"/>
</filter>
</defs>
</svg>
