<svg width="265" height="46" viewBox="0 0 265 46" fill="none" xmlns="http://www.w3.org/2000/svg">
<path d="M42.2737 34.0749V28.3898L54.046 16.0749V15.601H42.4679V9.91692H62.5872V15.601L50.8149 27.9169V28.3898H63.0487V34.0749H42.2737Z" fill="white"/>
<path d="M77.909 34.7782C75.5704 34.7782 73.4318 34.2096 71.4922 33.0724C69.5535 31.9361 68.0147 30.3889 66.8758 28.4307C65.7671 26.4725 65.2138 24.3257 65.2138 21.9884C65.2138 19.6521 65.7671 17.5044 66.8758 15.5462C68.0147 13.589 69.5535 12.0417 71.4922 10.9045C73.4318 9.76732 75.5704 9.19969 77.909 9.19969C80.3101 9.19969 82.4496 9.76732 84.3267 10.9045C86.2351 12.0417 87.7123 13.589 88.7584 15.5462C89.8358 17.5044 90.374 19.6521 90.374 21.9884V23.41H71.9082C72.0617 24.4205 72.4161 25.3672 72.9694 26.252C73.5541 27.1049 74.277 27.7992 75.1393 28.3359C76.0016 28.8417 76.9245 29.0941 77.909 29.0941C79.264 29.0941 80.3868 28.8252 81.2794 28.2885C82.2033 27.7199 82.8495 27.0411 83.219 26.252H90.1437C89.4359 28.6202 88.0506 30.6413 85.9887 32.3152C83.9259 33.9572 81.233 34.7782 77.909 34.7782ZM83.4493 19.3833C83.2958 18.5623 82.9566 17.8206 82.4335 17.1572C81.9417 16.462 81.2946 15.9098 80.4948 15.4988C79.7254 15.0888 78.8641 14.8838 77.909 14.8838C76.9548 14.8838 76.0783 15.0888 75.2776 15.4988C74.4779 15.9098 73.8156 16.462 73.2925 17.1572C72.7695 17.8206 72.3848 18.5623 72.1384 19.3833H83.4493Z" fill="white"/>
<path d="M94.1366 34.0685V9.9115H100.6V13.4634H100.83C101.292 12.3271 102.031 11.3794 103.046 10.6213C104.062 9.83222 105.324 9.43766 106.832 9.43766H109.602V15.8325H106.139C105.001 15.8325 104.016 16.053 103.185 16.4949C102.354 16.9369 101.708 17.5693 101.246 18.3903C100.815 19.2113 100.6 20.1744 100.6 21.2797V34.0685H94.1366Z" fill="white"/>
<path d="M124.244 34.7782C121.813 34.7782 119.612 34.2096 117.643 33.0724C115.673 31.9361 114.118 30.3889 112.98 28.4307C111.871 26.4725 111.318 24.3257 111.318 21.9884C111.318 19.6521 111.871 17.5044 112.98 15.5462C114.118 13.589 115.673 12.0417 117.643 10.9045C119.612 9.76732 121.813 9.19969 124.244 9.19969C126.675 9.19969 128.877 9.76732 130.846 10.9045C132.816 12.0417 134.355 13.589 135.463 15.5462C136.601 17.5044 137.171 19.6521 137.171 21.9884C137.171 24.3257 136.601 26.4725 135.463 28.4307C134.355 30.3889 132.816 31.9361 130.846 33.0724C128.877 34.2096 126.675 34.7782 124.244 34.7782ZM124.244 29.0941C125.383 29.0941 126.429 28.7943 127.383 28.1938C128.338 27.5942 129.092 26.7568 129.646 25.6834C130.199 24.61 130.477 23.378 130.477 21.9884C130.477 20.5988 130.199 19.3678 129.646 18.2935C129.092 17.2201 128.338 16.3836 127.383 15.7831C126.429 15.1836 125.383 14.8838 124.244 14.8838C123.105 14.8838 122.059 15.1836 121.105 15.7831C120.151 16.3836 119.396 17.2201 118.843 18.2935C118.289 19.3678 118.012 20.5988 118.012 21.9884C118.012 23.378 118.289 24.61 118.843 25.6834C119.396 26.7568 120.151 27.5942 121.105 28.1938C122.059 28.7943 123.105 29.0941 124.244 29.0941Z" fill="white"/>
<path d="M150.894 34.7782C148.616 34.7782 146.661 34.3836 145.03 33.5936C143.399 32.7726 142.09 31.7311 141.106 30.4672C140.152 29.1734 139.49 27.7673 139.121 26.252H145.815C146.153 27.1049 146.738 27.8311 147.569 28.4307C148.431 29.0312 149.539 29.331 150.894 29.331C152.309 29.331 153.309 29.125 153.894 28.715C154.51 28.304 154.818 27.7199 154.818 26.9628C154.818 26.4889 154.603 26.1099 154.171 25.8256C153.771 25.5093 153.248 25.2724 152.601 25.1148C151.986 24.9253 151.109 24.7048 149.97 24.4514C147.938 24.0095 146.292 23.5521 145.03 23.0783C143.768 22.6044 142.66 21.8463 141.706 20.8048C140.752 19.7624 140.275 18.3409 140.275 16.5413C140.275 15.2464 140.659 14.0463 141.429 12.9411C142.198 11.8048 143.337 10.9045 144.846 10.2412C146.353 9.54684 148.138 9.19969 150.201 9.19969C153.464 9.19969 156.002 9.95686 157.819 11.4731C159.665 12.9884 160.819 14.8364 161.281 17.0151H154.818C154.571 16.3517 154.063 15.7995 153.294 15.3567C152.525 14.8838 151.494 14.6469 150.201 14.6469C149.462 14.6469 148.847 14.7416 148.354 14.9312C147.892 15.0888 147.539 15.3102 147.292 15.5936C147.077 15.8779 146.969 16.1941 146.969 16.5413C146.969 17.0151 147.169 17.4096 147.569 17.7259C148 18.0102 148.523 18.2471 149.139 18.4356C149.785 18.5942 150.678 18.7992 151.817 19.0516C153.847 19.4935 155.494 19.9519 156.756 20.4257C158.018 20.8996 159.126 21.6568 160.081 22.6992C161.035 23.7416 161.512 25.1622 161.512 26.9628C161.512 28.3514 161.096 29.6462 160.265 30.8463C159.434 32.0144 158.218 32.9621 156.618 33.6883C155.018 34.4146 153.109 34.7782 150.894 34.7782Z" fill="white"/>
<path d="M166.228 34.0875V15.6136H163.226V9.92949H166.228V4.71922H172.691V9.92949H179.385V15.6136H172.691V28.4033H179.616V34.0875H166.228Z" fill="white"/>
<path d="M192.839 34.7782C190.838 34.7782 189.007 34.257 187.345 33.2145C185.713 32.1411 184.406 30.6413 183.42 28.715C182.466 26.7568 181.989 24.5152 181.989 21.9884C181.989 19.4626 182.466 17.2365 183.42 15.3102C184.406 13.352 185.713 11.8522 187.345 10.8098C189.007 9.73637 190.838 9.19969 192.839 9.19969C193.978 9.19969 195.024 9.38921 195.978 9.76731C196.932 10.1154 197.763 10.5728 198.471 11.1414C199.179 11.7101 199.764 12.326 200.225 12.9884H200.456V9.90947H206.919V34.0674H200.456V30.9884H200.225C199.764 31.6518 199.179 32.2678 198.471 32.8364C197.763 33.404 196.932 33.8624 195.978 34.2096C195.024 34.5886 193.978 34.7782 192.839 34.7782ZM194.454 29.0941C195.625 29.0941 196.656 28.8098 197.548 28.2412C198.471 27.6726 199.179 26.8516 199.672 25.7782C200.195 24.7048 200.456 23.4409 200.456 21.9884C200.456 20.536 200.195 19.2731 199.672 18.1997C199.179 17.1253 198.471 16.3043 197.548 15.7357C196.656 15.1681 195.625 14.8838 194.454 14.8838C193.377 14.8838 192.393 15.1681 191.5 15.7357C190.639 16.3043 189.945 17.1253 189.422 18.1997C188.93 19.2731 188.684 20.536 188.684 21.9884C188.684 23.4409 188.93 24.7048 189.422 25.7782C189.945 26.8516 190.639 27.6726 191.5 28.2412C192.393 28.8098 193.377 29.0941 194.454 29.0941Z" fill="white"/>
<path d="M214.162 43.0674V37.3833H229.166V30.4672H228.936C228.474 31.1306 227.89 31.7621 227.181 32.3626C226.473 32.9312 225.642 33.4041 224.688 33.7831C223.734 34.1303 222.688 34.3043 221.549 34.3043C219.548 34.3043 217.717 33.7831 216.055 32.7416C214.424 31.6673 213.116 30.1829 212.13 28.2885C211.177 26.3942 210.699 24.2145 210.699 21.7515C210.699 19.2885 211.177 17.1099 212.13 15.2155C213.116 13.3201 214.424 11.8522 216.055 10.8098C217.717 9.73637 219.548 9.19969 221.549 9.19969C222.688 9.19969 223.734 9.38921 224.688 9.76731C225.642 10.1154 226.473 10.5883 227.181 11.1888C227.89 11.7574 228.474 12.3734 228.936 13.0358H229.166V9.90947H235.629V43.0674H214.162ZM223.395 28.6202C224.473 28.6202 225.442 28.3514 226.304 27.8147C227.196 27.2461 227.89 26.4415 228.381 25.3991C228.905 24.3567 229.166 23.1411 229.166 21.7515C229.166 20.3619 228.905 19.1464 228.381 18.1049C227.89 17.0625 227.196 16.2734 226.304 15.7357C225.442 15.1681 224.473 14.8838 223.395 14.8838C222.226 14.8838 221.179 15.1681 220.256 15.7357C219.364 16.2734 218.656 17.0625 218.133 18.1049C217.64 19.1464 217.394 20.3619 217.394 21.7515C217.394 23.1411 217.64 24.3567 218.133 25.3991C218.656 26.4415 219.364 27.2461 220.256 27.8147C221.179 28.3514 222.226 28.6202 223.395 28.6202Z" fill="white"/>
<path d="M251.874 34.7782C249.535 34.7782 247.397 34.2096 245.457 33.0724C243.518 31.9361 241.98 30.3889 240.841 28.4307C239.733 26.4725 239.179 24.3257 239.179 21.9884C239.179 19.6521 239.733 17.5044 240.841 15.5462C241.98 13.589 243.518 12.0417 245.457 10.9045C247.397 9.76732 249.535 9.19969 251.874 9.19969C254.275 9.19969 256.415 9.76732 258.292 10.9045C260.2 12.0417 261.677 13.589 262.723 15.5462C263.801 17.5044 264.34 19.6521 264.34 21.9884V23.41H245.873C246.027 24.4205 246.381 25.3672 246.934 26.252C247.519 27.1049 248.243 27.7992 249.104 28.3359C249.966 28.8417 250.889 29.0941 251.874 29.0941C253.229 29.0941 254.353 28.8252 255.244 28.2885C256.168 27.7199 256.814 27.0411 257.184 26.252H264.109C263.401 28.6202 262.016 30.6413 259.954 32.3152C257.892 33.9572 255.198 34.7782 251.874 34.7782ZM257.414 19.3833C257.261 18.5623 256.922 17.8206 256.398 17.1572C255.907 16.462 255.26 15.9098 254.46 15.4988C253.69 15.0888 252.829 14.8838 251.874 14.8838C250.921 14.8838 250.043 15.0888 249.243 15.4988C248.443 15.9098 247.781 16.462 247.257 17.1572C246.734 17.8206 246.35 18.5623 246.103 19.3833H257.414Z" fill="white"/>
<path fill-rule="evenodd" clip-rule="evenodd" d="M25.6839 45.0234V37.795H10.0986L25.682 10.7312V37.795H32.6569V7.01784L25.6839 7.01881V0.0234375H7.31569V7.01881H0.339844V37.795H7.31569V45.0234H25.6839ZM7.31569 35.6347V7.01881H23.7916L7.31569 35.6347ZM25.6754 7.01881L25.682 7.02172V7.01784L25.6754 7.01881Z" fill="white"/>
</svg>
