<svg width="162" height="43" viewBox="0 0 162 43" fill="none" xmlns="http://www.w3.org/2000/svg">
<path d="M80.9349 9.17708V33.8716C80.9349 34.0597 80.7938 34.2479 80.5586 34.2479H77.9716C76.7957 34.2479 75.6668 33.6364 75.0083 32.6486L63.343 14.6334L63.7193 23.6175V33.9186C63.7193 34.1068 63.5782 34.2949 63.343 34.2949H59.9564C59.7682 34.2949 59.5801 34.1538 59.5801 33.9186V9.17708C59.5801 8.98893 59.7212 8.80078 59.9564 8.80078H62.4964C63.6723 8.80078 64.8012 9.41226 65.4597 10.4L77.1249 28.3682L76.7486 19.3841V9.17708C76.7486 8.98893 76.8897 8.80078 77.1249 8.80078H80.5116C80.7938 8.80078 80.9349 8.94189 80.9349 9.17708Z" fill="white"/>
<path d="M115.65 34.2008H112.075C111.84 34.2008 111.651 33.9656 111.745 33.7305L121.247 9.13004C121.341 8.94189 121.529 8.80078 121.717 8.80078H126.233C126.468 8.80078 126.656 8.94189 126.703 9.13004L136.252 33.7305C136.346 33.9656 136.158 34.2008 135.923 34.2008H132.348C132.207 34.2008 132.065 34.1068 132.018 33.9656L124.351 13.7397C124.257 13.4575 123.787 13.4575 123.693 13.7397L116.026 33.9656C115.932 34.1068 115.791 34.2008 115.65 34.2008Z" fill="white"/>
<path d="M161.18 33.6364L154.03 24.5112C158.075 23.7586 160.427 21.0304 160.427 16.8441C160.427 12.0463 157.323 8.80078 151.772 8.80078H141.801C141.518 8.80078 141.283 9.03597 141.283 9.31819C141.283 11.1997 142.788 12.7049 144.67 12.7049H151.396C154.736 12.7049 156.335 14.3982 156.335 16.8912C156.335 19.3841 154.783 21.0775 151.396 21.0775H141.895C141.612 21.0775 141.377 21.3127 141.377 21.5949V33.8245C141.377 34.0127 141.518 34.2008 141.754 34.2008H145.14C145.328 34.2008 145.517 34.0597 145.517 33.8245V24.7464H149.421L155.63 32.8368C156.288 33.7305 157.323 34.2008 158.452 34.2008H161.039C161.227 34.2008 161.368 33.8716 161.18 33.6364Z" fill="white"/>
<path d="M104.925 8.80078H89.1676C88.8854 8.80078 88.6973 8.98893 88.6973 9.27115C88.6973 11.1526 90.2495 12.7049 92.131 12.7049H104.925C105.113 12.7049 105.301 12.5638 105.301 12.3286V9.13004C105.254 8.94189 105.113 8.80078 104.925 8.80078ZM104.925 30.2967H93.1658C92.9776 30.2967 92.7895 30.1556 92.7895 29.9205V23.5704C92.7895 23.3823 92.9306 23.1941 93.1658 23.1941H104.031C104.22 23.1941 104.408 23.053 104.408 22.8178V19.6193C104.408 19.4312 104.267 19.243 104.031 19.243H89.2147C88.9325 19.243 88.6973 19.4782 88.6973 19.7604V33.6364C88.6973 33.9186 88.9325 34.1538 89.2147 34.1538H104.925C105.113 34.1538 105.301 34.0127 105.301 33.7775V30.579C105.254 30.4379 105.113 30.2967 104.925 30.2967Z" fill="white"/>
<path d="M34.369 2.49769L25.526 15.6211C24.9145 16.5148 26.0905 17.5966 26.9371 16.844L35.639 9.27104C35.8742 9.08289 36.2035 9.224 36.2035 9.55326V33.2129C36.2035 33.5422 35.7801 33.6833 35.592 33.4481L9.25119 1.93325C8.40452 0.898431 7.18155 0.333984 5.81747 0.333984H4.87673C2.4308 0.333984 0.408203 2.35658 0.408203 4.84955V38.1518C0.408203 40.6448 2.4308 42.6674 4.92377 42.6674C6.47599 42.6674 7.93415 41.8678 8.78081 40.5037L17.6238 27.3803C18.2353 26.4866 17.0593 25.4048 16.2127 26.1574L7.51081 33.6833C7.27562 33.8715 6.94636 33.7303 6.94636 33.4011V9.78845C6.94636 9.45919 7.3697 9.31808 7.55785 9.55326L33.8986 41.0681C34.7453 42.103 36.0153 42.6674 37.3324 42.6674H38.2731C40.7661 42.6674 42.7887 40.6448 42.7887 38.1518V4.84955C42.7416 2.35658 40.719 0.333984 38.2261 0.333984C36.6738 0.333984 35.2157 1.13361 34.369 2.49769Z" fill="white"/>
</svg>
