<svg width="231" height="71" viewBox="0 0 231 71" fill="none" xmlns="http://www.w3.org/2000/svg">
<path d="M83.7687 48.2333V48.6933C81.5887 48.6933 79.3287 48.0733 77.0587 46.8333C75.1087 45.8233 73.6287 44.5833 72.6187 43.1933C70.8287 42.7333 69.3387 41.5633 68.1787 39.8533C67.0087 38.0733 66.3887 36.2133 66.3887 34.2733C66.3887 31.7133 67.2487 29.6133 68.8887 27.8333C70.5287 26.0533 72.6387 25.1933 75.1287 25.1933C77.6187 25.1933 79.6587 26.0533 81.3687 27.8333C83.0887 29.6133 83.8687 31.7033 83.8687 34.2733C83.8687 36.3633 83.2487 38.2333 81.9987 40.0133C80.7487 41.7933 79.1087 42.8833 77.2387 43.2633C77.6287 44.5033 78.4087 45.5833 79.6587 46.6033C80.9887 47.6933 82.3887 48.1533 83.7987 48.1533V48.2333H83.7687ZM75.1087 42.7333C76.8987 42.5033 78.3087 41.6433 79.3187 40.1733C80.3287 38.6933 80.7987 36.7633 80.7987 34.2833C80.7987 31.8033 80.3387 29.8633 79.3187 28.3933C78.3087 26.8433 76.8987 26.0733 75.1087 26.0733C73.3187 26.0733 71.9087 26.8433 70.8987 28.3233C69.8887 29.7933 69.4187 31.8133 69.4187 34.2933C69.4187 36.7733 69.8787 38.7933 70.8187 40.3433C71.8287 41.9633 73.2387 42.7433 75.1087 42.7433V42.7333ZM87.2687 36.9933V28.4633C87.2687 27.5333 87.1087 26.9133 86.7187 26.6033C86.3287 26.2933 85.7087 26.1433 84.7687 26.1433V25.6833H92.4987V26.1433C91.5587 26.1433 90.9387 26.3033 90.5487 26.6033C90.1587 26.9033 89.9987 27.5333 89.9987 28.4633V37.0633C89.9987 38.6133 90.4587 39.8533 91.3987 40.9333C92.3387 42.0233 93.5087 42.4833 94.9887 42.4833C96.4687 42.4833 97.7187 41.9433 98.5787 40.9333C99.5187 39.9233 99.9087 38.6133 99.9087 37.0633V28.4633C99.9087 27.5333 99.7487 26.9133 99.3587 26.6033C98.9687 26.2933 98.3487 26.1433 97.4087 26.1433V25.6833H103.568V26.1433C102.628 26.1433 102.008 26.3033 101.618 26.6033C101.228 26.9033 101.068 27.5333 101.068 28.4633V37.0633C101.068 39.0033 100.518 40.5533 99.4287 41.7233C98.1787 43.0433 96.3887 43.6633 94.0487 43.6633C91.8687 43.6633 90.2287 43.0433 88.9787 41.7233C87.8087 40.4833 87.2587 38.9333 87.2587 36.9933H87.2687ZM107.008 40.4033V28.3833C107.008 27.4533 106.848 26.8333 106.458 26.5233C106.068 26.2133 105.448 26.0633 104.508 26.0633V25.6033H112.238V26.0633C111.298 26.0633 110.678 26.2233 110.288 26.5233C109.898 26.8333 109.738 27.4533 109.738 28.3833V40.3933C109.738 41.3233 109.898 41.9433 110.288 42.2533C110.678 42.5633 111.298 42.7133 112.238 42.7133V43.1733H104.508V42.7133C105.448 42.7133 106.068 42.5533 106.458 42.2533C106.848 41.9533 107.008 41.3233 107.008 40.4033ZM128.858 25.2033L129.318 31.1733H128.698C128.538 29.7833 127.918 28.6133 126.908 27.6033C125.898 26.5933 124.728 26.1333 123.398 26.1333C121.448 26.1333 119.888 26.9933 118.638 28.6133C118.088 29.3833 117.628 30.2433 117.308 31.3233C116.988 32.4133 116.848 33.4933 116.848 34.7333C116.848 37.1433 117.548 39.0733 118.878 40.5533C120.128 41.9433 121.848 42.6433 123.798 42.6433C124.888 42.6433 125.908 42.2533 126.918 41.5533C127.858 40.9333 128.638 40.0033 129.338 38.9133L129.798 39.1433C129.088 40.4633 128.158 41.4633 126.988 42.3233C125.738 43.2533 124.338 43.7133 122.848 43.7133C120.198 43.7133 118.018 42.8533 116.298 41.0733C114.578 39.3633 113.648 37.2033 113.648 34.7133C113.648 32.2233 114.588 29.9133 116.378 28.0433C118.248 26.1833 120.358 25.2533 122.928 25.2533C123.938 25.2533 124.798 25.4133 125.508 25.6433C126.128 25.9533 126.838 26.1833 127.458 26.5033C127.618 26.5033 127.848 26.3433 128.008 26.1933C128.168 25.9633 128.328 25.6533 128.398 25.3333H128.858V25.1933V25.2033ZM133.608 28.3833C133.608 27.4533 133.448 26.8333 133.058 26.5233C132.668 26.2133 132.048 26.0633 131.108 26.0633V25.6033H138.838V26.0633C137.898 26.0633 137.278 26.2233 136.888 26.5233C136.498 26.8333 136.338 27.4533 136.338 28.3833V33.3433L141.948 28.3033C142.258 27.9933 142.498 27.7633 142.728 27.5333C143.048 27.2233 143.188 26.9133 143.188 26.6733C143.188 26.4333 143.028 26.2833 142.798 26.2133C142.478 26.1433 142.088 26.0533 141.548 26.0533V25.5933H148.098V26.0533C147.318 26.0533 146.618 26.2133 145.988 26.5133C145.368 26.8233 144.658 27.3733 143.808 28.1433L138.588 33.0333L145.768 40.1733C146.938 41.3333 147.798 42.0333 148.348 42.3433C148.898 42.6433 149.598 42.8033 150.528 42.8033V43.2633H142.258V42.8033C142.718 42.8033 143.038 42.7333 143.198 42.5733C143.358 42.4133 143.518 42.1833 143.518 41.8733C143.518 41.5633 143.198 41.1033 142.508 40.4033L136.418 34.3533V40.4733C136.418 41.4033 136.578 42.0233 136.968 42.3333C137.358 42.6433 137.978 42.7933 138.918 42.7933V43.2533H131.188V42.7933C132.128 42.7933 132.748 42.6333 133.138 42.3333C133.528 42.0233 133.688 41.4033 133.688 40.4733L133.608 40.4133V28.3833ZM162.248 31.3333H161.788C161.628 29.7033 161.168 28.4633 160.298 27.5333C159.448 26.6033 158.348 26.2133 156.938 26.2133C155.998 26.2133 155.218 26.5233 154.678 27.0733C154.058 27.6933 153.828 28.3133 153.828 29.0133C153.828 30.0233 154.678 31.0333 156.328 32.0333C157.888 32.9633 159.448 33.8133 161.008 34.6733C162.728 35.8333 163.508 37.1533 163.508 38.5433C163.508 40.0233 162.958 41.1833 161.948 42.1133C160.938 43.0433 159.448 43.5033 157.658 43.5033C157.108 43.5033 156.648 43.4333 156.178 43.3433C155.718 43.2733 155.328 43.1133 155.008 43.0333C154.688 42.8733 154.388 42.8033 154.068 42.6433C153.748 42.5733 153.518 42.4833 153.288 42.4833C153.058 42.4833 152.898 42.5533 152.738 42.7133C152.578 42.8733 152.508 43.1033 152.418 43.4133H151.958V37.4433H152.418C152.418 38.9933 152.968 40.1533 154.138 41.0833C155.148 41.9433 156.398 42.4033 157.888 42.4033C158.828 42.4033 159.608 42.1733 160.228 41.6333C160.928 41.0933 161.238 40.3933 161.238 39.5433C161.238 38.3833 160.458 37.2933 158.818 36.2933C157.258 35.4333 155.778 34.5833 154.288 33.7333C152.648 32.5733 151.868 31.2533 151.868 29.7733C151.868 28.4533 152.328 27.2933 153.348 26.4333C154.358 25.5033 155.608 25.1133 157.098 25.1133C157.558 25.1133 157.958 25.1833 158.348 25.2733C158.418 25.2733 158.738 25.3433 159.358 25.5833C159.588 25.6533 159.828 25.7433 160.208 25.8933C160.598 26.0533 160.828 26.1233 161.068 26.1233C161.308 26.1233 161.528 26.0533 161.688 25.8133C161.918 25.5833 162.008 25.3533 162.008 25.1933H162.468V31.3133H162.248V31.3333ZM163.968 25.5933H170.518V26.0533C169.898 26.0533 169.508 26.1233 169.188 26.3633C168.878 26.5233 168.798 26.7533 168.798 27.0633C168.798 27.2933 168.798 27.5233 168.878 27.6833C168.948 27.8433 169.038 28.2233 169.268 28.7733L172.928 38.9333L175.898 30.7133L175.188 28.7733C174.868 27.7633 174.478 27.0633 174.248 26.7533C173.858 26.2933 173.238 26.0533 172.458 26.0533V25.5933H179.328V26.0533C178.708 26.0533 178.318 26.1233 177.998 26.3633C177.678 26.5233 177.538 26.7533 177.538 27.0633C177.538 27.5233 177.698 28.0733 177.928 28.8433L181.438 39.0033L185.028 28.7733C185.188 28.2333 185.348 27.7633 185.348 27.3833C185.348 26.5233 184.728 26.1433 183.478 26.1433V25.6833H188.698V26.1433C187.848 26.1433 187.298 26.5333 186.908 27.2333C186.748 27.5433 186.518 28.0933 186.288 28.8633L181.218 43.6733H180.598L176.548 32.5033L172.568 43.6733H171.948L166.638 28.9433C166.248 27.8533 165.928 27.1633 165.698 26.8533C165.308 26.3933 164.848 26.1533 164.138 26.1533V25.6933L163.978 25.6033L163.968 25.5933ZM194.228 25.2033H194.848L201.328 40.3933C201.718 41.3233 202.108 41.8733 202.428 42.1733C202.818 42.5633 203.438 42.7133 204.298 42.7133V43.1733H197.038V42.7133C198.288 42.7133 198.988 42.3233 198.988 41.5533C198.988 41.2433 198.918 40.8533 198.668 40.3933L197.338 37.2933H190.468L189.068 40.3933C188.838 40.8533 188.748 41.2533 188.748 41.5533C188.748 41.9433 188.908 42.1733 189.208 42.4133C189.528 42.6433 190.068 42.7233 190.768 42.7233V43.1833H185.158V42.7233C185.778 42.7233 186.258 42.4933 186.638 42.1033C186.958 41.7933 187.348 41.1733 187.648 40.3933L194.208 25.1933L194.228 25.2033ZM193.838 29.2433L190.798 36.2933H196.798L193.838 29.2433ZM207.498 40.4133V28.3933C207.498 27.4633 207.338 26.8433 206.948 26.5333C206.558 26.2233 205.938 26.0733 204.998 26.0733V25.6133H212.568C214.288 25.6133 215.768 26.0733 216.858 26.9333C218.028 27.7933 218.578 29.0233 218.578 30.5733C218.578 32.1233 218.028 33.2833 216.938 34.1433C215.928 34.9133 214.758 35.3033 213.268 35.3033C212.648 35.3033 212.018 35.3033 211.548 35.2333C210.998 35.1633 210.538 35.0733 210.148 35.0033V40.3533C210.148 41.2833 210.308 41.9033 210.698 42.2133C211.088 42.5233 211.708 42.6733 212.648 42.6733V43.1333H204.918V42.6733C205.858 42.6733 206.478 42.5133 206.868 42.2133C207.258 41.9033 207.418 41.2833 207.418 40.3533L207.488 40.4233L207.498 40.4133ZM210.228 26.8433V34.0533C210.688 34.2133 211.088 34.2833 211.398 34.3633C211.708 34.4433 212.018 34.4333 212.258 34.4333C213.348 34.4333 214.208 34.1233 214.838 33.4233C215.458 32.7233 215.688 31.8733 215.688 30.7833C215.688 29.6233 215.368 28.6133 214.678 27.7633C213.968 26.9933 213.118 26.5233 212.098 26.5233C211.708 26.5233 211.388 26.5233 211.158 26.5933C210.928 26.5933 210.608 26.6733 210.218 26.8333L210.228 26.8433Z" fill="white"/>
<path d="M58.4192 29.7834C55.9992 18.3834 45.5492 10.3934 33.7592 11.0934H33.8292C23.9292 11.6434 15.4292 18.1534 12.4692 27.5334C10.8292 32.5634 10.9892 38.1534 12.8592 43.1134C15.5092 50.0234 21.2792 55.3634 28.3792 57.4634C33.5292 59.0134 39.2992 58.7034 44.2892 56.6034C51.6192 53.5834 56.9292 47.0734 58.4892 39.3134C59.1192 36.1434 59.1192 32.8734 58.4192 29.7834ZM37.1892 40.5534C36.4092 41.8734 35.2392 42.8734 33.9092 43.6534C32.5092 44.4234 31.0192 44.8934 29.4692 45.0434C26.6592 45.3534 24.0892 44.7334 21.6692 43.2634C19.7192 42.0234 18.1592 40.3134 16.9092 38.3734C16.8292 38.2334 16.7292 38.0234 16.6192 37.7834C15.5492 35.3234 15.2792 32.5734 15.8792 29.9634C15.8792 29.9534 15.8792 29.9334 15.8792 29.9234C17.5292 23.8734 21.8992 18.9934 27.7492 16.6634C29.5392 15.9634 31.3392 15.5034 33.2092 15.3434C36.1792 15.1134 39.0592 15.4134 41.8692 16.4334C41.4092 17.2034 38.9792 19.3834 37.1092 20.6234C36.7892 19.1534 36.7192 19.3034 36.2492 18.3034C36.2492 18.4634 34.9992 20.0834 33.5192 21.0134C31.9592 21.9434 27.9792 22.6434 27.9792 24.8834L28.1392 25.0434C28.1392 26.0534 28.6892 26.4334 29.6992 26.6734C29.1992 26.8334 28.8392 26.7834 28.5692 26.6834C28.3692 26.6334 28.1792 26.5534 27.9892 26.4334C27.9892 26.3834 27.9492 26.3734 27.8992 26.3634C27.3492 26.9834 25.3192 28.7634 24.2392 28.2934C23.4592 28.1334 23.7792 26.9734 23.8492 26.5134C23.5292 26.5834 23.3892 26.8234 23.0692 26.9734C20.6492 28.6834 20.0992 31.3934 20.7292 34.2534C20.7992 34.4834 20.8892 34.4834 21.0492 34.3234C21.2792 34.0934 21.5992 33.8634 21.8292 33.7034C21.8992 33.7034 21.9892 33.7734 21.9892 33.8634C22.7692 34.8734 23.7792 35.4934 25.0292 35.8034C25.5792 35.9634 26.0392 35.9634 26.5892 36.0334C26.4292 35.8034 26.4292 35.7234 26.2692 35.4934C26.0392 35.0334 26.0392 34.5634 26.3392 34.2534C26.7292 33.8634 27.3492 33.7134 27.8992 33.5534C28.9892 33.2434 30.1592 33.2434 31.3292 33.3234C32.2692 33.3934 33.1992 33.6334 34.0592 33.8634C34.8392 34.0934 35.5392 34.3234 36.1692 34.7234L36.2192 34.7634C37.1992 35.7534 37.7292 36.8034 37.8092 38.1334C37.8092 38.9934 37.5792 39.8434 37.1892 40.5434V40.5534ZM33.2192 23.4234C32.9892 24.2834 32.4392 24.9034 31.7392 25.2834C31.2792 25.5134 30.7292 25.6734 30.1792 25.8234C30.0192 25.4334 30.1792 25.1234 30.4092 24.8134C30.6392 24.5034 31.0292 24.2734 31.4192 24.1134C32.0492 23.8734 32.5992 23.6434 33.2192 23.4134V23.4234ZM23.8592 30.4034C23.7892 30.0934 23.6292 30.0134 23.3092 30.0134C22.9892 30.0834 22.6892 30.2434 22.4492 30.4734C22.3792 30.5434 22.2892 30.6334 22.2192 30.6334C22.1492 30.5634 22.2192 30.4734 22.2192 30.4734C22.3792 30.0134 22.6792 29.7034 22.9992 29.4634C23.0692 29.3934 23.1592 29.3934 23.3192 29.3034C23.7792 29.2334 24.0192 29.3734 23.9392 29.8434V30.1534C24.0092 30.2234 23.8692 30.3134 23.8692 30.3834L23.8592 30.4034ZM54.3692 39.9634C54.3226 39.9634 54.2992 39.9401 54.2992 39.8934L54.1292 40.0234C54.0592 38.0834 53.5792 36.2234 52.7292 34.4434C52.1792 33.2834 51.4792 32.2734 50.6992 31.2634C49.9992 30.4034 49.1392 29.6334 48.1992 28.9434C48.2692 28.8734 48.3592 28.8734 48.5192 28.8734C49.7692 29.0334 51.0192 29.3334 52.1792 29.7334C52.4992 29.8034 52.7292 29.9634 53.0392 30.1234C53.1092 30.1934 53.1992 30.1934 53.3592 30.2834C53.3592 30.2834 53.3592 30.3534 53.4292 30.3534V30.2834C52.6492 29.2734 51.6392 28.3434 50.6192 27.5734C49.3692 26.5634 48.0392 25.7934 46.6392 25.0934C44.6892 24.1634 42.5892 23.5434 40.3992 23.2334C40.2392 23.2334 40.0092 23.2334 39.8492 23.1634C39.8492 23.0034 39.9192 23.0034 40.0092 22.9334C41.2592 21.8434 42.2692 20.6134 43.0492 19.1334C43.2792 18.6734 43.4392 18.2034 43.5992 17.7434C43.6692 17.5834 43.6692 17.4334 43.8292 17.3534C46.0892 18.4434 48.1192 19.9934 49.8392 21.7734C54.3692 26.7334 56.0792 33.5534 54.3692 39.9934V39.9634Z" fill="white"/>
</svg>
