<svg width="162" height="59" viewBox="0 0 162 59" fill="none" xmlns="http://www.w3.org/2000/svg">
<path d="M0.852748 23.8968C2.22918 18.4899 4.62504 13.6293 8.42314 9.36932C18.2302 -1.6334 37.8488 -3.23822 49.2818 6.11346C50.5507 7.15114 50.8733 7.84012 48.9807 8.43668C47.5956 8.87359 46.5246 9.81884 45.4105 10.6969C42.3222 13.1335 39.1177 13.1167 36.0594 10.6843C29.7665 5.68075 24.0715 5.93281 18.213 11.4573C16.828 12.7638 15.4516 14.083 13.9805 15.2929C12.9568 16.1373 13.0342 16.7549 13.8945 17.6791C16.2731 20.2418 16.2258 20.267 18.841 17.7968C20.2777 16.444 21.6799 15.045 23.2241 13.8141C26.1534 11.4825 29.3235 11.5959 32.1667 13.9906C37.6896 18.6454 43.3244 18.763 48.985 14.314C49.8883 13.604 50.8432 13.0159 51.9615 12.7134C54.4821 12.037 55.6263 12.4782 56.8866 14.7299C62.0052 23.859 62.2418 33.114 57.6436 42.5119C56.8952 44.0411 56.2328 44.3436 54.5811 43.4614C49.828 40.9197 45.1138 41.2348 40.6877 44.3436C36.7003 47.1458 33.9474 46.9945 30.4375 43.6882C25.8652 39.3863 19.2024 39.1804 14.3031 43.2093C12.6127 44.5999 10.9093 45.982 9.27481 47.4314C8.23819 48.3473 7.57147 48.2549 6.6983 47.1584C3.76047 43.4446 2.09154 39.193 0.848446 34.7441V31.8243C2.67653 30.2153 4.73258 29.2952 7.28328 29.6103C9.10276 29.8372 10.3803 30.8622 11.7051 31.9545C16.5742 35.9624 22.3897 36.1094 27.4094 32.425C28.6654 31.505 29.8654 30.5135 31.1515 29.6439C34.5668 27.3375 37.7928 27.4635 40.9586 30.0262C42.9889 31.6688 45.0148 33.3241 46.9332 35.0844C48.4215 36.4497 49.0925 35.1852 49.8065 34.3408C50.5292 33.4879 52.0605 32.6813 50.3657 31.3118C48.0043 29.4044 45.7891 27.3165 43.3459 25.5184C38.7736 22.1449 32.7947 22.1995 28.1879 25.4974C26.8072 26.4847 25.5082 27.5812 24.1145 28.5474C21.1466 30.606 17.7227 30.6018 15.0687 28.1777C10.8319 24.3127 6.13912 23.5733 0.839844 25.5646V23.8968H0.852748Z" fill="white"/>
<path d="M26.5914 58.518C21.8858 57.5517 17.3822 56.1233 13.3992 53.3674C12.0916 52.4642 11.7474 51.8256 13.1841 50.7501C14.7068 49.6074 16.0832 48.2883 17.5629 47.0867C20.5007 44.7089 24.2386 44.6459 26.8452 47.322C31.8692 52.481 39.1428 52.3087 43.7883 48.4101C45.9218 46.6204 48.537 46.2675 51.2253 47.3766C53.1868 48.1874 53.3029 48.6874 51.8404 50.1326C47.5004 54.4219 42.2054 56.9594 36.1835 58.1567C35.6974 58.2533 35.2243 58.3961 34.7425 58.5138H26.5914V58.518Z" fill="white"/>
<path d="M134.319 33.1932C130.611 33.2772 126.61 33.0966 122.61 33.4074C121.1 33.5251 120.847 34.0586 121.036 35.3568C121.625 39.4024 124.365 42.3138 128.555 43.196C133.192 44.1749 137.239 42.6331 139.506 39.0243C140.25 37.8396 144.625 37.054 145.713 37.9152C146.392 38.453 145.971 39.0621 145.777 39.6251C144.431 43.5657 141.794 46.4057 137.76 47.7374C130.843 50.0229 124.197 49.6027 118.924 44.2043C113.375 38.5244 112.893 31.6178 115.556 24.5599C119.212 14.8805 132.181 11.486 140.5 17.9011C145.038 21.4007 146.268 26.3118 146.276 31.6598C146.276 33.0041 145.36 33.2016 144.246 33.1974C141.029 33.1848 137.816 33.1932 134.31 33.1932H134.319ZM129.978 28.7904C132.331 28.7904 134.684 28.803 137.033 28.7904C139.321 28.7736 139.669 28.3157 139.063 26.1899C137.983 22.3879 134.177 19.9597 129.841 20.3042C125.35 20.6613 121.694 23.6903 121.186 27.4041C121.014 28.6602 121.746 28.7904 122.705 28.7904C125.127 28.7904 127.552 28.7904 129.974 28.7904H129.978Z" fill="white"/>
<path d="M85.6975 38.4028C87.1987 38.113 88.4805 38.5121 89.0096 40.558C89.3494 41.8772 90.5452 42.7426 91.913 43.1249C94.154 43.7509 96.4423 43.7551 98.6704 43.0871C100.64 42.4989 101.866 41.1378 101.862 39.1128C101.862 37.1341 100.559 35.9116 98.6661 35.4032C95.7068 34.6092 92.6786 34.0463 89.7537 33.1557C84.5147 31.555 82.1016 27.6018 83.1339 22.5772C83.6372 20.1364 84.9835 18.1871 87.1901 16.9393C92.2614 14.0784 97.4876 13.8641 102.735 16.4562C105.544 17.8468 106.994 20.2666 107.634 23.1948C107.91 24.4635 107.54 25.2407 106.052 25.2155C105.196 25.1987 104.335 25.1861 103.479 25.2323C102.185 25.3038 101.376 24.9761 101.023 23.5561C100.447 21.2245 98.5586 20.2456 96.2617 20.0104C93.9863 19.7793 91.8012 20.0188 90.2269 21.9051C88.5235 23.9468 89.2247 26.5767 91.8098 27.774C93.8873 28.7361 96.1843 29.0344 98.3823 29.6225C99.6899 29.9712 101.019 30.2611 102.292 30.7022C105.918 31.9625 108.172 34.3236 108.31 38.2264C108.447 42.1166 106.865 45.1414 103.269 46.9605C98.0553 49.5904 92.7303 49.7417 87.4052 47.2672C85.19 46.2379 83.663 44.5197 82.7339 42.3099C81.379 39.0876 81.8435 38.3986 85.6889 38.407L85.6975 38.4028Z" fill="white"/>
<path d="M154.308 31.7276C154.308 27.077 154.355 22.4305 154.282 17.7799C154.256 16.1793 154.828 15.5701 156.493 15.5281C160.971 15.4105 160.971 15.3558 160.971 19.7292C160.971 28.2617 160.975 36.7983 160.971 45.3308C160.971 48.1035 160.91 48.1456 158.127 48.1666C157.555 48.1666 156.983 48.1287 156.416 48.1666C154.854 48.28 154.269 47.6078 154.291 46.087C154.351 41.3019 154.312 36.5127 154.312 31.7234L154.308 31.7276Z" fill="white"/>
<path d="M161.84 4.23639C161.831 6.57221 159.87 8.48372 157.491 8.47532C155.259 8.46691 153.143 6.35795 153.143 4.13556C153.143 1.80394 155.07 0.00166559 157.564 0.0058667C160.025 0.0058667 161.844 1.81235 161.836 4.23639H161.84Z" fill="white"/>
</svg>
