<svg width="150" height="43" viewBox="0 0 150 43" fill="none" xmlns="http://www.w3.org/2000/svg">
<path d="M39.9178 42.2637H33.7227V12.2266H39.9178V42.2637Z" fill="white"/>
<path d="M62.3037 11.6367C65.7235 11.6367 68.5177 12.8318 70.6825 15.2211C72.8442 17.6108 73.9281 20.649 73.9281 24.3325V42.2605H67.7326V25.2729C67.7326 22.9609 66.9853 21.0492 65.4901 19.5412C63.9949 18.0328 62.148 17.2788 59.9457 17.2788C57.4664 17.2788 55.4417 18.0328 53.8688 19.5412C52.2959 21.0492 51.5077 22.9609 51.5077 25.2729V42.2605H45.3125V12.2264H51.5077V19.9849C52.333 17.3996 53.7004 15.361 55.61 13.8713C57.5162 12.3816 59.7494 11.6367 62.3068 11.6367H62.3037Z" fill="white"/>
<path d="M93.2433 11.6367C98.0806 11.6367 102.015 13.3624 105.042 16.8099C108.07 20.2609 109.31 24.4319 108.758 29.3318H83.8025C84.2356 31.762 85.3566 33.7324 87.1664 35.2408C88.9761 36.7488 91.1566 37.5032 93.7139 37.5032C95.6794 37.5032 97.439 37.0221 98.9935 36.063C100.548 35.1043 101.756 33.8006 102.622 32.1531L107.815 34.4464C106.478 36.9939 104.569 39.0299 102.093 40.5596C99.6164 42.0897 96.7633 42.8533 93.5364 42.8533C89.0136 42.8533 85.2166 41.3635 82.1485 38.3875C79.0803 35.4115 77.5449 31.7059 77.5449 27.2776C77.5449 22.8492 79.0493 19.1375 82.0582 16.1367C85.067 13.139 88.7924 11.6401 93.2403 11.6401L93.2433 11.6367ZM93.2433 16.9868C90.9603 16.9868 88.9857 17.6821 87.3129 19.0754C85.6401 20.466 84.5283 22.2782 83.98 24.5124H102.507C101.996 22.2782 100.903 20.466 99.2331 19.0754C97.5607 17.6852 95.5639 16.9868 93.2433 16.9868Z" fill="white"/>
<path d="M125.887 11.6367C129.506 11.6367 132.455 12.5771 134.735 14.458C137.016 16.3384 138.159 19.0445 138.159 22.5698V42.2636H131.963V34.2695C130.113 39.992 126.397 42.8533 120.812 42.8533C118.214 42.8533 116.053 42.0806 114.321 40.5318C112.589 38.9834 111.727 36.9569 111.727 34.4494C111.727 31.5104 112.767 29.304 114.854 27.836C116.938 26.3684 119.595 25.4558 122.818 25.1021L128.658 24.5124C130.861 24.3172 131.963 23.3364 131.963 21.5737C131.963 20.1244 131.403 18.9667 130.282 18.1071C129.16 17.2445 127.696 16.8134 125.887 16.8134C124.077 16.8134 122.472 17.2849 121.195 18.2253C119.919 19.1653 119.102 20.5373 118.747 22.3403L112.611 20.8693C113.162 18.0484 114.636 15.8047 117.037 14.1381C119.436 12.4746 122.385 11.6401 125.887 11.6401V11.6367ZM122.818 37.8539C125.376 37.8539 127.537 37.0004 129.307 35.2964C131.076 33.5929 131.96 31.6038 131.96 29.3288V27.6839C131.49 28.4692 130.347 28.9564 128.537 29.1519L122.815 29.8564C121.32 30.055 120.13 30.4926 119.246 31.1784C118.361 31.8641 117.919 32.7954 117.919 33.9714C117.919 35.1478 118.361 36.0878 119.246 36.7922C120.13 37.4967 121.32 37.8504 122.815 37.8504L122.818 37.8539Z" fill="white"/>
<path d="M29.4557 42.2637H0.839844V12.2266H7.38715V36.4447H29.4557V42.2637Z" fill="white"/>
<path d="M144.001 11.6373C147.226 11.6373 149.841 9.03218 149.841 5.81873C149.841 2.60513 147.226 0 144.001 0C140.775 0 138.16 2.60513 138.16 5.81873C138.16 9.03218 140.775 11.6373 144.001 11.6373Z" fill="white"/>
</svg>
