<svg width="205" height="41" viewBox="0 0 205 41" fill="none" xmlns="http://www.w3.org/2000/svg">
<path d="M13.031 17.4388L20.9355 9.54758L28.8442 17.4429L33.4436 12.8511L20.9355 0.363281L8.43164 12.8469L13.031 17.4388Z" fill="white"/>
<path d="M9.78291 20.6796L5.18359 16.0879L0.584053 20.6799L5.18337 25.2716L9.78291 20.6796Z" fill="white"/>
<path d="M13.03 23.9238L20.9345 31.815L28.8429 23.9199L33.4448 28.5092L33.4426 28.5118L20.9345 40.9993L8.43026 28.5159L8.42383 28.5095L13.03 23.9238Z" fill="white"/>
<path d="M36.6876 25.2736L41.2871 20.6816L36.6878 16.0899L32.0883 20.6819L36.6876 25.2736Z" fill="white"/>
<path d="M25.6004 20.6791H25.6023L20.9351 16.0195L17.486 19.463H17.4856L17.0896 19.8587L16.2721 20.6749L16.2656 20.6813L16.2721 20.6881L20.9351 25.3434L25.6023 20.6839L25.6046 20.6813L25.6004 20.6791Z" fill="white"/>
<path d="M48.459 10.209H58.4624C60.9452 10.209 62.8226 10.8451 64.0951 12.1174C65.0797 13.1027 65.5719 14.3239 65.5719 15.7807V15.8423C65.5719 16.4579 65.4957 17.0019 65.3424 17.4737C65.1894 17.9461 64.9849 18.3714 64.7293 18.7511C64.4744 19.1311 64.178 19.4645 63.8411 19.7515C63.5039 20.039 63.1416 20.2855 62.7535 20.4903C64.0015 20.9627 64.9839 21.6037 65.7002 22.4144C66.4161 23.2254 66.7746 24.3491 66.7746 25.7853V25.8466C66.7746 26.8319 66.5849 27.6937 66.2052 28.4328C65.8256 29.1713 65.2816 29.7872 64.5734 30.2799C63.8652 30.7726 63.0136 31.1417 62.0183 31.3881C61.023 31.6343 59.92 31.7572 58.7096 31.7572H48.459V10.209ZM57.4623 18.9205C58.511 18.9205 59.3436 18.7414 59.9599 18.382C60.5765 18.0228 60.8848 17.4429 60.8848 16.6427V16.5811C60.8848 15.8632 60.6173 15.3143 60.083 14.9343C59.5484 14.5546 58.7775 14.3646 57.7706 14.3646H53.0838V18.9205H57.4623ZM58.7267 27.6019C59.775 27.6019 60.5967 27.4125 61.1934 27.0325C61.7894 26.6528 62.0877 26.0626 62.0877 25.2622V25.2009C62.0877 24.4826 61.81 23.9132 61.2551 23.4921C60.6999 23.072 59.8059 22.8615 58.5724 22.8615H53.0838V27.6022L58.7267 27.6019Z" fill="white"/>
<path d="M72.7305 10.209H77.4794V31.7579H72.7305V10.209Z" fill="white"/>
<path d="M84.6719 10.209H89.0498L99.1638 23.477V10.209H103.851V31.7579H99.8116L89.3584 18.0591V31.7579H84.6719V10.209Z" fill="white"/>
<path d="M118.228 10.0566H122.606L131.857 31.7593H126.892L124.919 26.9264H115.792L113.818 31.7593H108.977L118.228 10.0566ZM123.223 22.7393L120.355 15.7516L117.488 22.7393H123.223Z" fill="white"/>
<path d="M136.982 10.209H141.361L151.475 23.477V10.209H156.162V31.7579H152.122L141.669 18.0591V31.7579H136.982V10.209Z" fill="white"/>
<path d="M173.251 32.1272C171.668 32.1272 170.199 31.8397 168.842 31.2655C167.485 30.6913 166.313 29.9059 165.327 28.9104C164.34 27.9151 163.569 26.7401 163.014 25.3857C162.459 24.031 162.182 22.5841 162.182 21.0448V20.9835C162.182 19.4443 162.459 18.0029 163.014 16.6584C163.569 15.3143 164.34 14.1342 165.327 13.1183C166.313 12.1025 167.495 11.3018 168.872 10.717C170.249 10.1322 171.771 9.83984 173.436 9.83984C174.443 9.83984 175.363 9.92233 176.195 10.086C177.028 10.2507 177.783 10.476 178.462 10.7632C179.141 11.0508 179.767 11.3997 180.343 11.8098C180.918 12.2206 181.453 12.6719 181.946 13.1646L178.925 16.643C178.081 15.884 177.223 15.2883 176.35 14.8576C175.476 14.4269 174.495 14.2112 173.405 14.2112C172.5 14.2112 171.663 14.3858 170.892 14.7346C170.122 15.0835 169.458 15.5656 168.903 16.1812C168.349 16.7968 167.917 17.5102 167.608 18.3206C167.3 19.1317 167.146 19.9985 167.146 20.9219V20.9832C167.146 21.9066 167.3 22.7793 167.608 23.5996C167.917 24.4209 168.342 25.1389 168.888 25.7545C169.432 26.37 170.09 26.8579 170.861 27.217C171.632 27.5765 172.48 27.7556 173.405 27.7556C174.639 27.7556 175.681 27.53 176.534 27.0784C177.388 26.6274 178.236 26.0115 179.079 25.2313L182.1 28.2791C181.545 28.8744 180.969 29.4082 180.374 29.8796C179.777 30.3521 179.125 30.7571 178.415 31.096C177.706 31.4343 176.93 31.6914 176.088 31.8653C175.244 32.0396 174.299 32.1272 173.251 32.1272Z" fill="white"/>
<path d="M187.689 10.209H203.939V14.4266H192.377V18.7979H202.552V23.0152H192.377V27.5406H204.094V31.7579H187.689V10.209Z" fill="white"/>
</svg>
