<svg width="212" height="76" viewBox="0 0 212 76" fill="none" xmlns="http://www.w3.org/2000/svg">
<path d="M39.2937 0C40.7471 0.14453 42.2116 0.216795 43.6509 0.444586C56.6049 2.49942 66.2768 9.29546 72.2382 20.9725C79.551 35.2967 77.0835 52.304 66.0806 63.9795C57.8872 72.6733 47.6722 76.6903 35.7401 75.9032C20.135 74.8742 6.92678 64.4115 2.20854 49.5187C1.689 47.8786 1.38921 46.1694 0.982678 44.4931C0.952855 44.3722 0.888502 44.2606 0.839844 44.1444C0.839844 40.1117 0.839844 36.0806 0.839844 32.0479C0.888502 31.9002 0.955995 31.7557 0.982678 31.6049C1.50222 28.521 2.34196 25.5236 3.67455 22.6959C9.5857 10.1579 19.3612 2.69265 33.0592 0.452441C34.4954 0.216795 35.9598 0.147672 37.4101 0C38.038 0 38.6658 0 39.2937 0ZM38.8134 41.1517C38.851 41.1878 38.8887 41.224 38.9279 41.2585C39.4443 40.9585 39.9466 40.6333 40.4771 40.3646C42.8975 39.1408 45.4449 38.6381 48.1415 39.1016C48.8745 39.2272 48.9562 39.4472 48.4649 40.0112C48.0034 40.5421 47.5106 41.0574 46.9722 41.5083C44.2348 43.7956 41.0391 44.5796 37.542 44.2858C37.0491 44.2449 36.7933 44.3659 36.5625 44.8121C35.9174 46.0657 35.2111 47.2863 34.5393 48.5258C34.3039 48.961 34.0983 49.4134 33.8801 49.858C34.1909 49.7983 34.3808 49.6617 34.5833 49.5454C37.5765 47.8315 40.7393 47.1497 44.1406 48.0121C45.0243 48.2352 45.0635 48.4112 44.4059 49.0443C42.1864 51.1808 39.5134 52.315 36.4574 52.4596C35.2205 52.5177 33.9727 52.3339 32.7029 52.2585C32.6479 52.3653 32.5663 52.5004 32.5082 52.6449C31.353 55.4696 30.1915 58.291 29.0535 61.1219C28.7475 61.8823 29.1038 62.5169 29.9702 62.8154C35.3539 64.666 40.8052 64.8828 46.3051 63.4124C46.7038 63.3056 47.1778 62.938 47.3363 62.5704C48.5449 59.7426 49.7771 56.9211 50.35 53.8672C50.8083 51.4274 51.6025 50.854 54.0495 50.7158C55.8703 50.6137 57.6848 50.3576 59.4945 50.1047C60.5148 49.9633 61.0013 49.3946 61.0939 48.3735C61.1442 47.8283 61.2179 47.2424 61.0735 46.7349C60.7941 45.7562 61.0484 45.0147 61.7469 44.3439C62.1534 43.9527 62.1032 43.5616 61.6574 43.2301C61.0437 42.7714 61.039 42.3205 61.6355 41.8413C62.1864 41.3999 62.1675 40.894 61.816 40.3206C61.5899 39.9499 61.4361 39.5352 61.2493 39.1377C62.0341 38.4967 62.7875 37.9328 63.4797 37.3028C64.1766 36.6681 64.128 36.2015 63.3448 35.7004C61.7579 34.6856 60.2087 33.6519 59.0001 32.15C58.3095 31.2907 58.0881 30.4455 58.3534 29.3945C58.7207 27.9366 58.457 26.5778 57.7177 25.2534C56.8183 23.6416 55.9786 21.9921 55.2079 20.3143C54.4121 18.5815 53.3369 17.1472 51.4832 16.5188C50.1553 16.0695 48.7961 15.6595 47.4164 15.427C44.7951 14.984 42.1456 14.7169 39.5181 14.31C35.7777 13.7303 32.3905 14.6101 29.4067 16.8503C28.027 17.8871 26.674 18.9083 25.1154 19.6717C24.6131 19.9184 24.1721 20.4918 23.9272 21.0196C23.4469 22.0533 22.8096 22.8278 21.8067 23.4279C20.6546 24.1176 19.4711 24.8952 18.6141 25.9022C17.7178 26.9532 16.82 27.8989 15.6161 28.576C14.6445 29.1227 14.2035 30.0637 14.2082 31.132C14.2113 31.8452 14.4091 32.571 14.6131 33.2638C14.8627 34.109 14.9459 34.9133 14.7277 35.7931C14.5158 36.6461 14.3714 37.5463 14.3871 38.4229C14.4217 40.2327 15.1343 41.6607 16.977 42.3079C17.7979 42.597 18.1181 43.2238 18.3221 44.0643C18.5482 45.0037 18.7899 46.149 19.4444 46.7334C20.9999 48.1221 22.0829 49.7214 22.7688 51.6584C23.122 52.6544 23.9021 53.2325 24.8721 53.6268C25.861 54.0274 26.809 54.527 27.7806 54.9684C28.4571 55.2763 29.143 55.5607 29.8462 55.8639C30.3924 54.6385 30.846 53.5278 31.3828 52.458C31.6716 51.883 31.5916 51.5186 31.1678 51.0316C28.3347 47.7624 27.418 44.0046 28.4524 39.7896C28.5089 39.5587 28.6502 39.3482 28.7569 39.1173C31.0721 40.5469 32.4235 43.7375 32.9681 49.0176C33.9947 47.145 34.9647 45.3729 35.9331 43.6055C33.6541 39.565 33.5332 35.4726 35.6302 31.3284C35.7479 31.0959 35.9928 30.9294 36.178 30.7314C36.3475 30.9152 36.5578 31.077 36.6818 31.2875C37.5828 32.8177 38.1494 34.4641 38.2169 36.2471C38.264 37.5117 38.2263 38.7811 38.2263 40.2908C38.8887 39.023 39.7457 37.9532 40.0282 36.7482C41.1803 31.8484 43.8502 28.2336 48.4351 26.0939C48.7757 25.9352 49.1461 25.8441 49.5024 25.7216C49.5856 25.7656 49.6703 25.8095 49.7535 25.8535C49.5652 26.804 49.4506 27.7748 49.1743 28.6986C47.9406 32.8255 45.3414 35.8245 41.5335 37.7977C41.3059 37.9155 41.0469 38.0396 40.9025 38.2344C40.1883 39.1943 39.5087 40.1793 38.8165 41.1548L38.8134 41.1517Z" fill="white"/>
<path d="M120.061 50.73H114.224V36.1215C114.158 36.1105 114.09 36.0979 114.024 36.0869C113.549 37.0326 113.071 37.9768 112.601 38.9256C111.425 41.29 110.241 43.6511 109.089 46.028C108.867 46.4883 108.579 46.592 108.083 46.6768C106.132 47.0146 105.114 46.2401 104.363 44.4021C103.269 41.722 101.832 39.1833 100.537 36.5849C100.438 36.387 100.32 36.1984 100.075 36.0366V50.708H94.2566V25.3697C94.4748 25.354 94.6992 25.3242 94.9252 25.3226C96.5733 25.3179 98.2214 25.3414 99.8679 25.3084C100.383 25.299 100.653 25.453 100.885 25.9305C102.803 29.8533 104.753 33.7603 106.694 37.672C106.82 37.9249 106.956 38.1747 107.159 38.558C107.909 37.0609 108.603 35.6769 109.295 34.2928C110.698 31.4855 112.094 28.675 113.511 25.8756C113.624 25.6541 113.877 25.3509 114.071 25.3461C116.051 25.3069 118.031 25.3226 120.063 25.3226V50.7315L120.061 50.73Z" fill="white"/>
<path d="M144.407 35.4113V40.1761H134.468V45.541H146.325V50.6891H128.611V25.3618H146.014V30.4612H134.483V35.4129H144.407V35.4113Z" fill="white"/>
<path d="M191.866 47.7671C192.732 46.0484 193.566 44.3958 194.313 42.9128C196.149 43.6841 197.881 44.556 199.708 45.1247C200.926 45.5033 202.277 45.4735 203.574 45.5693C203.949 45.5976 204.35 45.4656 204.716 45.3384C205.346 45.12 205.804 44.7131 205.887 44.0015C205.975 43.2521 205.732 42.6064 205.058 42.2781C204.148 41.8335 203.194 41.4675 202.238 41.1281C200.565 40.5343 198.836 40.0803 197.199 39.4001C193.996 38.0695 192.159 35.9376 193.206 31.209C193.916 28.0011 196.251 26.2997 199.285 25.5268C203.691 24.4051 207.622 25.8269 211.487 27.9508C210.618 29.5925 209.78 31.1744 208.94 32.7611C206.915 31.5216 204.868 30.5445 202.53 30.4361C201.836 30.4047 201.12 30.5005 200.439 30.6529C199.596 30.8398 199.075 31.4117 199 32.3024C198.927 33.1633 199.329 33.8153 200.1 34.1153C201.436 34.6337 202.817 35.0343 204.165 35.5229C205.758 36.101 207.366 36.654 208.909 37.3484C209.599 37.6594 210.197 38.236 210.751 38.7795C211.502 39.5179 211.908 40.4118 211.822 41.5319C211.74 42.5734 211.731 43.6323 211.822 44.6707C211.98 46.4993 211.078 47.7749 209.789 48.8558C208.246 50.1503 206.378 50.6844 204.429 50.8493C200.083 51.2169 196.01 50.2916 192.253 48.0452C192.144 47.9792 192.043 47.8959 191.867 47.7687L191.866 47.7671Z" fill="white"/>
<path d="M151.58 30.5068V25.3697H172.831V30.4707H165.204V50.7064H159.334V30.5084H151.582L151.58 30.5068Z" fill="white"/>
<path d="M185.195 50.7142H179.376V25.3744H185.195V50.7142Z" fill="white"/>
</svg>
