<svg width="212" height="39" viewBox="0 0 212 39" fill="none" xmlns="http://www.w3.org/2000/svg">
<path d="M6.75313 6.35703L16.6043 0.574219L26.4554 6.35703L22.7591 8.38998L16.6043 4.79387L10.2894 8.38998L6.75313 6.35703ZM26.3039 13.5407L22.7591 11.5077L16.6043 15.1038L10.2894 11.5077L6.74471 13.5407V17.7603L12.908 21.3564V28.7024L16.4527 30.8891L19.9975 28.7024V21.5187L26.1607 17.9226V13.5492H26.3039V13.5407ZM26.3039 25.1063V20.8867L22.7591 23.0734V27.1307L26.3039 25.1063ZM28.9224 26.5072L22.7676 30.1033V34.3229L32.6271 28.5401V16.983L28.9309 19.3235L28.9224 26.5072ZM25.3777 9.95313L28.9224 12.1398V16.3595L32.4672 14.1728V9.95313L28.9224 7.76642L25.3777 9.95313ZM12.908 31.6664V35.8861L16.4527 38.0728L19.9975 35.8861V31.6664L16.4527 33.8531L12.908 31.6664ZM6.74471 25.1063L10.2894 27.1393V22.9196L6.74471 20.7329V25.1063ZM12.908 9.95313L16.4527 12.1398L20.149 9.95313L16.6043 7.76642L12.908 9.95313ZM4.13457 12.1398L7.83086 9.95313L4.13457 7.76642L0.589844 9.95313V14.1728L4.13457 16.3595V12.1398ZM4.13457 19.3235L0.589844 17.1368V28.6939L10.4494 34.4767V30.257L4.28613 26.6609V19.315L4.13457 19.3235Z" fill="white"/>
<path d="M60.9506 24.1669C60.9506 21.3566 59.4098 19.9472 57.1027 19.0076C58.6436 18.2303 59.8728 16.8209 59.8728 14.4804C59.8728 11.2004 57.2543 9.01367 53.0949 9.01367H43.5469V29.9497H53.398C57.8689 29.7874 60.9506 27.9167 60.9506 24.1669ZM55.2504 15.2577C55.2504 16.8209 54.0211 17.4444 52.0172 17.4444H47.8578V12.9173H52.3203C54.3326 12.9173 55.2504 13.7031 55.2504 15.2577ZM56.4881 23.5433C56.4881 25.1064 55.2588 25.8838 53.2549 25.8838H47.8662V21.3566H53.1033C55.4104 21.1943 56.4881 22.1339 56.4881 23.5433Z" fill="white"/>
<path d="M83.2804 29.7874V9.01367H78.8095V21.8264L69.1099 9.01367H64.959V29.9497H69.4215V16.6671L79.4326 29.9497H83.2804V29.7874Z" fill="white"/>
<path d="M105.913 24.1669C105.913 21.3566 104.373 19.9472 102.066 19.0076C103.606 18.2303 104.836 16.8209 104.836 14.4804C104.836 11.2004 102.217 9.01367 98.0578 9.01367H88.5098V29.9497H98.3609C102.832 29.7874 105.913 27.9167 105.913 24.1669ZM100.373 15.2577C100.373 16.8209 99.144 17.4444 97.14 17.4444H92.9807V12.9173H97.4432C99.2955 12.9173 100.373 13.7031 100.373 15.2577ZM101.451 23.5433C101.451 25.1064 100.222 25.8838 98.2178 25.8838H92.8291V21.3566H98.0662C100.373 21.1943 101.451 22.1339 101.451 23.5433Z" fill="white"/>
<path d="M133.167 26.199L130.86 23.8586C129.168 25.5755 127.476 26.5151 125.009 26.5151C121.001 26.5151 118.231 23.235 118.231 19.0154C118.231 14.9495 121.161 11.6779 125.009 11.6779C127.316 11.6779 129.168 12.7713 130.709 14.3345L133.016 11.5242C131.012 9.65354 128.705 8.24414 125.009 8.24414C118.845 8.24414 114.383 13.0873 114.383 19.0239C114.383 25.1142 118.845 29.8037 124.857 29.8037C128.705 29.7866 131.012 28.3857 133.167 26.199Z" fill="white"/>
<path d="M150.724 20.7321V29.479H154.269V8.54297H150.724V17.2898H140.873V8.54297H137.328V29.479H140.873V20.7321H150.724Z" fill="white"/>
<path d="M170.585 8.54297H167.2L158.115 29.6327H161.812L163.967 24.6357H173.667L175.822 29.6327H179.67L170.585 8.54297ZM172.437 21.1934H165.356L168.901 12.9164L172.437 21.1934Z" fill="white"/>
<path d="M183.678 8.54297V29.479H187.214V8.54297H183.678Z" fill="white"/>
<path d="M207.388 23.0726L196.3 8.69672H193.066V29.6327H196.611V14.6333L208.003 29.479H211.085V8.54297H207.54V23.0726H207.388Z" fill="white"/>
</svg>
