<svg width="231" height="70" viewBox="0 0 231 70" fill="none" xmlns="http://www.w3.org/2000/svg">
<g clip-path="url(#clip0_29_784)">
<path d="M54.9604 28.9648H57.569L64.8801 46.4365H61.4198L59.8404 42.4383H52.476L50.9499 46.4365H47.5605L54.9427 28.9648H54.9604ZM58.7934 39.7728L56.1848 32.671L53.523 39.7728H58.7934Z" fill="white"/>
<path d="M68.1289 28.9648H71.607L76.2386 42.1644L81.0121 28.9648H84.2773L77.4098 46.4365H74.8012L68.1289 28.9648Z" fill="white"/>
<path d="M95.0657 28.9648H97.6743L104.985 46.4365H101.525L99.9457 42.4383H92.5813L91.0552 46.4365H87.6836L95.0657 28.9648ZM98.8987 39.7728L96.2902 32.671L93.6283 39.7728H98.8987Z" fill="white"/>
<path d="M111.676 28.9648H114.693V43.625H121.915V46.4365H111.676V28.9648Z" fill="white"/>
<path d="M134.39 28.9648H136.999L144.31 46.4365H140.849L139.27 42.4383H131.906L130.379 46.4365H127.008L134.39 28.9648ZM138.223 39.7728L135.614 32.671L132.953 39.7728H138.223Z" fill="white"/>
<path d="M151 28.9648H155.01L163.227 41.9454H163.28V28.9648H166.297V46.4365H162.464L154.07 33.0361H154.017V46.4365H151V28.9648Z" fill="white"/>
<path d="M186.527 33.0543C185.906 32.3606 185.302 31.9042 184.699 31.6668C184.131 31.4295 183.546 31.3199 182.942 31.3199C182.055 31.3199 181.256 31.4843 180.547 31.8129C179.837 32.1232 179.233 32.5614 178.719 33.1456C178.204 33.7116 177.814 34.3688 177.512 35.1173C177.246 35.8659 177.104 36.6874 177.104 37.5637C177.104 38.4948 177.246 39.3711 177.512 40.1562C177.796 40.9412 178.204 41.635 178.719 42.2009C179.233 42.7852 179.837 43.2233 180.547 43.5519C181.274 43.8806 182.073 44.0449 182.942 44.0449C183.634 44.0449 184.291 43.8806 184.93 43.5519C185.586 43.2051 186.19 42.6574 186.758 41.9271L189.242 43.7528C188.479 44.8299 187.538 45.6332 186.438 46.1261C185.338 46.6191 184.167 46.8747 182.907 46.8747C181.594 46.8747 180.387 46.6556 179.287 46.2357C178.204 45.7975 177.264 45.1768 176.465 44.3917C175.684 43.5884 175.063 42.6208 174.62 41.5072C174.176 40.3935 173.945 39.1521 173.945 37.7828C173.945 36.377 174.176 35.1173 174.62 33.9854C175.063 32.8352 175.684 31.8494 176.465 31.0461C177.264 30.2428 178.204 29.6221 179.287 29.2022C180.387 28.764 181.594 28.5449 182.907 28.5449C184.06 28.5449 185.125 28.764 186.101 29.1839C187.095 29.6038 188.017 30.2976 188.852 31.3017L186.509 33.0726L186.527 33.0543Z" fill="white"/>
<path d="M196.09 28.9648H199.107V35.9206H207.039V28.9648H210.073V46.4365H207.039V38.7322H199.107V46.4365H196.09V28.9648Z" fill="white"/>
<path d="M218.664 28.9648H229.897V31.7764H221.681V36.0667H229.471V38.8782H221.681V43.625H230.341V46.4365H218.664V28.9648Z" fill="white"/>
<path fill-rule="evenodd" clip-rule="evenodd" d="M7.38569 47.6781H2.66539C1.67164 47.6781 1.17477 47.6781 0.890842 47.4772C0.571423 47.2582 0.376223 46.9113 0.340732 46.5096C0.322987 46.1445 0.571423 45.7063 1.05055 44.8118L12.7271 23.6522C13.2239 22.7577 13.4724 22.3012 13.7918 22.1369C14.129 21.9544 14.5371 21.9544 14.8743 22.1369C15.1937 22.3012 15.4421 22.7577 15.939 23.6522L18.3346 27.9608L18.3524 27.9791C18.8848 28.9467 19.1687 29.4396 19.2752 29.9508C19.3994 30.5168 19.3994 31.101 19.2752 31.6669C19.1509 32.1781 18.8848 32.671 18.3346 33.6569L12.2125 44.8118L12.1947 44.8483C11.6623 45.8159 11.3784 46.3088 11.0058 46.6922C10.5976 47.0938 10.1007 47.386 9.55063 47.5685C9.05376 47.7146 8.50365 47.7146 7.38569 47.7146V47.6781ZM19.3106 47.6781H26.0894C27.0832 47.6781 27.5978 47.6781 27.8817 47.4772C28.2011 47.2582 28.4141 46.893 28.4318 46.5096C28.4496 46.1628 28.2011 45.7246 27.7397 44.903C27.722 44.8665 27.7043 44.8483 27.6865 44.8118L24.2971 38.8418L24.2616 38.7688C23.7825 37.9472 23.5518 37.5273 23.2324 37.363C22.8952 37.1805 22.4871 37.1805 22.1499 37.363C21.8305 37.5273 21.5821 37.9655 21.0852 38.8418L17.7136 44.8118L17.6958 44.83C17.1989 45.7063 16.9505 46.1445 16.9682 46.5096C16.986 46.9113 17.1812 47.2582 17.5184 47.4772C17.82 47.6781 18.3169 47.6781 19.3106 47.6781Z" fill="white"/>
</g>
<defs>
<clipPath id="clip0_29_784">
<rect width="230" height="70" fill="white" transform="translate(0.339844)"/>
</clipPath>
</defs>
</svg>
