<svg width="122" height="36" viewBox="0 0 122 36" fill="none" xmlns="http://www.w3.org/2000/svg">
<g id="Group 1000001989">
<path id="Vector 576" d="M120.779 6.5379C121.122 6.88156 121.122 7.43875 120.779 7.78241L115.179 13.3827C114.835 13.7264 114.278 13.7264 113.934 13.3827C113.59 13.039 113.59 12.4818 113.934 12.1382L118.912 7.16016L113.934 2.18212C113.59 1.83846 113.59 1.28128 113.934 0.937617C114.278 0.593955 114.835 0.593955 115.179 0.937617L120.779 6.5379ZM0.476563 6.28016L120.157 6.28016V8.04016L0.476562 8.04016L0.476563 6.28016Z" fill="#697686"/>
<path id="Vector 577" d="M120.779 28.5379C121.122 28.8816 121.122 29.4387 120.779 29.7824L115.179 35.3827C114.835 35.7264 114.278 35.7264 113.934 35.3827C113.59 35.039 113.59 34.4818 113.934 34.1382L118.912 29.1602L113.934 24.1821C113.59 23.8385 113.59 23.2813 113.934 22.9376C114.278 22.594 114.835 22.594 115.179 22.9376L120.779 28.5379ZM0.476563 28.2802L120.157 28.2802V30.0402L0.476562 30.0402L0.476563 28.2802Z" fill="#697686"/>
</g>
</svg>
