<svg width="82" height="33" viewBox="0 0 82 33" fill="none" xmlns="http://www.w3.org/2000/svg">
<g id="Group 1000001990">
<path id="Vector" d="M0.919925 31.2388L0.794922 30.193C2.47063 29.5249 2.76457 28.6039 2.88957 26.7618C3.01457 25.382 3.01457 23.5398 3.01457 22.0756V10.9522C3.01457 9.48803 3.01457 7.64594 2.88957 6.26606C2.76457 4.42398 2.47063 3.50632 0.794922 2.83494L0.919925 1.78906C2.5551 1.9139 3.6835 1.9139 4.73082 1.9139H12.4371C14.1533 1.9139 15.4541 1.9139 17.0859 1.78906C17.3798 3.9213 17.5454 5.46986 17.6737 7.77078L16.4574 7.97994C15.9135 6.43138 15.4507 5.5542 14.8223 4.88282C14.1939 4.21143 13.231 3.87743 12.4337 3.7526C11.3864 3.58391 10.4641 3.54343 8.83227 3.54343C6.86263 3.54343 6.61263 3.87743 6.48762 5.55082C6.36262 6.84635 6.36262 8.35444 6.36262 9.85914V15.2133C7.78833 15.2133 10.7208 15.129 12.0587 15.0041C13.9439 14.795 14.5317 14.127 15.1602 12.2005L16.1669 12.4097C16.0419 14.0427 16.0419 14.9603 16.0419 16.0062C16.0419 17.052 16.0419 18.0135 16.1669 19.6464L15.1602 19.8556C14.5317 17.9326 13.9439 17.3051 12.0587 17.052C10.7175 16.8833 7.74441 16.8429 6.36262 16.8429V22.4906C6.36262 23.9548 6.44707 26.2152 6.48762 27.052C6.57209 29.1031 7.28494 29.4776 9.17012 29.4776C11.0553 29.4776 12.481 29.4372 13.6095 29.2684C15.0757 29.0593 15.7446 28.4723 16.3729 27.595C16.8764 26.7989 17.2953 25.9216 17.8393 24.3731L18.971 24.5823C18.7615 27.0924 18.4271 29.1436 17.9643 31.3163C14.9067 31.1476 11.0958 31.1072 5.73085 31.1072C3.67675 31.1072 2.54834 31.1072 0.913168 31.232L0.919925 31.2388Z" fill="white"/>
<path id="Vector_2" d="M23.9887 18.1439C24.5765 16.5549 24.7015 15.7587 24.7015 15.3404C24.7015 15.0907 24.5765 14.9625 24.3671 14.9625C23.9481 14.9625 23.1103 15.6305 21.1845 17.891L20.3872 17.1791C22.7758 13.7074 24.492 12.1184 25.8738 12.1184C26.7523 12.1184 27.5496 12.9146 27.5496 14.1697C27.5496 15.5091 26.8806 17.3478 26.2522 19.0651L23.5292 26.7606C23.0697 28.0156 22.9852 28.3496 22.9852 28.5183C22.9852 28.7275 23.1542 28.9367 23.4042 28.9367C23.8636 28.9367 24.7015 28.4779 26.7555 25.5495L27.5934 26.1364C25.3738 30.4448 23.4447 31.6155 21.9785 31.6155C21.0156 31.6155 20.1777 30.7788 20.1777 29.6924C20.1777 28.7309 20.4717 27.8098 21.4751 25.0906L23.9887 18.1473V18.1439ZM27.215 0.617188C28.4718 0.617188 29.4347 1.57871 29.4347 2.83376C29.4347 4.08881 28.4718 5.05033 27.215 5.05033C25.9583 5.05033 24.9954 4.08881 24.9954 2.83376C24.9954 1.57871 25.9583 0.617188 27.215 0.617188Z" fill="white"/>
<path id="Vector_3" d="M43.1044 4.69406C44.1113 5.82428 44.4863 7.24464 44.4863 8.7932C44.4863 12.8923 41.4692 15.8208 37.7834 15.8208C35.8982 15.8208 34.5164 15.2776 33.3001 14.2722C32.0029 15.2776 31.7089 16.2392 31.7089 17.2007C31.7089 18.4152 32.6718 19.2081 34.5569 19.2924L39.6246 19.4611C43.6889 19.586 45.6552 22.0117 45.6552 25.1493C45.6552 28.9144 41.9253 32.2174 36.1043 32.2174C31.371 32.2174 28.9824 30.1256 28.9824 27.2815C28.9824 25.3146 29.9454 23.766 32.3339 22.1365C30.5332 21.5089 29.317 20.1291 29.317 18.1621C29.317 16.5293 30.0704 14.8559 32.2089 13.2263C31.2461 11.9308 30.7832 10.5914 30.7832 8.7932C30.7832 4.85937 33.9252 1.76562 37.611 1.76562C40.0402 1.76562 40.6686 2.60232 43.0571 2.60232C44.1045 2.60232 45.5707 2.56184 47.0369 2.43363L47.3714 3.1455L47.0369 4.69406H43.0976H43.1044ZM38.8746 22.6392C36.9894 22.6392 35.4827 22.6392 33.763 22.5144C32.2968 23.8943 31.7089 25.2741 31.7089 26.573C31.7089 28.3712 33.2596 29.8793 36.7765 29.8793C41.5943 29.8793 43.3545 27.828 43.3545 25.8645C43.3545 23.901 42.0132 22.6425 38.8712 22.6425L38.8746 22.6392ZM34.0164 8.54017C34.0164 12.221 35.4421 14.1474 37.7868 14.1474C39.9658 14.1474 41.3071 12.6832 41.3071 9.00238C41.3071 5.53076 39.8408 3.43902 37.5367 3.43902C35.4827 3.43902 34.0164 5.02807 34.0164 8.54354V8.54017Z" fill="white"/>
<path id="Vector_4" d="M55.4558 12.498C59.476 12.498 62.537 15.467 62.537 19.4852C62.537 19.8191 62.537 20.1126 62.4525 20.4467H49.5502C49.4657 20.9494 49.4657 21.4081 49.4657 22.0357C49.4657 26.344 52.0637 29.2725 55.4152 29.2725C58.0977 29.2725 59.7295 28.3514 61.4457 25.8852L62.4525 26.5127C61.1957 29.6503 58.7227 32.2448 54.9963 32.2448C49.7596 32.2448 46.2832 27.8116 46.2832 22.7072C46.2832 16.8907 50.263 12.5014 55.4558 12.5014V12.498ZM58.8477 18.7733C58.8071 15.9292 56.878 14.3806 54.5334 14.3806C51.9792 14.3806 50.3441 16.3037 49.8407 18.7733H58.8477Z" fill="white"/>
<path id="Vector_5" d="M79.8764 12.4401C79.8764 13.7357 79.8764 15.1999 79.9607 16.4988C80.0858 18.2126 80.3391 18.884 81.8866 19.5115L81.7615 20.473C80.2952 20.3483 79.3729 20.3483 78.41 20.3483C77.4472 20.3483 76.5249 20.3483 75.0586 20.473L74.9336 19.5115C76.4843 18.884 76.6938 18.216 76.8188 16.4988C76.9438 15.2033 76.9438 13.7391 76.9438 12.4401V8.00697C76.9438 5.66557 75.5181 4.07315 73.2984 4.07315C70.4065 4.07315 68.6057 6.04005 68.6057 8.71546V12.4401C68.6057 13.7357 68.6057 15.1999 68.6902 16.4988C68.8153 18.2126 69.0686 18.884 70.6159 19.5115L70.491 20.473C69.0247 20.3483 68.1024 20.3483 67.1395 20.3483C66.1767 20.3483 65.2544 20.3483 63.7881 20.473L63.6631 19.5115C65.2138 18.884 65.4232 18.216 65.5483 16.4988C65.6733 15.2033 65.6733 13.7391 65.6733 12.4401V11.3942C65.6733 10.0987 65.6733 8.75931 65.5483 7.46041C65.4232 5.74653 65.0044 5.36867 63.4941 5.07515V4.19797C65.4198 3.27693 66.4672 2.60892 67.9335 1.26953L68.8119 1.60353C68.6868 2.94293 68.6025 4.07315 68.5619 5.11901L68.6025 5.1595C69.7342 3.02727 71.7039 1.35387 74.2174 1.35387C76.2715 1.35387 77.9877 2.3154 78.9945 3.94831C79.5384 4.90983 79.873 5.95571 79.873 7.62911V12.4401H79.8764Z" fill="white"/>
</g>
</svg>
