<svg width="188" height="59" viewBox="0 0 188 59" fill="none" xmlns="http://www.w3.org/2000/svg">
<g id="Group 1000001979">
<g id="Group" opacity="0.6">
<g id="Clip path group">
<mask id="mask0_47_2581" style="mask-type:luminance" maskUnits="userSpaceOnUse" x="0" y="21" width="36" height="20">
<g id="SVGID_2_">
<path id="Vector" d="M0.394531 21.9688H35.5315V40.3419H0.394531V21.9688Z" fill="white"/>
</g>
</mask>
<g mask="url(#mask0_47_2581)">
<path id="Vector_2" d="M17.9665 21.9688L0.394531 29.9604L17.9665 40.3419L35.5315 29.9604L17.9665 21.9688Z" fill="#010101"/>
</g>
</g>
</g>
<g id="Group_2" opacity="0.45">
<g id="Clip path group_2">
<mask id="mask1_47_2581" style="mask-type:luminance" maskUnits="userSpaceOnUse" x="0" y="0" width="18" height="41">
<g id="SVGID_4_">
<path id="Vector_3" d="M0.394531 0.798828H17.9665V40.3357H0.394531V0.798828Z" fill="white"/>
</g>
</mask>
<g mask="url(#mask1_47_2581)">
<path id="Vector_4" d="M0.394531 29.9541L17.9665 40.3357V0.798828L0.394531 29.9541Z" fill="white"/>
</g>
</g>
</g>
<g id="Group_3" opacity="0.8">
<g id="Clip path group_3">
<mask id="mask2_47_2581" style="mask-type:luminance" maskUnits="userSpaceOnUse" x="17" y="0" width="19" height="41">
<g id="SVGID_6_">
<path id="Vector_5" d="M17.957 0.798828H35.529V40.3357H17.957V0.798828Z" fill="white"/>
</g>
</mask>
<g mask="url(#mask2_47_2581)">
<path id="Vector_6" d="M17.959 0.798828V40.3357L35.524 29.9541L17.959 0.798828Z" fill="white"/>
</g>
</g>
</g>
<g id="Group_4" opacity="0.45">
<g id="Clip path group_4">
<mask id="mask3_47_2581" style="mask-type:luminance" maskUnits="userSpaceOnUse" x="0" y="33" width="18" height="26">
<g id="SVGID_8_">
<path id="Vector_7" d="M0.394531 33.2832H17.9665V58.0386H0.394531V33.2832Z" fill="white"/>
</g>
</mask>
<g mask="url(#mask3_47_2581)">
<path id="Vector_8" d="M0.394531 33.2832L17.9665 58.0386V43.6647L0.394531 33.2832Z" fill="white"/>
</g>
</g>
</g>
<g id="Group_5" opacity="0.8">
<g id="Clip path group_5">
<mask id="mask4_47_2581" style="mask-type:luminance" maskUnits="userSpaceOnUse" x="17" y="33" width="19" height="26">
<g id="SVGID_10_">
<path id="Vector_9" d="M17.957 33.2832H35.5359V58.0386H17.957V33.2832Z" fill="white"/>
</g>
</mask>
<g mask="url(#mask4_47_2581)">
<path id="Vector_10" d="M17.959 43.6647V58.0386L35.5378 33.2832L17.959 43.6647Z" fill="white"/>
</g>
</g>
</g>
<path id="Vector_11" d="M64.6313 31.7872C64.6313 32.0842 64.3826 32.326 64.0856 32.326H53.5729C53.8353 34.9231 55.7901 37.2923 58.5391 37.2923C60.4179 37.2923 61.8132 36.5739 62.863 35.0751C63.015 34.8678 63.2429 34.7366 63.533 34.8609C63.6919 34.93 63.8024 35.0751 63.8301 35.2408C63.8577 35.4135 63.8093 35.5102 63.761 35.6069C62.7042 37.4511 60.5975 38.356 58.5322 38.356C54.9957 38.356 52.4746 35.1925 52.4746 31.8079C52.4746 28.4234 54.9957 25.2599 58.5322 25.2599C62.0687 25.253 64.6244 28.4096 64.6313 31.7872ZM63.5054 31.2761C63.2775 28.679 61.2882 26.3098 58.5391 26.3098C55.7901 26.3098 53.8353 28.679 53.5729 31.2761H63.5054ZM77.3889 25.5155C77.6928 25.5155 77.9139 25.778 77.9139 26.0404C77.9139 26.3443 77.6859 26.5654 77.3889 26.5654H74.5708V37.6238C74.5708 37.8863 74.3428 38.1488 74.0458 38.1488C73.7419 38.1488 73.5209 37.8863 73.5209 37.6238V26.5654H70.8132C70.5093 26.5654 70.2883 26.3374 70.2883 26.0404C70.2883 25.778 70.5162 25.5155 70.8132 25.5155H73.5209V21.4679C73.5209 21.2123 73.6935 20.9775 73.9422 20.936C74.2945 20.8808 74.5708 21.1225 74.5708 21.4541V25.5155H77.3889ZM94.5809 30.8617V37.5617C94.5809 37.8656 94.3185 38.0866 94.056 38.0866C93.7521 38.0866 93.531 37.8587 93.531 37.5617V30.8617C93.531 28.603 92.2532 26.3443 89.7321 26.3443C86.4995 26.3443 85.1043 29.1694 85.2907 32.0635C85.2907 32.1395 85.3253 32.478 85.3253 32.5125V37.5409C85.3253 37.7965 85.1526 38.0313 84.9039 38.0728C84.5517 38.128 84.2754 37.8863 84.2754 37.5547V15.5484C84.2754 15.2859 84.5033 15.0234 84.8003 15.0234C85.1043 15.0234 85.3253 15.2859 85.3253 15.5484V28.0021C86.2301 26.3858 87.8464 25.2945 89.7252 25.2945C92.8127 25.2945 94.5809 28.0021 94.5809 30.8617ZM113.431 31.7872C113.431 32.0842 113.182 32.326 112.885 32.326H102.365C102.628 34.9231 104.583 37.2923 107.332 37.2923C109.21 37.2923 110.606 36.5739 111.656 35.0751C111.808 34.8678 112.035 34.7366 112.326 34.8609C112.484 34.93 112.595 35.0751 112.623 35.2408C112.65 35.4135 112.602 35.5102 112.553 35.6069C111.497 37.4511 109.39 38.356 107.325 38.356C103.788 38.356 101.267 35.1925 101.267 31.8079C101.267 28.4234 103.788 25.2599 107.325 25.2599C110.868 25.253 113.424 28.4096 113.431 31.7872ZM112.298 31.2761C112.07 28.679 110.081 26.3098 107.332 26.3098C104.583 26.3098 102.628 28.679 102.365 31.2761H112.298ZM126.333 26.0059C126.333 26.3443 126.147 26.5308 125.843 26.5723C122.755 27.0213 121.367 29.5424 121.367 32.478V37.5064C121.367 37.762 121.194 37.9968 120.946 38.0383C120.593 38.0935 120.317 37.8518 120.317 37.5202V26.0612C120.317 25.8056 120.49 25.5707 120.739 25.5293C121.091 25.474 121.367 25.7158 121.367 26.0473V28.382C122.23 26.9176 123.964 25.5224 125.767 25.5224C126.029 25.5155 126.333 25.7089 126.333 26.0059ZM143.601 31.7872C143.601 32.0842 143.353 32.326 143.056 32.326H132.543C132.805 34.9231 134.76 37.2923 137.509 37.2923C139.388 37.2923 140.783 36.5739 141.833 35.0751C141.985 34.8678 142.213 34.7366 142.503 34.8609C142.662 34.93 142.773 35.0751 142.8 35.2408C142.828 35.4135 142.779 35.5102 142.731 35.6069C141.674 37.4511 139.568 38.356 137.502 38.356C133.966 38.356 131.445 35.1925 131.445 31.8079C131.445 28.4234 133.966 25.2599 137.502 25.2599C141.039 25.253 143.594 28.4096 143.601 31.7872ZM142.476 31.2761C142.248 28.679 140.258 26.3098 137.509 26.3098C134.76 26.3098 132.805 28.679 132.543 31.2761H142.476ZM160.572 26.1371V37.6238C160.572 37.9277 160.31 38.1488 160.047 38.1488C159.744 38.1488 159.522 37.9208 159.522 37.6238V35.4411C158.659 37.1749 157.112 38.4112 155.157 38.4112C152.035 38.4112 150.301 35.7036 150.301 32.844V26.1095C150.301 25.847 150.529 25.5846 150.826 25.5846C151.13 25.5846 151.351 25.847 151.351 26.1095V32.844C151.351 35.1027 152.629 37.3613 155.15 37.3613C158.687 37.3613 159.516 34.0528 159.516 30.3989V26.1095C159.516 25.8056 159.819 25.4948 160.192 25.6053C160.42 25.6813 160.572 25.9023 160.572 26.1371ZM187.165 30.8202V37.5547C187.165 37.8587 186.903 38.0797 186.64 38.0797C186.336 38.0797 186.115 37.8518 186.115 37.5547V30.8202C186.115 28.5616 184.837 26.3443 182.316 26.3443C179.153 26.3443 177.951 29.7289 177.951 32.3605V37.5547C177.951 37.8587 177.688 38.0797 177.426 38.0797C177.122 38.0797 176.901 37.8518 176.901 37.5547V30.8202C176.901 28.5616 175.623 26.3443 173.102 26.3443C169.904 26.3443 168.585 28.8655 168.702 32.2155C168.702 32.2915 168.737 32.4434 168.702 32.478V37.5409C168.702 37.7965 168.529 38.0313 168.274 38.0728C167.922 38.128 167.645 37.8863 167.645 37.5547V26.0612C167.645 25.8056 167.818 25.5707 168.067 25.5293C168.419 25.474 168.695 25.7158 168.695 26.0473V27.9675C169.6 26.3513 171.216 25.2945 173.095 25.2945C175.236 25.2945 176.894 26.6483 177.571 28.6445C178.434 26.6897 180.127 25.2945 182.309 25.2945C185.397 25.2945 187.165 27.9606 187.165 30.8202Z" fill="white"/>
</g>
</svg>
