<svg width="21" height="21" viewBox="0 0 21 21" fill="none" xmlns="http://www.w3.org/2000/svg">
<g id="Group 1000001972">
<path id="Vector" d="M6.71751 9.88456H0.314453L7.05094 6.78116L10.1691 0.117188L10.1765 6.44796C10.1789 8.345 8.62965 9.88699 6.71508 9.88699L6.71751 9.88456Z" fill="#070E15"/>
<path id="Vector_2" d="M14.3222 9.88456H20.7253L13.9888 6.78116L10.8706 0.117188L10.8633 6.44796C10.8608 8.345 12.4101 9.88699 14.3247 9.88699L14.3222 9.88456Z" fill="#070E15"/>
<path id="Vector_3" d="M14.3222 10.5903H20.7253L13.9888 13.6937L10.8706 20.3577L10.8633 14.0269C10.8608 12.1299 12.4101 10.5879 14.3247 10.5879L14.3222 10.5903Z" fill="#070E15"/>
<path id="Vector_4" d="M6.71751 10.5903H0.314453L7.05094 13.6937L10.1691 20.3577L10.1765 14.0269C10.1789 12.1299 8.62965 10.5879 6.71508 10.5879L6.71751 10.5903Z" fill="#070E15"/>
</g>
</svg>
