<svg width="99" height="27" viewBox="0 0 99 27" fill="none" xmlns="http://www.w3.org/2000/svg">
<g id="Group 1000001976">
<path id="Vector" d="M49.7042 5.85588V20.8789C49.7042 20.9933 49.6184 21.1078 49.4753 21.1078H47.9015C47.1861 21.1078 46.4993 20.7358 46.0987 20.1349L39.0021 9.17525L39.231 14.6408V20.9075C39.231 21.022 39.1452 21.1364 39.0021 21.1364H36.9418C36.8274 21.1364 36.7129 21.0506 36.7129 20.9075V5.85588C36.7129 5.74142 36.7987 5.62695 36.9418 5.62695H38.487C39.2024 5.62695 39.8892 5.99895 40.2898 6.59987L47.3864 17.5309L47.1575 12.0654V5.85588C47.1575 5.74142 47.2433 5.62695 47.3864 5.62695H49.4467C49.6184 5.62695 49.7042 5.7128 49.7042 5.85588Z" fill="white"/>
<path id="Vector_2" d="M70.8237 21.0792H68.6489C68.5059 21.0792 68.3914 20.9361 68.4486 20.793L74.2289 5.82726C74.2862 5.7128 74.4006 5.62695 74.5151 5.62695H77.2621C77.4052 5.62695 77.5197 5.7128 77.5483 5.82726L83.3572 20.793C83.4144 20.9361 83.3 21.0792 83.1569 21.0792H80.9821C80.8963 21.0792 80.8104 21.022 80.7818 20.9361L76.1175 8.63156C76.0603 8.45986 75.7741 8.45986 75.7169 8.63156L71.0526 20.9361C70.9954 21.022 70.9096 21.0792 70.8237 21.0792Z" fill="white"/>
<path id="Vector_3" d="M98.5242 20.7358L94.1747 15.1844C96.6356 14.7266 98.0663 13.0669 98.0663 10.5202C98.0663 7.60141 96.1777 5.62695 92.8011 5.62695H86.7347C86.563 5.62695 86.4199 5.77003 86.4199 5.94172C86.4199 7.08633 87.3356 8.00202 88.4802 8.00202H92.5722C94.6039 8.00202 95.5768 9.03217 95.5768 10.5488C95.5768 12.0654 94.6325 13.0955 92.5722 13.0955H86.7919C86.6202 13.0955 86.4772 13.2386 86.4772 13.4103V20.8503C86.4772 20.9647 86.563 21.0792 86.7061 21.0792H88.7664C88.8808 21.0792 88.9953 20.9933 88.9953 20.8503V15.3275H91.3704L95.1476 20.2494C95.5482 20.793 96.1777 21.0792 96.8645 21.0792H98.4383C98.5528 21.0792 98.6386 20.8789 98.5242 20.7358Z" fill="white"/>
<path id="Vector_4" d="M64.302 5.62695H54.7158C54.5441 5.62695 54.4297 5.74141 54.4297 5.91311C54.4297 7.05772 55.374 8.00202 56.5186 8.00202H64.302C64.4164 8.00202 64.5309 7.91617 64.5309 7.7731V5.82726C64.5023 5.7128 64.4164 5.62695 64.302 5.62695ZM64.302 18.7041H57.1481C57.0337 18.7041 56.9192 18.6183 56.9192 18.4752V14.6121C56.9192 14.4977 57.0051 14.3832 57.1481 14.3832H63.7583C63.8727 14.3832 63.9872 14.2974 63.9872 14.1543V12.2085C63.9872 12.094 63.9013 11.9795 63.7583 11.9795H54.7445C54.5728 11.9795 54.4297 12.1226 54.4297 12.2943V20.7358C54.4297 20.9075 54.5728 21.0506 54.7445 21.0506H64.302C64.4164 21.0506 64.5309 20.9647 64.5309 20.8217V18.8758C64.5023 18.79 64.4164 18.7041 64.302 18.7041Z" fill="white"/>
<path id="Vector_5" d="M21.3751 1.79482L15.9954 9.77847C15.6234 10.3222 16.3388 10.9803 16.8539 10.5225L22.1477 5.91541C22.2907 5.80095 22.4911 5.8868 22.4911 6.08711V20.4806C22.4911 20.6809 22.2335 20.7667 22.1191 20.6237L6.09451 1.45143C5.57944 0.821899 4.83544 0.478516 4.0056 0.478516H3.43329C1.9453 0.478516 0.714844 1.70897 0.714844 3.22558V23.4852C0.714844 25.0018 1.9453 26.2323 3.46191 26.2323C4.40621 26.2323 5.29329 25.7458 5.80836 24.9159L11.188 16.9323C11.56 16.3886 10.8446 15.7304 10.3296 16.1883L5.03575 20.7667C4.89267 20.8812 4.69237 20.7954 4.69237 20.595V6.23018C4.69237 6.02988 4.9499 5.94403 5.06436 6.08711L21.0889 25.2593C21.604 25.8889 22.3766 26.2323 23.1778 26.2323H23.7501C25.2667 26.2323 26.4972 25.0018 26.4972 23.4852V3.22558C26.4686 1.70897 25.2381 0.478516 23.7215 0.478516C22.7772 0.478516 21.8901 0.964975 21.3751 1.79482Z" fill="white"/>
</g>
</svg>
