<svg width="110" height="22" viewBox="0 0 110 22" fill="none" xmlns="http://www.w3.org/2000/svg">
<g id="Group 1000001974">
<path id="Vector" d="M17.6458 0.478516L11.0495 4.26687V16.0905L7.41001 18.2003L3.74826 16.0888V11.8676L7.41001 9.7766L9.7645 11.142V7.7267L7.38947 6.37836L0.794922 10.2095V17.7879L7.41171 21.5985L14.0063 17.7879V5.96598L17.668 3.8545L21.3281 5.96598V10.1685L17.668 12.2988L15.293 10.9213V14.3195L17.6458 15.6765L24.3054 11.8881V4.26687L17.6458 0.478516Z" fill="white"/>
<path id="Vector_2" fill-rule="evenodd" clip-rule="evenodd" d="M56.3474 16.893H59.3042V0.685547H56.3474V16.893ZM37.3388 5.37223C38.7402 5.37223 39.9021 5.93517 40.8209 7.05936C41.7415 8.18355 42.2001 9.57806 42.2001 11.243C42.2001 12.9079 41.7398 14.3024 40.8209 15.4266C39.9004 16.5507 38.7402 17.1138 37.3388 17.1138C36.3465 17.1138 35.4841 16.8074 34.7552 16.1932C34.0399 15.5652 33.5146 14.7182 33.1775 13.6522V21.2734H30.2207V5.59125H33.1775V8.83205C33.5129 7.76605 34.0399 6.92589 34.7552 6.31332C35.4857 5.68536 36.3465 5.37223 37.3388 5.37223ZM36.2643 14.4188C37.0668 14.4188 37.7461 14.1193 38.3005 13.5205C38.8549 12.9079 39.1321 12.1482 39.1321 11.243C39.1321 10.3379 38.8549 9.60719 38.3005 9.0083C37.7461 8.39572 37.0668 8.08773 36.2643 8.08773C35.3728 8.08773 34.6371 8.38717 34.0519 8.98605C33.4684 9.58493 33.1758 10.3361 33.1758 11.2413C33.1758 12.1464 33.4684 12.9061 34.0519 13.5187C34.6354 14.1176 35.3728 14.4171 36.2643 14.4171V14.4188ZM42.9855 11.243C42.9855 12.9079 43.5621 14.3024 44.7154 15.4266C45.8687 16.5507 47.3077 17.1138 49.0308 17.1138C50.7538 17.1138 52.1929 16.5507 53.3461 15.4266C54.4994 14.3024 55.076 12.9079 55.076 11.243C55.076 9.57806 54.4994 8.18355 53.3461 7.05936C52.1929 5.93517 50.7538 5.37223 49.0308 5.37223C47.3077 5.37223 45.8687 5.93517 44.7154 7.05936C43.5621 8.18355 42.9855 9.57806 42.9855 11.243ZM46.9056 13.5205C46.3358 12.9079 46.0517 12.1482 46.0517 11.243C46.0517 10.3379 46.3358 9.60719 46.9056 9.0083C47.4754 8.39572 48.1838 8.08773 49.0308 8.08773C49.8778 8.08773 50.5862 8.38717 51.1559 8.98605C51.7257 9.58493 52.0098 10.3361 52.0098 11.2413C52.0098 12.1464 51.7257 12.9061 51.1559 13.5187C50.5862 14.1176 49.8778 14.4171 49.0308 14.4171C48.1838 14.4171 47.4754 14.1176 46.9056 13.5187V13.5205ZM86.62 15.4266C85.4668 14.3024 84.8901 12.9079 84.8901 11.243C84.8901 9.57806 85.4668 8.18355 86.62 7.05936C87.7733 5.93517 89.2122 5.37223 90.9353 5.37223C92.6583 5.37223 94.0971 5.93517 95.2508 7.05936C96.4044 8.18355 96.9809 9.57806 96.9809 11.243C96.9809 12.9079 96.4044 14.3024 95.2508 15.4266C94.0971 16.5507 92.6583 17.1138 90.9353 17.1138C89.2122 17.1138 87.775 16.5507 86.62 15.4266ZM87.9547 11.243C87.9547 12.1482 88.2388 12.9079 88.8083 13.5205C89.3785 14.1193 90.0869 14.4188 90.9335 14.4188C91.7809 14.4188 92.4893 14.1193 93.0587 13.5205C93.6289 12.9079 93.9123 12.1482 93.9123 11.243C93.9123 10.3379 93.6289 9.58493 93.0587 8.98776C92.4893 8.38888 91.7809 8.08944 90.9335 8.08944C90.0869 8.08944 89.3785 8.39572 88.8083 9.01001C88.2388 9.60886 87.9547 10.3533 87.9547 11.2447V11.243ZM104.85 5.37223C106.106 5.37223 107.114 5.81026 107.872 6.68635C108.645 7.56242 109.032 8.67977 109.032 10.0366V16.8913H106.075V10.562C106.075 9.83133 105.842 9.23244 105.373 8.76532C104.906 8.29819 104.323 8.06378 103.621 8.06378C102.833 8.06378 102.191 8.29819 101.695 8.76532C101.199 9.23244 100.951 9.83133 100.951 10.562V16.8913H97.9937V5.59125H100.951V8.48299C101.243 7.51965 101.732 6.75992 102.418 6.20552C103.12 5.65113 103.929 5.37393 104.85 5.37393V5.37223ZM66.4069 13.8798L69.4287 5.60151H72.4299L66.2102 21.2836H63.2089L64.7865 17.2968L60.1648 5.60151H63.3629L66.4069 13.8798ZM80.8382 5.59125V8.4231C80.2222 6.57513 78.7011 5.59125 76.6769 5.59125C73.6209 5.59125 71.814 8.26055 71.814 11.0668C71.814 13.8729 73.6072 16.7612 76.6769 16.7612C78.7011 16.7612 80.2222 15.3017 80.8382 13.4537V15.6216C80.8382 16.5422 80.5388 17.3002 79.9399 17.8992C79.3411 18.498 78.6121 18.7975 77.7498 18.7975C76.581 18.7975 75.7135 18.2139 75.1437 17.0453L72.4933 18.4467C72.9895 19.3673 73.6979 20.103 74.6185 20.6591C75.539 21.2135 76.5828 21.4907 77.7498 21.4907C79.4728 21.4907 80.9118 20.9294 82.0651 19.8036C83.2184 18.6794 83.795 17.2848 83.795 15.62V5.59125H80.8382ZM79.9844 13.2141C79.4146 13.7839 78.6994 14.068 77.8387 14.068C76.978 14.068 76.3056 13.7839 75.7358 13.2141C75.166 12.6307 74.8819 11.9154 74.8819 11.0684C74.8819 10.2214 75.166 9.51303 75.7358 8.94328C76.3056 8.37348 77.0054 8.08944 77.8387 8.08944C78.672 8.08944 79.4163 8.37348 79.9844 8.94328C80.5542 9.49763 80.8382 10.206 80.8382 11.0684C80.8382 11.9308 80.5542 12.6461 79.9844 13.2141Z" fill="white"/>
</g>
</svg>
