<svg width="36" height="37" viewBox="0 0 36 37" fill="none" xmlns="http://www.w3.org/2000/svg">
<g id="Group 1000001980">
<g id="Rectangle 5627540">
<rect x="0.796875" y="10.6406" width="25.52" height="25.52" fill="url(#paint0_linear_47_2639)"/>
<rect x="1.23687" y="11.0806" width="24.64" height="24.64" stroke="white" stroke-opacity="0.08" stroke-width="0.88" stroke-dasharray="1.76 1.76"/>
</g>
<g id="Rectangle 5627542">
<path d="M26.3164 10.6409L35.9964 0.960938V26.0409L26.3164 36.1609V10.6409Z" fill="url(#paint1_linear_47_2639)"/>
<path d="M26.3164 13.3752V11.5524H26.7564V10.8232L27.2325 10.3471L26.9214 10.0359L28.1314 8.82594L28.4425 9.13706L29.6525 7.92706L29.3414 7.61594L30.5514 6.40594L30.8625 6.71706L32.0725 5.50706L31.7614 5.19594L32.9714 3.98594L33.2825 4.29706L34.4925 3.08706L34.1814 2.77594L35.3914 1.56594L35.5564 1.73094V1.85666H35.6821L35.7025 1.87706L35.7229 1.85666H35.9964V3.64809H35.5564V5.43951H35.9964V7.23094H35.5564V9.02237H35.9964V10.8138H35.5564V12.6052H35.9964V14.3967H35.5564V16.1881H35.9964V17.9795H35.5564V19.7709H35.9964V21.5624H35.5564V23.3538H35.9964V25.1452H35.5564V25.8644L35.0734 26.3693L35.3914 26.6734L34.1814 27.9384L33.8634 27.6343L32.6534 28.8993L32.9714 29.2034L31.7614 30.4684L31.4434 30.1643L30.2334 31.4293L30.5514 31.7334L29.3414 32.9984L29.0234 32.6943L27.8134 33.9593L28.1314 34.2634L26.9214 35.5284L26.7564 35.3706V35.2495H26.6298L26.6034 35.2243L26.5793 35.2495H26.3164V33.4267H26.7564V31.6038H26.3164V29.7809H26.7564V27.9581H26.3164V26.1352H26.7564V24.3124H26.3164V22.4895H26.7564V20.6667H26.3164V18.8438H26.7564V17.0209H26.3164V15.1981H26.7564V13.3752H26.3164Z" stroke="white" stroke-opacity="0.08" stroke-width="0.88" stroke-dasharray="1.76 1.76"/>
</g>
<g id="Rectangle 5627541">
<path d="M10.4769 0.960938H35.9969L26.3169 10.6409H0.796875L10.4769 0.960938Z" fill="url(#paint2_linear_47_2639)"/>
<path d="M8.66188 2.77594L9.87187 1.56594L10.183 1.87706L10.6591 1.40094H11.3883V0.960938H13.2112V1.40094H15.034V0.960938H16.8569V1.40094H18.6797V0.960938H20.5026V1.40094H22.3254V0.960938H24.1483V1.40094H25.9712V0.960938H27.794V1.40094H29.6169V0.960938H31.4397V1.40094H33.2626V0.960938H35.0854V1.25011L35.0807 1.25481L35.0854 1.25951V1.40094H35.2269L35.3919 1.56594L34.1819 2.77594L33.8708 2.46481L32.6607 3.67481L32.9719 3.98594L31.7619 5.19594L31.4507 4.88481L30.2407 6.09481L30.5519 6.40594L29.3419 7.61594L29.0307 7.30481L27.8207 8.51481L28.1319 8.82594L26.9219 10.0359L26.6107 9.72481L26.1346 10.2009H25.4054V10.6409H23.5826V10.2009H21.7597V10.6409H19.9369V10.2009H18.114V10.6409H16.2912V10.2009H14.4683V10.6409H12.6454V10.2009H10.8226V10.6409H8.99973V10.2009H7.17688V10.6409H5.35402V10.2009H3.53116V10.6409H1.7083V10.3518L1.713 10.3471L1.7083 10.3424V10.2009H1.56687L1.40187 10.0359L2.61187 8.82594L2.923 9.13706L4.133 7.92706L3.82188 7.61594L5.03188 6.40594L5.343 6.71706L6.553 5.50706L6.24188 5.19594L7.45188 3.98594L7.763 4.29706L8.973 3.08706L8.66188 2.77594Z" stroke="white" stroke-opacity="0.08" stroke-width="0.88" stroke-dasharray="1.76 1.76"/>
</g>
</g>
<defs>
<linearGradient id="paint0_linear_47_2639" x1="0.796875" y1="36.1606" x2="21.9169" y2="2.28063" gradientUnits="userSpaceOnUse">
<stop stop-color="#070E15"/>
<stop offset="1" stop-color="#BACDE1"/>
</linearGradient>
<linearGradient id="paint1_linear_47_2639" x1="31.1564" y1="0.960937" x2="31.1564" y2="36.1609" gradientUnits="userSpaceOnUse">
<stop stop-color="#ADBDCE"/>
<stop offset="1" stop-color="#364351"/>
</linearGradient>
<linearGradient id="paint2_linear_47_2639" x1="35.9969" y1="5.61109" x2="0.796875" y2="5.99078" gradientUnits="userSpaceOnUse">
<stop stop-color="#B1C0D2"/>
<stop offset="1" stop-color="#070E15"/>
</linearGradient>
</defs>
</svg>
