<svg width="24" height="24" viewBox="0 0 24 24" fill="none" xmlns="http://www.w3.org/2000/svg">
<g id="Frame 29153">
<g id="Group">
<path id="Vector" d="M6.76884 5C10.5072 5 13.5374 8.35805 13.5374 12.5001C13.5374 16.6422 10.5069 20 6.76884 20C3.03073 20 0 16.6422 0 12.5001C0 8.35805 3.0305 5 6.76884 5ZM17.5782 5.43934C19.4474 5.43934 20.9626 8.60024 20.9626 12.5001H20.9628C20.9628 16.399 19.4476 19.5609 17.5784 19.5609C15.7092 19.5609 14.194 16.399 14.194 12.5001C14.194 8.60126 15.709 5.43934 17.5782 5.43934ZM22.8097 6.17477C23.4669 6.17477 24 9.00668 24 12.5001C24 15.9926 23.4672 18.8255 22.8097 18.8255C22.1522 18.8255 21.6196 15.9933 21.6196 12.5001C21.6196 9.00693 22.1524 6.17477 22.8097 6.17477Z" fill="white"/>
</g>
</g>
</svg>
