<svg width="24" height="24" viewBox="0 0 24 24" fill="none" xmlns="http://www.w3.org/2000/svg">
<path d="M4.44432 11.3818C4.48316 11.3624 4.52201 11.3439 4.55988 11.3265C5.21819 11.0215 5.88525 10.7359 6.55132 10.4504C6.58725 10.4504 6.64743 10.4086 6.68142 10.395C6.73288 10.3727 6.78435 10.3513 6.83581 10.329C6.93485 10.2862 7.03389 10.2445 7.13196 10.2018C7.33003 10.1173 7.52713 10.0327 7.7252 9.94825L8.91074 9.44029C9.7011 9.1023 10.4925 8.76333 11.2828 8.42534C12.0732 8.08734 12.8645 7.74838 13.6549 7.41038C14.4452 7.07239 15.2366 6.73343 16.0269 6.39543C16.8173 6.05744 17.6086 5.71847 18.399 5.38048C18.5747 5.30472 18.765 5.19206 18.9534 5.15903C19.1117 5.13087 19.266 5.07648 19.4253 5.04637C19.7273 4.98907 20.0603 4.96576 20.3496 5.09105C20.4496 5.13476 20.5419 5.19594 20.6186 5.27267C20.9856 5.63592 20.9342 6.23226 20.8565 6.74314C20.3157 10.3037 19.7748 13.8653 19.233 17.4259C19.1592 17.9144 19.0583 18.4506 18.6728 18.7594C18.3465 19.0207 17.8824 19.0498 17.4795 18.9391C17.0765 18.8274 16.7212 18.5933 16.3726 18.3631C14.9268 17.4055 13.4801 16.4478 12.0343 15.4902C11.6906 15.2629 11.3081 14.9657 11.3119 14.5529C11.3139 14.3043 11.4624 14.0829 11.6139 13.8857C12.8703 12.2462 14.6831 11.1196 16.0318 9.55587C16.2221 9.3354 16.3716 8.93719 16.1104 8.80995C15.9551 8.7342 15.7764 8.83715 15.6346 8.93524C13.852 10.1736 12.0703 11.4129 10.2876 12.6512C9.70598 13.0553 9.09621 13.471 8.39518 13.57C7.76794 13.6594 7.13682 13.4846 6.52997 13.3059C6.02118 13.1563 5.51335 13.0028 5.00748 12.8445C4.73853 12.761 4.46083 12.6707 4.25304 12.4813C4.04526 12.2919 3.92585 11.9733 4.0511 11.7208C4.12975 11.5625 4.28219 11.4624 4.4424 11.3808L4.44432 11.3818Z" fill="white"/>
</svg>
