<svg width="107" height="23" viewBox="0 0 107 23" fill="none" xmlns="http://www.w3.org/2000/svg">
<g id="64afd327694afb35ff6d6132_logo 1" clip-path="url(#clip0_47_3739)">
<path id="Vector" fill-rule="evenodd" clip-rule="evenodd" d="M52.7783 6.96201L52.7756 4.41934H35.7402L35.743 6.96201H43.1417V17.9371H45.9315V6.96201H52.7783ZM64.2435 4.41934H54.8327V17.9371H57.6225V12.6553H60.8797L67.6157 17.9371H72.0827L65.2743 12.6338L65.278 12.6203C67.1324 12.489 68.4022 11.9983 69.2392 11.2998C70.2374 10.4666 70.5405 9.40402 70.5405 8.53734C70.5405 7.67066 70.2374 6.60808 69.2392 5.77488C68.2549 4.95345 66.6719 4.41934 64.2435 4.41934ZM88.8513 16.8283L89.1412 16.6588V10.1127H78.5365L78.5393 12.6553H86.4366V15.043C85.4929 15.3658 84.1385 15.6002 82.2304 15.6002C80.0711 15.6002 78.1106 15.0951 76.7106 14.2706C75.3051 13.4429 74.5458 12.3522 74.5458 11.1782C74.5458 10.0036 75.3058 8.90854 76.7113 8.07664C78.112 7.24815 80.0718 6.73908 82.2304 6.73908C85.0345 6.73908 87.1179 7.49439 88.0347 8.23757L88.988 9.01072V5.69528L88.6946 5.52639C87.1711 4.64814 84.6334 4.16211 82.2304 4.16211C79.4457 4.16211 76.8604 4.86097 74.9517 6.07314C73.0436 7.28488 71.7562 9.05505 71.7562 11.1782C71.7562 13.3277 73.005 15.1003 74.9068 16.3089C76.8038 17.5148 79.3911 18.1943 82.2304 18.1943C85.3962 18.1943 87.4707 17.6354 88.8513 16.8283ZM106.999 16.5988V13.262L106.037 14.0749C104.896 15.0388 103.085 15.6174 100.89 15.6174C98.5379 15.6174 96.779 15.0586 95.6248 14.2308C94.4802 13.4094 93.921 12.3217 93.921 11.1782C93.921 10.0353 94.4795 8.95217 95.6241 8.13498C96.7776 7.31116 98.5365 6.75622 100.89 6.75622C103.182 6.75622 104.885 7.44316 105.889 8.26928L106.845 9.0563V5.74871L106.577 5.57583C105.122 4.63755 103.124 4.17926 100.89 4.17926C94.9565 4.17926 91.1314 7.26056 91.1314 11.1782C91.1314 13.2371 92.0779 15.0203 93.7906 16.2706C95.4888 17.5106 97.9146 18.2115 100.89 18.2115C103.126 18.2115 105.24 17.7929 106.742 16.7729L106.999 16.5988ZM64.2435 10.1127H57.6225V6.96201H64.2435C65.816 6.96201 66.6937 7.25024 67.1624 7.5728C67.6008 7.87445 67.7167 8.22844 67.7167 8.53734C67.7167 8.84623 67.6008 9.20022 67.1624 9.50187C66.6937 9.82443 65.816 10.1127 64.2435 10.1127Z" fill="white"/>
<path id="Vector_2" fill-rule="evenodd" clip-rule="evenodd" d="M16.7305 17.4625C18.4485 15.9093 19.529 13.6571 19.529 11.1511C19.529 8.64504 18.4485 6.39277 16.7305 4.83968C17.5835 4.36049 18.5437 4.05112 19.5658 3.95703C21.1978 5.89894 22.1817 8.40946 22.1817 11.1511C22.1817 13.8927 21.1978 16.4032 19.5658 18.3451C18.5437 18.251 17.5835 17.9416 16.7305 17.4625Z" fill="white"/>
<path id="Vector_3" fill-rule="evenodd" clip-rule="evenodd" d="M11.0901 0C12.0082 0 12.9002 0.112184 13.7534 0.323665C13.9245 0.366094 14.0944 0.421592 14.2639 0.470879C14.7458 0.611027 15.214 0.782634 15.666 0.983278L15.6659 0.990701C17.061 0.35435 18.6104 0 20.2421 0C26.3669 0 31.3322 4.99298 31.3322 11.1521C31.3322 17.3113 26.3669 22.3042 20.2421 22.3042C18.6103 22.3042 17.0609 21.9499 15.6658 21.3135L15.666 21.3262C15.2824 21.4965 14.8871 21.6459 14.4817 21.7728C14.1335 21.8819 13.7828 21.9795 13.4261 22.0564C12.6729 22.2188 11.8914 22.3042 11.0901 22.3042C4.96519 22.3042 0 17.3113 0 11.1521C0 4.99298 4.96519 0 11.0901 0ZM8.2214 19.1169C9.18854 19.4694 10.2369 19.651 11.3288 19.6258C11.8457 19.614 12.3506 19.5563 12.84 19.4567C10.5762 17.4149 9.15202 14.4508 9.15202 11.1521C9.15202 7.85575 10.5742 4.89343 12.8352 2.85179C12.3474 2.75283 11.844 2.69545 11.3288 2.6836C10.4159 2.66261 9.53342 2.78612 8.70338 3.03315C8.2595 3.16526 7.82253 3.32021 7.52293 3.46096C4.6461 4.81251 2.65278 7.74821 2.65278 11.1521C2.65278 14.5064 4.58848 17.4062 7.39784 18.7833C7.665 18.9142 7.93754 19.0135 8.2214 19.1169ZM28.6794 11.1521C28.6794 15.838 24.9019 19.6366 20.2421 19.6366C15.5823 19.6366 11.8048 15.838 11.8048 11.1521C11.8048 6.46626 15.5823 2.66762 20.2421 2.66762C24.9019 2.66762 28.6794 6.46626 28.6794 11.1521Z" fill="white"/>
</g>
<defs>
<clipPath id="clip0_47_3739">
<rect width="107" height="23" fill="white"/>
</clipPath>
</defs>
</svg>
